<svg xmlns="http://www.w3.org/2000/svg" id="prefigure-continuous4-figure" viewBox="0 0 310 310" style="aspect-ratio: 310 / 310;">
  <defs>
    <clipPath id="prefigure-continuous4-__clipPath-0">
      <rect x="5.0" y="5.0" width="300.0" height="300.0"/>
    </clipPath>
    <clipPath id="prefigure-continuous4-__clipPath-1">
      <rect x="5.0" y="5.0" width="300.0" height="300.0"/>
    </clipPath>
  </defs>
  <g id="prefigure-continuous4-axes" stroke="black" stroke-width="2">
    <line id="prefigure-continuous4-__line-0" x1="5.0" y1="155.0" x2="305.0" y2="155.0" stroke="black" stroke-width="2"/>
    <g id="prefigure-continuous4-__g-0">
      <line id="prefigure-continuous4-__line-1" x1="5.0" y1="158.0" x2="5.0" y2="152.0"/>
      <line id="prefigure-continuous4-__line-2" x1="42.5" y1="158.0" x2="42.5" y2="152.0"/>
      <line id="prefigure-continuous4-__line-3" x1="80.0" y1="158.0" x2="80.0" y2="152.0"/>
      <line id="prefigure-continuous4-__line-4" x1="117.5" y1="158.0" x2="117.5" y2="152.0"/>
      <line id="prefigure-continuous4-__line-5" x1="192.5" y1="158.0" x2="192.5" y2="152.0"/>
      <line id="prefigure-continuous4-__line-6" x1="230.0" y1="158.0" x2="230.0" y2="152.0"/>
      <line id="prefigure-continuous4-__line-7" x1="267.5" y1="158.0" x2="267.5" y2="152.0"/>
      <line id="prefigure-continuous4-__line-8" x1="305.0" y1="158.0" x2="305.0" y2="152.0"/>
      <line id="prefigure-continuous4-__line-9" x1="5.0" y1="158.0" x2="5.0" y2="152.0"/>
      <line id="prefigure-continuous4-__line-10" x1="42.5" y1="158.0" x2="42.5" y2="152.0"/>
      <line id="prefigure-continuous4-__line-11" x1="80.0" y1="158.0" x2="80.0" y2="152.0"/>
      <line id="prefigure-continuous4-__line-12" x1="117.5" y1="158.0" x2="117.5" y2="152.0"/>
      <line id="prefigure-continuous4-__line-13" x1="192.5" y1="158.0" x2="192.5" y2="152.0"/>
      <line id="prefigure-continuous4-__line-14" x1="230.0" y1="158.0" x2="230.0" y2="152.0"/>
      <line id="prefigure-continuous4-__line-15" x1="267.5" y1="158.0" x2="267.5" y2="152.0"/>
      <line id="prefigure-continuous4-__line-16" x1="305.0" y1="158.0" x2="305.0" y2="152.0"/>
    </g>
    <line id="prefigure-continuous4-__line-17" x1="155.0" y1="305.0" x2="155.0" y2="5.0" stroke="black" stroke-width="2"/>
    <g id="prefigure-continuous4-__g-1">
      <line id="prefigure-continuous4-__line-18" x1="152.0" y1="305.0" x2="158.0" y2="305.0"/>
      <line id="prefigure-continuous4-__line-19" x1="152.0" y1="267.5" x2="158.0" y2="267.5"/>
      <line id="prefigure-continuous4-__line-20" x1="152.0" y1="230.0" x2="158.0" y2="230.0"/>
      <line id="prefigure-continuous4-__line-21" x1="152.0" y1="192.5" x2="158.0" y2="192.5"/>
      <line id="prefigure-continuous4-__line-22" x1="152.0" y1="117.5" x2="158.0" y2="117.5"/>
      <line id="prefigure-continuous4-__line-23" x1="152.0" y1="80.0" x2="158.0" y2="80.0"/>
      <line id="prefigure-continuous4-__line-24" x1="152.0" y1="42.5" x2="158.0" y2="42.5"/>
      <line id="prefigure-continuous4-__line-25" x1="152.0" y1="5.0" x2="158.0" y2="5.0"/>
      <line id="prefigure-continuous4-__line-26" x1="152.0" y1="305.0" x2="158.0" y2="305.0"/>
      <line id="prefigure-continuous4-__line-27" x1="152.0" y1="267.5" x2="158.0" y2="267.5"/>
      <line id="prefigure-continuous4-__line-28" x1="152.0" y1="230.0" x2="158.0" y2="230.0"/>
      <line id="prefigure-continuous4-__line-29" x1="152.0" y1="192.5" x2="158.0" y2="192.5"/>
      <line id="prefigure-continuous4-__line-30" x1="152.0" y1="117.5" x2="158.0" y2="117.5"/>
      <line id="prefigure-continuous4-__line-31" x1="152.0" y1="80.0" x2="158.0" y2="80.0"/>
      <line id="prefigure-continuous4-__line-32" x1="152.0" y1="42.5" x2="158.0" y2="42.5"/>
      <line id="prefigure-continuous4-__line-33" x1="152.0" y1="5.0" x2="158.0" y2="5.0"/>
    </g>
  </g>
  <g id="prefigure-continuous4-__label-0" transform="translate(301.0,151.0) translate(-10.4,-8.2)">
    <g id="prefigure-continuous4-__g-2">
      <svg xmlns:xlink="http://www.w3.org/1999/xlink" style="vertical-align: -0.200px" width="10.352px" height="8.200px" role="img" focusable="false" viewBox="0 -442 572 453" x="0.0" y="0.0">
        <defs>
          <path id="prefigure-continuous4-MJX-2-NCM-I-1D465" d="M527 373C527 419 482 442 432 442C389 442 355 419 329 373C308 419 273 442 222 442C173 442 133 419 101 374C74 335 60 306 60 287C60 278 65 273 75 273C84 273 90 278 92 287C111 345 153 413 220 413C253 413 269 392 269 351C269 330 251 252 216 118C199 51 169 18 126 18C112 18 99 21 88 26C114 36 127 54 127 80C127 106 114 119 87 119C54 119 29 91 29 58C29 12 76-11 125-11C167-11 201 12 228 58C247 12 283-11 335-11C383-11 423 12 455 57C482 96 496 125 496 144C496 153 491 158 481 158C472 158 467 153 464 144C447 87 402 18 337 18C304 18 287 38 287 79C287 92 292 120 303 165L337 300C356 375 387 413 431 413C445 413 458 410 469 405C442 396 429 378 429 351C429 325 443 312 470 312C502 312 527 341 527 373Z"/>
        </defs>
        <g stroke="currentColor" fill="currentColor" stroke-width="0" transform="scale(1,-1)">
          <g data-mml-node="math">
            <g data-mml-node="mi" data-semantic-type="identifier" data-semantic-role="latinletter" data-semantic-font="italic" data-semantic-annotation="clearspeak:simple;nemeth:number;depth:1" data-semantic-id="0" data-semantic-attributes="latex:x" data-semantic-speech="x">
              <use data-c="1D465" xlink:href="#prefigure-continuous4-MJX-2-NCM-I-1D465"/>
            </g>
          </g>
        </g>
      </svg>
    </g>
  </g>
  <g id="prefigure-continuous4-__label-1" transform="translate(159.0,9.0) translate(0.0,-0.0)">
    <g id="prefigure-continuous4-__g-3">
      <svg xmlns:xlink="http://www.w3.org/1999/xlink" style="vertical-align: -4.488px" width="34.424px" height="18.024px" role="img" focusable="false" viewBox="0 -748 1902 996" x="0.0" y="0.0">
        <defs>
          <path id="prefigure-continuous4-MJX-3-NCM-I-1D453" d="M552 633C552 677 509 705 462 705C400 705 357 665 334 586C329 568 318 517 302 433L237 433C215 433 204 432 204 411C204 400 214 395 235 395L295 395L222 8C211-49 201-91 192-119C180-156 163-175 141-175C126-175 114-171 103-164C135-159 151-140 151-108C151-82 138-69 111-69C77-69 53-99 53-133C53-177 94-205 141-205C166-205 189-195 208-174C240-141 265-94 283-31C294 8 304 46 311 84L369 395L451 395C474 395 484 396 484 419C484 428 474 433 454 433L377 433C383 474 411 625 420 644C430 665 444 675 462 675C477 675 490 671 501 664C470 657 454 639 454 608C454 582 467 569 494 569C528 569 552 599 552 633Z"/>
          <path id="prefigure-continuous4-MJX-3-NCM-N-2061" d=""/>
          <path id="prefigure-continuous4-MJX-3-NCM-N-28" d="M318-248C327-248 332-243 332-234C332-231 330-227 327-223C275-183 233-117 202-26C175 53 161 131 161 208L161 292C161 369 175 447 202 526C233 617 275 683 327 723C330 726 332 730 332 734C332 743 327 748 318 748C317 748 314 747 311 745C251 699 201 631 160 540C121 453 101 371 101 292L101 208C101 129 121 47 160-40C201-131 251-199 311-245C314-247 317-248 318-248Z"/>
          <path id="prefigure-continuous4-MJX-3-NCM-I-1D465" d="M527 373C527 419 482 442 432 442C389 442 355 419 329 373C308 419 273 442 222 442C173 442 133 419 101 374C74 335 60 306 60 287C60 278 65 273 75 273C84 273 90 278 92 287C111 345 153 413 220 413C253 413 269 392 269 351C269 330 251 252 216 118C199 51 169 18 126 18C112 18 99 21 88 26C114 36 127 54 127 80C127 106 114 119 87 119C54 119 29 91 29 58C29 12 76-11 125-11C167-11 201 12 228 58C247 12 283-11 335-11C383-11 423 12 455 57C482 96 496 125 496 144C496 153 491 158 481 158C472 158 467 153 464 144C447 87 402 18 337 18C304 18 287 38 287 79C287 92 292 120 303 165L337 300C356 375 387 413 431 413C445 413 458 410 469 405C442 396 429 378 429 351C429 325 443 312 470 312C502 312 527 341 527 373Z"/>
          <path id="prefigure-continuous4-MJX-3-NCM-N-29" d="M78-245C138-199 188-131 229-40C268 47 288 129 288 208L288 292C288 371 268 453 229 540C188 631 138 699 78 745C75 747 72 748 71 748C62 748 57 743 57 734C57 730 59 726 62 723C114 683 156 617 187 526C214 447 228 369 228 292L228 208C228 131 214 53 187-26C156-117 114-183 62-223C59-227 57-231 57-234C57-243 62-248 71-248C72-248 75-247 78-245Z"/>
        </defs>
        <g stroke="currentColor" fill="currentColor" stroke-width="0" transform="scale(1,-1)">
          <g data-mml-node="math" data-semantic-type="appl" data-semantic-role="simple function" data-semantic-annotation="clearspeak:simple;depth:1" data-semantic-id="6" data-semantic-children="0,4" data-semantic-content="5,0" data-semantic-attributes="latex:f(x)" data-semantic-speech="f left parenthesis x right parenthesis">
            <g data-mml-node="mi" data-semantic-type="identifier" data-semantic-role="simple function" data-semantic-font="italic" data-semantic-annotation="clearspeak:simple;nemeth:number;depth:2" data-semantic-id="0" data-semantic-parent="6" data-semantic-attributes="latex:f" data-semantic-operator="appl" data-semantic-speech="f">
              <use data-c="1D453" xlink:href="#prefigure-continuous4-MJX-3-NCM-I-1D453"/>
            </g>
            <g data-mml-node="mo" data-semantic-type="punctuation" data-semantic-role="application" data-semantic-annotation="nemeth:number;depth:2" data-semantic-id="5" data-semantic-parent="6" data-semantic-added="true" data-semantic-operator="appl" data-semantic-speech="of" transform="translate(552,0)">
              <use data-c="2061" xlink:href="#prefigure-continuous4-MJX-3-NCM-N-2061"/>
            </g>
            <g data-mml-node="mrow" data-semantic-added="true" data-semantic-type="fenced" data-semantic-role="leftright" data-semantic-annotation="fences:paren;depth:2" data-semantic-id="4" data-semantic-children="2" data-semantic-content="1,3" data-semantic-parent="6" data-semantic-speech="left parenthesis x right parenthesis" transform="translate(552,0)">
              <g data-mml-node="mo" data-semantic-type="fence" data-semantic-role="open" data-semantic-annotation="depth:3" data-semantic-id="1" data-semantic-parent="4" data-semantic-attributes="latex:(" data-semantic-operator="fenced" data-semantic-speech="left parenthesis">
                <use data-c="28" xlink:href="#prefigure-continuous4-MJX-3-NCM-N-28"/>
              </g>
              <g data-mml-node="mi" data-semantic-type="identifier" data-semantic-role="latinletter" data-semantic-font="italic" data-semantic-annotation="clearspeak:simple;depth:3" data-semantic-id="2" data-semantic-parent="4" data-semantic-attributes="latex:x" data-semantic-speech="x" transform="translate(389,0)">
                <use data-c="1D465" xlink:href="#prefigure-continuous4-MJX-3-NCM-I-1D465"/>
              </g>
              <g data-mml-node="mo" data-semantic-type="fence" data-semantic-role="close" data-semantic-annotation="depth:3" data-semantic-id="3" data-semantic-parent="4" data-semantic-attributes="latex:)" data-semantic-operator="fenced" data-semantic-speech="right parenthesis" transform="translate(961,0)">
                <use data-c="29" xlink:href="#prefigure-continuous4-MJX-3-NCM-N-29"/>
              </g>
            </g>
          </g>
        </g>
      </svg>
    </g>
  </g>
  <g id="prefigure-continuous4-__label-2" transform="translate(5.0,166.0) translate(-7.5,-0.0)">
    <g id="prefigure-continuous4-__g-4">
      <svg xmlns:xlink="http://www.w3.org/1999/xlink" style="vertical-align: 0.000px" width="15.080px" height="12.056px" role="img" focusable="false" viewBox="0 -666 833 666" x="0.0" y="0.0">
        <defs>
          <path id="prefigure-continuous4-MJX-4-NCM-N-2D" d="M11 187L276 187L276 245L11 245Z"/>
          <path id="prefigure-continuous4-MJX-4-NCM-N-32" d="M237 666C186 666 143 648 106 612C69 576 50 534 50 483C50 449 75 424 106 424C136 424 161 450 161 480C161 513 137 536 105 536C102 536 100 536 98 535C117 584 161 627 224 627C306 627 352 556 352 470C352 403 318 331 250 255L62 43C49 28 50 29 50 0L421 0L450 180L417 180C409 129 402 100 396 91C391 86 361 84 306 84L139 84L236 179C304 243 390 312 419 365C439 400 449 435 449 470C449 588 357 666 237 666Z"/>
        </defs>
        <g stroke="currentColor" fill="currentColor" stroke-width="0" transform="scale(1,-1)">
          <g data-mml-node="math">
            <g data-mml-node="mtext" data-semantic-type="text" data-semantic-role="unknown" data-semantic-font="normal" data-semantic-annotation="clearspeak:unit;nemeth:number;depth:1" data-semantic-id="0" data-semantic-attributes="latex:\text{-2}" data-semantic-speech="minus 2">
              <use data-c="2D" xlink:href="#prefigure-continuous4-MJX-4-NCM-N-2D"/>
              <use data-c="32" xlink:href="#prefigure-continuous4-MJX-4-NCM-N-32" transform="translate(333,0)"/>
            </g>
          </g>
        </g>
      </svg>
    </g>
  </g>
  <g id="prefigure-continuous4-__label-3" transform="translate(42.5,166.0) translate(-14.6,-0.0)">
    <g id="prefigure-continuous4-__g-5">
      <svg xmlns:xlink="http://www.w3.org/1999/xlink" style="vertical-align: -0.400px" width="29.160px" height="12.456px" role="img" focusable="false" viewBox="0 -666 1611 688" x="0.0" y="0.0">
        <defs>
          <path id="prefigure-continuous4-MJX-5-NCM-N-2D" d="M11 187L276 187L276 245L11 245Z"/>
          <path id="prefigure-continuous4-MJX-5-NCM-N-31" d="M269 666C228 624 168 603 89 603L89 564C141 564 184 572 217 588L217 82C217 64 213 52 204 47C195 42 170 39 130 39L95 39L95 0C120 2 174 3 257 3C340 3 394 2 419 0L419 39L384 39C343 39 318 42 310 47C302 52 297 64 297 82L297 636C297 660 295 666 269 666Z"/>
          <path id="prefigure-continuous4-MJX-5-NCM-N-2E" d="M192 53C192 82 168 106 139 106C110 106 86 82 86 53C86 24 110 0 139 0C168 0 192 24 192 53Z"/>
          <path id="prefigure-continuous4-MJX-5-NCM-N-35" d="M118 315C123 315 129 319 134 326C164 371 205 393 257 393C292 393 319 373 337 332C348 305 354 264 354 209C354 146 346 102 331 76C306 35 272 14 229 14C162 14 109 62 91 114C94 113 96 114 100 114C130 114 155 137 155 167C155 198 130 219 100 219C65 219 50 200 50 163C50 63 131-22 231-22C292-22 344 0 386 44C428 88 449 141 449 202C449 260 432 310 398 353C361 400 315 423 259 423C212 423 171 408 138 378L138 556C165 548 191 544 218 544C264 544 304 555 338 578C369 597 390 616 402 634C408 642 411 648 411 651C411 661 406 666 396 666C341 645 294 634 256 634C211 634 168 643 127 662C122 664 118 665 114 665C105 665 100 656 100 637L100 345C100 324 100 315 118 315Z"/>
        </defs>
        <g stroke="currentColor" fill="currentColor" stroke-width="0" transform="scale(1,-1)">
          <g data-mml-node="math">
            <g data-mml-node="mtext" data-semantic-type="text" data-semantic-role="unknown" data-semantic-font="normal" data-semantic-annotation="clearspeak:unit;nemeth:number;depth:1" data-semantic-id="0" data-semantic-attributes="latex:\text{-1.5}" data-semantic-speech="minus 1.5">
              <use data-c="2D" xlink:href="#prefigure-continuous4-MJX-5-NCM-N-2D"/>
              <use data-c="31" xlink:href="#prefigure-continuous4-MJX-5-NCM-N-31" transform="translate(333,0)"/>
              <use data-c="2E" xlink:href="#prefigure-continuous4-MJX-5-NCM-N-2E" transform="translate(833,0)"/>
              <use data-c="35" xlink:href="#prefigure-continuous4-MJX-5-NCM-N-35" transform="translate(1111,0)"/>
            </g>
          </g>
        </g>
      </svg>
    </g>
  </g>
  <g id="prefigure-continuous4-__label-4" transform="translate(80.0,166.0) translate(-7.5,-0.0)">
    <g id="prefigure-continuous4-__g-6">
      <svg xmlns:xlink="http://www.w3.org/1999/xlink" style="vertical-align: 0.000px" width="15.080px" height="12.056px" role="img" focusable="false" viewBox="0 -666 833 666" x="0.0" y="0.0">
        <defs>
          <path id="prefigure-continuous4-MJX-6-NCM-N-2D" d="M11 187L276 187L276 245L11 245Z"/>
          <path id="prefigure-continuous4-MJX-6-NCM-N-31" d="M269 666C228 624 168 603 89 603L89 564C141 564 184 572 217 588L217 82C217 64 213 52 204 47C195 42 170 39 130 39L95 39L95 0C120 2 174 3 257 3C340 3 394 2 419 0L419 39L384 39C343 39 318 42 310 47C302 52 297 64 297 82L297 636C297 660 295 666 269 666Z"/>
        </defs>
        <g stroke="currentColor" fill="currentColor" stroke-width="0" transform="scale(1,-1)">
          <g data-mml-node="math">
            <g data-mml-node="mtext" data-semantic-type="text" data-semantic-role="unknown" data-semantic-font="normal" data-semantic-annotation="clearspeak:unit;nemeth:number;depth:1" data-semantic-id="0" data-semantic-attributes="latex:\text{-1}" data-semantic-speech="minus 1">
              <use data-c="2D" xlink:href="#prefigure-continuous4-MJX-6-NCM-N-2D"/>
              <use data-c="31" xlink:href="#prefigure-continuous4-MJX-6-NCM-N-31" transform="translate(333,0)"/>
            </g>
          </g>
        </g>
      </svg>
    </g>
  </g>
  <g id="prefigure-continuous4-__label-5" transform="translate(117.5,166.0) translate(-14.6,-0.0)">
    <g id="prefigure-continuous4-__g-7">
      <svg xmlns:xlink="http://www.w3.org/1999/xlink" style="vertical-align: -0.400px" width="29.160px" height="12.456px" role="img" focusable="false" viewBox="0 -666 1611 688" x="0.0" y="0.0">
        <defs>
          <path id="prefigure-continuous4-MJX-7-NCM-N-2D" d="M11 187L276 187L276 245L11 245Z"/>
          <path id="prefigure-continuous4-MJX-7-NCM-N-30" d="M249-22C390-22 460 92 460 320C460 473 428 575 365 625C330 652 291 666 250 666C109 666 39 551 39 320C39 136 88-22 249-22M361 524C368 489 371 425 371 332C371 240 367 172 360 128C347 48 310 8 249 8C226 8 203 17 182 34C155 57 139 104 132 176C129 201 128 253 128 332C128 419 131 480 136 513C145 568 163 603 191 618C213 630 232 636 249 636C314 636 350 583 361 524Z"/>
          <path id="prefigure-continuous4-MJX-7-NCM-N-2E" d="M192 53C192 82 168 106 139 106C110 106 86 82 86 53C86 24 110 0 139 0C168 0 192 24 192 53Z"/>
          <path id="prefigure-continuous4-MJX-7-NCM-N-35" d="M118 315C123 315 129 319 134 326C164 371 205 393 257 393C292 393 319 373 337 332C348 305 354 264 354 209C354 146 346 102 331 76C306 35 272 14 229 14C162 14 109 62 91 114C94 113 96 114 100 114C130 114 155 137 155 167C155 198 130 219 100 219C65 219 50 200 50 163C50 63 131-22 231-22C292-22 344 0 386 44C428 88 449 141 449 202C449 260 432 310 398 353C361 400 315 423 259 423C212 423 171 408 138 378L138 556C165 548 191 544 218 544C264 544 304 555 338 578C369 597 390 616 402 634C408 642 411 648 411 651C411 661 406 666 396 666C341 645 294 634 256 634C211 634 168 643 127 662C122 664 118 665 114 665C105 665 100 656 100 637L100 345C100 324 100 315 118 315Z"/>
        </defs>
        <g stroke="currentColor" fill="currentColor" stroke-width="0" transform="scale(1,-1)">
          <g data-mml-node="math">
            <g data-mml-node="mtext" data-semantic-type="text" data-semantic-role="unknown" data-semantic-font="normal" data-semantic-annotation="clearspeak:unit;nemeth:number;depth:1" data-semantic-id="0" data-semantic-attributes="latex:\text{-0.5}" data-semantic-speech="minus 0.5">
              <use data-c="2D" xlink:href="#prefigure-continuous4-MJX-7-NCM-N-2D"/>
              <use data-c="30" xlink:href="#prefigure-continuous4-MJX-7-NCM-N-30" transform="translate(333,0)"/>
              <use data-c="2E" xlink:href="#prefigure-continuous4-MJX-7-NCM-N-2E" transform="translate(833,0)"/>
              <use data-c="35" xlink:href="#prefigure-continuous4-MJX-7-NCM-N-35" transform="translate(1111,0)"/>
            </g>
          </g>
        </g>
      </svg>
    </g>
  </g>
  <g id="prefigure-continuous4-__label-6" transform="translate(192.5,166.0) translate(-11.6,-0.0)">
    <g id="prefigure-continuous4-__g-8">
      <svg xmlns:xlink="http://www.w3.org/1999/xlink" style="vertical-align: -0.400px" width="23.128px" height="12.456px" role="img" focusable="false" viewBox="0 -666 1278 688" x="0.0" y="0.0">
        <defs>
          <path id="prefigure-continuous4-MJX-8-NCM-N-30" d="M249-22C390-22 460 92 460 320C460 473 428 575 365 625C330 652 291 666 250 666C109 666 39 551 39 320C39 136 88-22 249-22M361 524C368 489 371 425 371 332C371 240 367 172 360 128C347 48 310 8 249 8C226 8 203 17 182 34C155 57 139 104 132 176C129 201 128 253 128 332C128 419 131 480 136 513C145 568 163 603 191 618C213 630 232 636 249 636C314 636 350 583 361 524Z"/>
          <path id="prefigure-continuous4-MJX-8-NCM-N-2E" d="M192 53C192 82 168 106 139 106C110 106 86 82 86 53C86 24 110 0 139 0C168 0 192 24 192 53Z"/>
          <path id="prefigure-continuous4-MJX-8-NCM-N-35" d="M118 315C123 315 129 319 134 326C164 371 205 393 257 393C292 393 319 373 337 332C348 305 354 264 354 209C354 146 346 102 331 76C306 35 272 14 229 14C162 14 109 62 91 114C94 113 96 114 100 114C130 114 155 137 155 167C155 198 130 219 100 219C65 219 50 200 50 163C50 63 131-22 231-22C292-22 344 0 386 44C428 88 449 141 449 202C449 260 432 310 398 353C361 400 315 423 259 423C212 423 171 408 138 378L138 556C165 548 191 544 218 544C264 544 304 555 338 578C369 597 390 616 402 634C408 642 411 648 411 651C411 661 406 666 396 666C341 645 294 634 256 634C211 634 168 643 127 662C122 664 118 665 114 665C105 665 100 656 100 637L100 345C100 324 100 315 118 315Z"/>
        </defs>
        <g stroke="currentColor" fill="currentColor" stroke-width="0" transform="scale(1,-1)">
          <g data-mml-node="math">
            <g data-mml-node="mtext" data-semantic-type="text" data-semantic-role="unknown" data-semantic-font="normal" data-semantic-annotation="clearspeak:unit;nemeth:number;depth:1" data-semantic-id="0" data-semantic-attributes="latex:\text{0.5}" data-semantic-speech="0.5">
              <use data-c="30" xlink:href="#prefigure-continuous4-MJX-8-NCM-N-30"/>
              <use data-c="2E" xlink:href="#prefigure-continuous4-MJX-8-NCM-N-2E" transform="translate(500,0)"/>
              <use data-c="35" xlink:href="#prefigure-continuous4-MJX-8-NCM-N-35" transform="translate(778,0)"/>
            </g>
          </g>
        </g>
      </svg>
    </g>
  </g>
  <g id="prefigure-continuous4-__label-7" transform="translate(230.0,166.0) translate(-4.5,-0.0)">
    <g id="prefigure-continuous4-__g-9">
      <svg xmlns:xlink="http://www.w3.org/1999/xlink" style="vertical-align: 0.000px" width="9.048px" height="12.056px" role="img" focusable="false" viewBox="0 -666 500 666" x="0.0" y="0.0">
        <defs>
          <path id="prefigure-continuous4-MJX-9-NCM-N-31" d="M269 666C228 624 168 603 89 603L89 564C141 564 184 572 217 588L217 82C217 64 213 52 204 47C195 42 170 39 130 39L95 39L95 0C120 2 174 3 257 3C340 3 394 2 419 0L419 39L384 39C343 39 318 42 310 47C302 52 297 64 297 82L297 636C297 660 295 666 269 666Z"/>
        </defs>
        <g stroke="currentColor" fill="currentColor" stroke-width="0" transform="scale(1,-1)">
          <g data-mml-node="math">
            <g data-mml-node="mtext" data-semantic-type="number" data-semantic-role="integer" data-semantic-font="normal" data-semantic-annotation="general:text;clearspeak:simple;nemeth:number;depth:1" data-semantic-id="0" data-semantic-attributes="latex:\text{1}" data-semantic-speech="1">
              <use data-c="31" xlink:href="#prefigure-continuous4-MJX-9-NCM-N-31"/>
            </g>
          </g>
        </g>
      </svg>
    </g>
  </g>
  <g id="prefigure-continuous4-__label-8" transform="translate(267.5,166.0) translate(-11.6,-0.0)">
    <g id="prefigure-continuous4-__g-10">
      <svg xmlns:xlink="http://www.w3.org/1999/xlink" style="vertical-align: -0.400px" width="23.128px" height="12.456px" role="img" focusable="false" viewBox="0 -666 1278 688" x="0.0" y="0.0">
        <defs>
          <path id="prefigure-continuous4-MJX-10-NCM-N-31" d="M269 666C228 624 168 603 89 603L89 564C141 564 184 572 217 588L217 82C217 64 213 52 204 47C195 42 170 39 130 39L95 39L95 0C120 2 174 3 257 3C340 3 394 2 419 0L419 39L384 39C343 39 318 42 310 47C302 52 297 64 297 82L297 636C297 660 295 666 269 666Z"/>
          <path id="prefigure-continuous4-MJX-10-NCM-N-2E" d="M192 53C192 82 168 106 139 106C110 106 86 82 86 53C86 24 110 0 139 0C168 0 192 24 192 53Z"/>
          <path id="prefigure-continuous4-MJX-10-NCM-N-35" d="M118 315C123 315 129 319 134 326C164 371 205 393 257 393C292 393 319 373 337 332C348 305 354 264 354 209C354 146 346 102 331 76C306 35 272 14 229 14C162 14 109 62 91 114C94 113 96 114 100 114C130 114 155 137 155 167C155 198 130 219 100 219C65 219 50 200 50 163C50 63 131-22 231-22C292-22 344 0 386 44C428 88 449 141 449 202C449 260 432 310 398 353C361 400 315 423 259 423C212 423 171 408 138 378L138 556C165 548 191 544 218 544C264 544 304 555 338 578C369 597 390 616 402 634C408 642 411 648 411 651C411 661 406 666 396 666C341 645 294 634 256 634C211 634 168 643 127 662C122 664 118 665 114 665C105 665 100 656 100 637L100 345C100 324 100 315 118 315Z"/>
        </defs>
        <g stroke="currentColor" fill="currentColor" stroke-width="0" transform="scale(1,-1)">
          <g data-mml-node="math">
            <g data-mml-node="mtext" data-semantic-type="text" data-semantic-role="unknown" data-semantic-font="normal" data-semantic-annotation="clearspeak:unit;nemeth:number;depth:1" data-semantic-id="0" data-semantic-attributes="latex:\text{1.5}" data-semantic-speech="1.5">
              <use data-c="31" xlink:href="#prefigure-continuous4-MJX-10-NCM-N-31"/>
              <use data-c="2E" xlink:href="#prefigure-continuous4-MJX-10-NCM-N-2E" transform="translate(500,0)"/>
              <use data-c="35" xlink:href="#prefigure-continuous4-MJX-10-NCM-N-35" transform="translate(778,0)"/>
            </g>
          </g>
        </g>
      </svg>
    </g>
  </g>
  <g id="prefigure-continuous4-__label-9" transform="translate(305.0,166.0) translate(-4.5,-0.0)">
    <g id="prefigure-continuous4-__g-11">
      <svg xmlns:xlink="http://www.w3.org/1999/xlink" style="vertical-align: 0.000px" width="9.048px" height="12.056px" role="img" focusable="false" viewBox="0 -666 500 666" x="0.0" y="0.0">
        <defs>
          <path id="prefigure-continuous4-MJX-11-NCM-N-32" d="M237 666C186 666 143 648 106 612C69 576 50 534 50 483C50 449 75 424 106 424C136 424 161 450 161 480C161 513 137 536 105 536C102 536 100 536 98 535C117 584 161 627 224 627C306 627 352 556 352 470C352 403 318 331 250 255L62 43C49 28 50 29 50 0L421 0L450 180L417 180C409 129 402 100 396 91C391 86 361 84 306 84L139 84L236 179C304 243 390 312 419 365C439 400 449 435 449 470C449 588 357 666 237 666Z"/>
        </defs>
        <g stroke="currentColor" fill="currentColor" stroke-width="0" transform="scale(1,-1)">
          <g data-mml-node="math">
            <g data-mml-node="mtext" data-semantic-type="number" data-semantic-role="integer" data-semantic-font="normal" data-semantic-annotation="general:text;clearspeak:simple;nemeth:number;depth:1" data-semantic-id="0" data-semantic-attributes="latex:\text{2}" data-semantic-speech="2">
              <use data-c="32" xlink:href="#prefigure-continuous4-MJX-11-NCM-N-32"/>
            </g>
          </g>
        </g>
      </svg>
    </g>
  </g>
  <g id="prefigure-continuous4-__label-10" transform="translate(144.0,305.0) translate(-15.1,-6.0)">
    <g id="prefigure-continuous4-__g-12">
      <svg xmlns:xlink="http://www.w3.org/1999/xlink" style="vertical-align: 0.000px" width="15.080px" height="12.056px" role="img" focusable="false" viewBox="0 -666 833 666" x="0.0" y="0.0">
        <defs>
          <path id="prefigure-continuous4-MJX-12-NCM-N-2D" d="M11 187L276 187L276 245L11 245Z"/>
          <path id="prefigure-continuous4-MJX-12-NCM-N-32" d="M237 666C186 666 143 648 106 612C69 576 50 534 50 483C50 449 75 424 106 424C136 424 161 450 161 480C161 513 137 536 105 536C102 536 100 536 98 535C117 584 161 627 224 627C306 627 352 556 352 470C352 403 318 331 250 255L62 43C49 28 50 29 50 0L421 0L450 180L417 180C409 129 402 100 396 91C391 86 361 84 306 84L139 84L236 179C304 243 390 312 419 365C439 400 449 435 449 470C449 588 357 666 237 666Z"/>
        </defs>
        <g stroke="currentColor" fill="currentColor" stroke-width="0" transform="scale(1,-1)">
          <g data-mml-node="math">
            <g data-mml-node="mtext" data-semantic-type="text" data-semantic-role="unknown" data-semantic-font="normal" data-semantic-annotation="clearspeak:unit;nemeth:number;depth:1" data-semantic-id="0" data-semantic-attributes="latex:\text{-2}" data-semantic-speech="minus 2">
              <use data-c="2D" xlink:href="#prefigure-continuous4-MJX-12-NCM-N-2D"/>
              <use data-c="32" xlink:href="#prefigure-continuous4-MJX-12-NCM-N-32" transform="translate(333,0)"/>
            </g>
          </g>
        </g>
      </svg>
    </g>
  </g>
  <g id="prefigure-continuous4-__label-11" transform="translate(144.0,267.5) translate(-29.2,-6.2)">
    <g id="prefigure-continuous4-__g-13">
      <svg xmlns:xlink="http://www.w3.org/1999/xlink" style="vertical-align: -0.400px" width="29.160px" height="12.456px" role="img" focusable="false" viewBox="0 -666 1611 688" x="0.0" y="0.0">
        <defs>
          <path id="prefigure-continuous4-MJX-13-NCM-N-2D" d="M11 187L276 187L276 245L11 245Z"/>
          <path id="prefigure-continuous4-MJX-13-NCM-N-31" d="M269 666C228 624 168 603 89 603L89 564C141 564 184 572 217 588L217 82C217 64 213 52 204 47C195 42 170 39 130 39L95 39L95 0C120 2 174 3 257 3C340 3 394 2 419 0L419 39L384 39C343 39 318 42 310 47C302 52 297 64 297 82L297 636C297 660 295 666 269 666Z"/>
          <path id="prefigure-continuous4-MJX-13-NCM-N-2E" d="M192 53C192 82 168 106 139 106C110 106 86 82 86 53C86 24 110 0 139 0C168 0 192 24 192 53Z"/>
          <path id="prefigure-continuous4-MJX-13-NCM-N-35" d="M118 315C123 315 129 319 134 326C164 371 205 393 257 393C292 393 319 373 337 332C348 305 354 264 354 209C354 146 346 102 331 76C306 35 272 14 229 14C162 14 109 62 91 114C94 113 96 114 100 114C130 114 155 137 155 167C155 198 130 219 100 219C65 219 50 200 50 163C50 63 131-22 231-22C292-22 344 0 386 44C428 88 449 141 449 202C449 260 432 310 398 353C361 400 315 423 259 423C212 423 171 408 138 378L138 556C165 548 191 544 218 544C264 544 304 555 338 578C369 597 390 616 402 634C408 642 411 648 411 651C411 661 406 666 396 666C341 645 294 634 256 634C211 634 168 643 127 662C122 664 118 665 114 665C105 665 100 656 100 637L100 345C100 324 100 315 118 315Z"/>
        </defs>
        <g stroke="currentColor" fill="currentColor" stroke-width="0" transform="scale(1,-1)">
          <g data-mml-node="math">
            <g data-mml-node="mtext" data-semantic-type="text" data-semantic-role="unknown" data-semantic-font="normal" data-semantic-annotation="clearspeak:unit;nemeth:number;depth:1" data-semantic-id="0" data-semantic-attributes="latex:\text{-1.5}" data-semantic-speech="minus 1.5">
              <use data-c="2D" xlink:href="#prefigure-continuous4-MJX-13-NCM-N-2D"/>
              <use data-c="31" xlink:href="#prefigure-continuous4-MJX-13-NCM-N-31" transform="translate(333,0)"/>
              <use data-c="2E" xlink:href="#prefigure-continuous4-MJX-13-NCM-N-2E" transform="translate(833,0)"/>
              <use data-c="35" xlink:href="#prefigure-continuous4-MJX-13-NCM-N-35" transform="translate(1111,0)"/>
            </g>
          </g>
        </g>
      </svg>
    </g>
  </g>
  <g id="prefigure-continuous4-__label-12" transform="translate(144.0,230.0) translate(-15.1,-6.0)">
    <g id="prefigure-continuous4-__g-14">
      <svg xmlns:xlink="http://www.w3.org/1999/xlink" style="vertical-align: 0.000px" width="15.080px" height="12.056px" role="img" focusable="false" viewBox="0 -666 833 666" x="0.0" y="0.0">
        <defs>
          <path id="prefigure-continuous4-MJX-14-NCM-N-2D" d="M11 187L276 187L276 245L11 245Z"/>
          <path id="prefigure-continuous4-MJX-14-NCM-N-31" d="M269 666C228 624 168 603 89 603L89 564C141 564 184 572 217 588L217 82C217 64 213 52 204 47C195 42 170 39 130 39L95 39L95 0C120 2 174 3 257 3C340 3 394 2 419 0L419 39L384 39C343 39 318 42 310 47C302 52 297 64 297 82L297 636C297 660 295 666 269 666Z"/>
        </defs>
        <g stroke="currentColor" fill="currentColor" stroke-width="0" transform="scale(1,-1)">
          <g data-mml-node="math">
            <g data-mml-node="mtext" data-semantic-type="text" data-semantic-role="unknown" data-semantic-font="normal" data-semantic-annotation="clearspeak:unit;nemeth:number;depth:1" data-semantic-id="0" data-semantic-attributes="latex:\text{-1}" data-semantic-speech="minus 1">
              <use data-c="2D" xlink:href="#prefigure-continuous4-MJX-14-NCM-N-2D"/>
              <use data-c="31" xlink:href="#prefigure-continuous4-MJX-14-NCM-N-31" transform="translate(333,0)"/>
            </g>
          </g>
        </g>
      </svg>
    </g>
  </g>
  <g id="prefigure-continuous4-__label-13" transform="translate(144.0,192.5) translate(-29.2,-6.2)">
    <g id="prefigure-continuous4-__g-15">
      <svg xmlns:xlink="http://www.w3.org/1999/xlink" style="vertical-align: -0.400px" width="29.160px" height="12.456px" role="img" focusable="false" viewBox="0 -666 1611 688" x="0.0" y="0.0">
        <defs>
          <path id="prefigure-continuous4-MJX-15-NCM-N-2D" d="M11 187L276 187L276 245L11 245Z"/>
          <path id="prefigure-continuous4-MJX-15-NCM-N-30" d="M249-22C390-22 460 92 460 320C460 473 428 575 365 625C330 652 291 666 250 666C109 666 39 551 39 320C39 136 88-22 249-22M361 524C368 489 371 425 371 332C371 240 367 172 360 128C347 48 310 8 249 8C226 8 203 17 182 34C155 57 139 104 132 176C129 201 128 253 128 332C128 419 131 480 136 513C145 568 163 603 191 618C213 630 232 636 249 636C314 636 350 583 361 524Z"/>
          <path id="prefigure-continuous4-MJX-15-NCM-N-2E" d="M192 53C192 82 168 106 139 106C110 106 86 82 86 53C86 24 110 0 139 0C168 0 192 24 192 53Z"/>
          <path id="prefigure-continuous4-MJX-15-NCM-N-35" d="M118 315C123 315 129 319 134 326C164 371 205 393 257 393C292 393 319 373 337 332C348 305 354 264 354 209C354 146 346 102 331 76C306 35 272 14 229 14C162 14 109 62 91 114C94 113 96 114 100 114C130 114 155 137 155 167C155 198 130 219 100 219C65 219 50 200 50 163C50 63 131-22 231-22C292-22 344 0 386 44C428 88 449 141 449 202C449 260 432 310 398 353C361 400 315 423 259 423C212 423 171 408 138 378L138 556C165 548 191 544 218 544C264 544 304 555 338 578C369 597 390 616 402 634C408 642 411 648 411 651C411 661 406 666 396 666C341 645 294 634 256 634C211 634 168 643 127 662C122 664 118 665 114 665C105 665 100 656 100 637L100 345C100 324 100 315 118 315Z"/>
        </defs>
        <g stroke="currentColor" fill="currentColor" stroke-width="0" transform="scale(1,-1)">
          <g data-mml-node="math">
            <g data-mml-node="mtext" data-semantic-type="text" data-semantic-role="unknown" data-semantic-font="normal" data-semantic-annotation="clearspeak:unit;nemeth:number;depth:1" data-semantic-id="0" data-semantic-attributes="latex:\text{-0.5}" data-semantic-speech="minus 0.5">
              <use data-c="2D" xlink:href="#prefigure-continuous4-MJX-15-NCM-N-2D"/>
              <use data-c="30" xlink:href="#prefigure-continuous4-MJX-15-NCM-N-30" transform="translate(333,0)"/>
              <use data-c="2E" xlink:href="#prefigure-continuous4-MJX-15-NCM-N-2E" transform="translate(833,0)"/>
              <use data-c="35" xlink:href="#prefigure-continuous4-MJX-15-NCM-N-35" transform="translate(1111,0)"/>
            </g>
          </g>
        </g>
      </svg>
    </g>
  </g>
  <g id="prefigure-continuous4-__label-14" transform="translate(144.0,117.5) translate(-23.1,-6.2)">
    <g id="prefigure-continuous4-__g-16">
      <svg xmlns:xlink="http://www.w3.org/1999/xlink" style="vertical-align: -0.400px" width="23.128px" height="12.456px" role="img" focusable="false" viewBox="0 -666 1278 688" x="0.0" y="0.0">
        <defs>
          <path id="prefigure-continuous4-MJX-16-NCM-N-30" d="M249-22C390-22 460 92 460 320C460 473 428 575 365 625C330 652 291 666 250 666C109 666 39 551 39 320C39 136 88-22 249-22M361 524C368 489 371 425 371 332C371 240 367 172 360 128C347 48 310 8 249 8C226 8 203 17 182 34C155 57 139 104 132 176C129 201 128 253 128 332C128 419 131 480 136 513C145 568 163 603 191 618C213 630 232 636 249 636C314 636 350 583 361 524Z"/>
          <path id="prefigure-continuous4-MJX-16-NCM-N-2E" d="M192 53C192 82 168 106 139 106C110 106 86 82 86 53C86 24 110 0 139 0C168 0 192 24 192 53Z"/>
          <path id="prefigure-continuous4-MJX-16-NCM-N-35" d="M118 315C123 315 129 319 134 326C164 371 205 393 257 393C292 393 319 373 337 332C348 305 354 264 354 209C354 146 346 102 331 76C306 35 272 14 229 14C162 14 109 62 91 114C94 113 96 114 100 114C130 114 155 137 155 167C155 198 130 219 100 219C65 219 50 200 50 163C50 63 131-22 231-22C292-22 344 0 386 44C428 88 449 141 449 202C449 260 432 310 398 353C361 400 315 423 259 423C212 423 171 408 138 378L138 556C165 548 191 544 218 544C264 544 304 555 338 578C369 597 390 616 402 634C408 642 411 648 411 651C411 661 406 666 396 666C341 645 294 634 256 634C211 634 168 643 127 662C122 664 118 665 114 665C105 665 100 656 100 637L100 345C100 324 100 315 118 315Z"/>
        </defs>
        <g stroke="currentColor" fill="currentColor" stroke-width="0" transform="scale(1,-1)">
          <g data-mml-node="math">
            <g data-mml-node="mtext" data-semantic-type="text" data-semantic-role="unknown" data-semantic-font="normal" data-semantic-annotation="clearspeak:unit;nemeth:number;depth:1" data-semantic-id="0" data-semantic-attributes="latex:\text{0.5}" data-semantic-speech="0.5">
              <use data-c="30" xlink:href="#prefigure-continuous4-MJX-16-NCM-N-30"/>
              <use data-c="2E" xlink:href="#prefigure-continuous4-MJX-16-NCM-N-2E" transform="translate(500,0)"/>
              <use data-c="35" xlink:href="#prefigure-continuous4-MJX-16-NCM-N-35" transform="translate(778,0)"/>
            </g>
          </g>
        </g>
      </svg>
    </g>
  </g>
  <g id="prefigure-continuous4-__label-15" transform="translate(144.0,80.0) translate(-9.0,-6.0)">
    <g id="prefigure-continuous4-__g-17">
      <svg xmlns:xlink="http://www.w3.org/1999/xlink" style="vertical-align: 0.000px" width="9.048px" height="12.056px" role="img" focusable="false" viewBox="0 -666 500 666" x="0.0" y="0.0">
        <defs>
          <path id="prefigure-continuous4-MJX-17-NCM-N-31" d="M269 666C228 624 168 603 89 603L89 564C141 564 184 572 217 588L217 82C217 64 213 52 204 47C195 42 170 39 130 39L95 39L95 0C120 2 174 3 257 3C340 3 394 2 419 0L419 39L384 39C343 39 318 42 310 47C302 52 297 64 297 82L297 636C297 660 295 666 269 666Z"/>
        </defs>
        <g stroke="currentColor" fill="currentColor" stroke-width="0" transform="scale(1,-1)">
          <g data-mml-node="math">
            <g data-mml-node="mtext" data-semantic-type="number" data-semantic-role="integer" data-semantic-font="normal" data-semantic-annotation="general:text;clearspeak:simple;nemeth:number;depth:1" data-semantic-id="0" data-semantic-attributes="latex:\text{1}" data-semantic-speech="1">
              <use data-c="31" xlink:href="#prefigure-continuous4-MJX-17-NCM-N-31"/>
            </g>
          </g>
        </g>
      </svg>
    </g>
  </g>
  <g id="prefigure-continuous4-__label-16" transform="translate(144.0,42.5) translate(-23.1,-6.2)">
    <g id="prefigure-continuous4-__g-18">
      <svg xmlns:xlink="http://www.w3.org/1999/xlink" style="vertical-align: -0.400px" width="23.128px" height="12.456px" role="img" focusable="false" viewBox="0 -666 1278 688" x="0.0" y="0.0">
        <defs>
          <path id="prefigure-continuous4-MJX-18-NCM-N-31" d="M269 666C228 624 168 603 89 603L89 564C141 564 184 572 217 588L217 82C217 64 213 52 204 47C195 42 170 39 130 39L95 39L95 0C120 2 174 3 257 3C340 3 394 2 419 0L419 39L384 39C343 39 318 42 310 47C302 52 297 64 297 82L297 636C297 660 295 666 269 666Z"/>
          <path id="prefigure-continuous4-MJX-18-NCM-N-2E" d="M192 53C192 82 168 106 139 106C110 106 86 82 86 53C86 24 110 0 139 0C168 0 192 24 192 53Z"/>
          <path id="prefigure-continuous4-MJX-18-NCM-N-35" d="M118 315C123 315 129 319 134 326C164 371 205 393 257 393C292 393 319 373 337 332C348 305 354 264 354 209C354 146 346 102 331 76C306 35 272 14 229 14C162 14 109 62 91 114C94 113 96 114 100 114C130 114 155 137 155 167C155 198 130 219 100 219C65 219 50 200 50 163C50 63 131-22 231-22C292-22 344 0 386 44C428 88 449 141 449 202C449 260 432 310 398 353C361 400 315 423 259 423C212 423 171 408 138 378L138 556C165 548 191 544 218 544C264 544 304 555 338 578C369 597 390 616 402 634C408 642 411 648 411 651C411 661 406 666 396 666C341 645 294 634 256 634C211 634 168 643 127 662C122 664 118 665 114 665C105 665 100 656 100 637L100 345C100 324 100 315 118 315Z"/>
        </defs>
        <g stroke="currentColor" fill="currentColor" stroke-width="0" transform="scale(1,-1)">
          <g data-mml-node="math">
            <g data-mml-node="mtext" data-semantic-type="text" data-semantic-role="unknown" data-semantic-font="normal" data-semantic-annotation="clearspeak:unit;nemeth:number;depth:1" data-semantic-id="0" data-semantic-attributes="latex:\text{1.5}" data-semantic-speech="1.5">
              <use data-c="31" xlink:href="#prefigure-continuous4-MJX-18-NCM-N-31"/>
              <use data-c="2E" xlink:href="#prefigure-continuous4-MJX-18-NCM-N-2E" transform="translate(500,0)"/>
              <use data-c="35" xlink:href="#prefigure-continuous4-MJX-18-NCM-N-35" transform="translate(778,0)"/>
            </g>
          </g>
        </g>
      </svg>
    </g>
  </g>
  <g id="prefigure-continuous4-__label-17" transform="translate(144.0,5.0) translate(-9.0,-6.0)">
    <g id="prefigure-continuous4-__g-19">
      <svg xmlns:xlink="http://www.w3.org/1999/xlink" style="vertical-align: 0.000px" width="9.048px" height="12.056px" role="img" focusable="false" viewBox="0 -666 500 666" x="0.0" y="0.0">
        <defs>
          <path id="prefigure-continuous4-MJX-19-NCM-N-32" d="M237 666C186 666 143 648 106 612C69 576 50 534 50 483C50 449 75 424 106 424C136 424 161 450 161 480C161 513 137 536 105 536C102 536 100 536 98 535C117 584 161 627 224 627C306 627 352 556 352 470C352 403 318 331 250 255L62 43C49 28 50 29 50 0L421 0L450 180L417 180C409 129 402 100 396 91C391 86 361 84 306 84L139 84L236 179C304 243 390 312 419 365C439 400 449 435 449 470C449 588 357 666 237 666Z"/>
        </defs>
        <g stroke="currentColor" fill="currentColor" stroke-width="0" transform="scale(1,-1)">
          <g data-mml-node="math">
            <g data-mml-node="mtext" data-semantic-type="number" data-semantic-role="integer" data-semantic-font="normal" data-semantic-annotation="general:text;clearspeak:simple;nemeth:number;depth:1" data-semantic-id="0" data-semantic-attributes="latex:\text{2}" data-semantic-speech="2">
              <use data-c="32" xlink:href="#prefigure-continuous4-MJX-19-NCM-N-32"/>
            </g>
          </g>
        </g>
      </svg>
    </g>
  </g>
  <line id="prefigure-continuous4-guide" x1="155.0" y1="305.0" x2="155.0" y2="5.0" stroke="blue" stroke-width="2" fill="none"/>
  <path id="prefigure-continuous4-graph_left" stroke="lightgreen" stroke-width="2" fill="none" d="M 5.0 605.0 L 6.5 588.7 L 8.0 572.7 L 9.5 557.1 L 11.0 541.8 L 12.5 526.9 L 14.0 512.4 L 15.5 498.1 L 17.0 484.2 L 18.5 470.6 L 20.0 457.4 L 21.5 444.5 L 23.0 431.9 L 24.5 419.6 L 26.0 407.6 L 27.5 396.0 L 29.0 384.6 L 30.5 373.6 L 32.0 362.8 L 33.5 352.4 L 35.0 342.2 L 36.5 332.3 L 38.0 322.7 L 39.5 313.4 L 41.0 304.4 L 42.5 295.6 L 44.0 287.1 L 45.5 278.9 L 47.0 270.9 L 48.5 263.2 L 50.0 255.8 L 51.5 248.6 L 53.0 241.7 L 54.5 235.0 L 56.0 228.5 L 57.5 222.3 L 59.0 216.3 L 60.5 210.5 L 62.0 205.0 L 63.5 199.7 L 65.0 194.6 L 66.5 189.7 L 68.0 185.1 L 69.5 180.6 L 71.0 176.4 L 72.5 172.3 L 74.0 168.5 L 75.5 164.8 L 77.0 161.4 L 78.5 158.1 L 80.0 155.0 L 81.5 152.1 L 83.0 149.4 L 84.5 146.8 L 86.0 144.4 L 87.5 142.2 L 89.0 140.1 L 90.5 138.2 L 92.0 136.5 L 93.5 134.9 L 95.0 133.4 L 96.5 132.1 L 98.0 130.9 L 99.5 129.9 L 101.0 129.0 L 102.5 128.2 L 104.0 127.6 L 105.5 127.1 L 107.0 126.7 L 108.5 126.4 L 110.0 126.2 L 111.5 126.1 L 113.0 126.2 L 114.5 126.3 L 116.0 126.5 L 117.5 126.9 L 119.0 127.3 L 120.5 127.8 L 122.0 128.4 L 123.5 129.1 L 125.0 129.8 L 126.5 130.6 L 128.0 131.5 L 129.5 132.4 L 131.0 133.5 L 132.5 134.5 L 134.0 135.6 L 135.5 136.8 L 137.0 138.0 L 138.5 139.3 L 140.0 140.6 L 141.5 141.9 L 143.0 143.3 L 144.5 144.7 L 146.0 146.1 L 147.5 147.6 L 149.0 149.0 L 150.5 150.5 L 152.0 152.0 L 153.5 153.5 L 155.0 155.0" clip-path="url(#prefigure-continuous4-__clipPath-1)"/>
  <path id="prefigure-continuous4-graph_right" stroke="lightgreen" stroke-width="2" fill="none" d="M 155.0 155.0 L 156.5 156.5 L 158.0 158.0 L 159.5 159.5 L 161.0 161.0 L 162.5 162.4 L 164.0 163.9 L 165.5 165.3 L 167.0 166.7 L 168.5 168.1 L 170.0 169.4 L 171.5 170.7 L 173.0 172.0 L 174.5 173.2 L 176.0 174.4 L 177.5 175.5 L 179.0 176.5 L 180.5 177.6 L 182.0 178.5 L 183.5 179.4 L 185.0 180.2 L 186.5 180.9 L 188.0 181.6 L 189.5 182.2 L 191.0 182.7 L 192.5 183.1 L 194.0 183.5 L 195.5 183.7 L 197.0 183.8 L 198.5 183.9 L 200.0 183.8 L 201.5 183.6 L 203.0 183.3 L 204.5 182.9 L 206.0 182.4 L 207.5 181.8 L 209.0 181.0 L 210.5 180.1 L 212.0 179.1 L 213.5 177.9 L 215.0 176.6 L 216.5 175.1 L 218.0 173.5 L 219.5 171.8 L 221.0 169.9 L 222.5 167.8 L 224.0 165.6 L 225.5 163.2 L 227.0 160.6 L 228.5 157.9 L 230.0 155.0 L 231.5 151.9 L 233.0 148.6 L 234.5 145.2 L 236.0 141.5 L 237.5 137.7 L 239.0 133.6 L 240.5 129.4 L 242.0 124.9 L 243.5 120.3 L 245.0 115.4 L 246.5 110.3 L 248.0 105.0 L 249.5 99.5 L 251.0 93.7 L 252.5 87.7 L 254.0 81.5 L 255.5 75.0 L 257.0 68.3 L 258.5 61.4 L 260.0 54.2 L 261.5 46.8 L 263.0 39.1 L 264.5 31.1 L 266.0 22.9 L 267.5 14.4 L 269.0 5.6 L 270.5 -3.4 L 272.0 -12.7 L 273.5 -22.3 L 275.0 -32.2 L 276.5 -42.4 L 278.0 -52.8 L 279.5 -63.6 L 281.0 -74.6 L 282.5 -86.0 L 284.0 -97.6 L 285.5 -109.6 L 287.0 -121.9 L 288.5 -134.5 L 290.0 -147.4 L 291.5 -160.6 L 293.0 -174.2 L 294.5 -188.1 L 296.0 -202.4 L 297.5 -216.9 L 299.0 -231.8 L 300.5 -247.1 L 302.0 -262.7 L 303.5 -278.7 L 305.0 -295.0" clip-path="url(#prefigure-continuous4-__clipPath-1)"/>
  <circle id="prefigure-continuous4-__circle-0" cx="155.0" cy="155.0" r="4" stroke="black" stroke-width="1" fill="white"/>
</svg>
