<svg xmlns="http://www.w3.org/2000/svg" id="prefigure-limitinfcheck6-figure" viewBox="0 0 310 310">
  <defs>
    <clipPath id="prefigure-limitinfcheck6-__clipPath-0">
      <rect x="5.0" y="5.0" width="300.0" height="300.0"/>
    </clipPath>
    <clipPath id="prefigure-limitinfcheck6-__clipPath-1">
      <rect x="5.0" y="5.0" width="300.0" height="300.0"/>
    </clipPath>
  </defs>
  <g id="prefigure-limitinfcheck6-axes" stroke="black" stroke-width="2">
    <line id="prefigure-limitinfcheck6-__line-0" x1="5.0" y1="155.0" x2="305.0" y2="155.0" stroke="black" stroke-width="2"/>
    <g id="prefigure-limitinfcheck6-__g-0">
      <line id="prefigure-limitinfcheck6-__line-1" x1="5.0" y1="158.0" x2="5.0" y2="152.0"/>
      <line id="prefigure-limitinfcheck6-__line-2" x1="23.8" y1="158.0" x2="23.8" y2="152.0"/>
      <line id="prefigure-limitinfcheck6-__line-3" x1="42.5" y1="158.0" x2="42.5" y2="152.0"/>
      <line id="prefigure-limitinfcheck6-__line-4" x1="61.2" y1="158.0" x2="61.2" y2="152.0"/>
      <line id="prefigure-limitinfcheck6-__line-5" x1="80.0" y1="158.0" x2="80.0" y2="152.0"/>
      <line id="prefigure-limitinfcheck6-__line-6" x1="98.8" y1="158.0" x2="98.8" y2="152.0"/>
      <line id="prefigure-limitinfcheck6-__line-7" x1="117.5" y1="158.0" x2="117.5" y2="152.0"/>
      <line id="prefigure-limitinfcheck6-__line-8" x1="136.2" y1="158.0" x2="136.2" y2="152.0"/>
      <line id="prefigure-limitinfcheck6-__line-9" x1="173.8" y1="158.0" x2="173.8" y2="152.0"/>
      <line id="prefigure-limitinfcheck6-__line-10" x1="192.5" y1="158.0" x2="192.5" y2="152.0"/>
      <line id="prefigure-limitinfcheck6-__line-11" x1="211.2" y1="158.0" x2="211.2" y2="152.0"/>
      <line id="prefigure-limitinfcheck6-__line-12" x1="230.0" y1="158.0" x2="230.0" y2="152.0"/>
      <line id="prefigure-limitinfcheck6-__line-13" x1="248.8" y1="158.0" x2="248.8" y2="152.0"/>
      <line id="prefigure-limitinfcheck6-__line-14" x1="267.5" y1="158.0" x2="267.5" y2="152.0"/>
      <line id="prefigure-limitinfcheck6-__line-15" x1="286.2" y1="158.0" x2="286.2" y2="152.0"/>
      <line id="prefigure-limitinfcheck6-__line-16" x1="305.0" y1="158.0" x2="305.0" y2="152.0"/>
      <line id="prefigure-limitinfcheck6-__line-17" x1="5.0" y1="158.0" x2="5.0" y2="152.0"/>
      <line id="prefigure-limitinfcheck6-__line-18" x1="42.5" y1="158.0" x2="42.5" y2="152.0"/>
      <line id="prefigure-limitinfcheck6-__line-19" x1="80.0" y1="158.0" x2="80.0" y2="152.0"/>
      <line id="prefigure-limitinfcheck6-__line-20" x1="117.5" y1="158.0" x2="117.5" y2="152.0"/>
      <line id="prefigure-limitinfcheck6-__line-21" x1="192.5" y1="158.0" x2="192.5" y2="152.0"/>
      <line id="prefigure-limitinfcheck6-__line-22" x1="230.0" y1="158.0" x2="230.0" y2="152.0"/>
      <line id="prefigure-limitinfcheck6-__line-23" x1="267.5" y1="158.0" x2="267.5" y2="152.0"/>
      <line id="prefigure-limitinfcheck6-__line-24" x1="305.0" y1="158.0" x2="305.0" y2="152.0"/>
    </g>
    <line id="prefigure-limitinfcheck6-__line-25" x1="155.0" y1="305.0" x2="155.0" y2="5.0" stroke="black" stroke-width="2"/>
    <g id="prefigure-limitinfcheck6-__g-1">
      <line id="prefigure-limitinfcheck6-__line-26" x1="152.0" y1="305.0" x2="158.0" y2="305.0"/>
      <line id="prefigure-limitinfcheck6-__line-27" x1="152.0" y1="275.0" x2="158.0" y2="275.0"/>
      <line id="prefigure-limitinfcheck6-__line-28" x1="152.0" y1="245.0" x2="158.0" y2="245.0"/>
      <line id="prefigure-limitinfcheck6-__line-29" x1="152.0" y1="215.0" x2="158.0" y2="215.0"/>
      <line id="prefigure-limitinfcheck6-__line-30" x1="152.0" y1="185.0" x2="158.0" y2="185.0"/>
      <line id="prefigure-limitinfcheck6-__line-31" x1="152.0" y1="125.0" x2="158.0" y2="125.0"/>
      <line id="prefigure-limitinfcheck6-__line-32" x1="152.0" y1="95.0" x2="158.0" y2="95.0"/>
      <line id="prefigure-limitinfcheck6-__line-33" x1="152.0" y1="65.0" x2="158.0" y2="65.0"/>
      <line id="prefigure-limitinfcheck6-__line-34" x1="152.0" y1="35.0" x2="158.0" y2="35.0"/>
      <line id="prefigure-limitinfcheck6-__line-35" x1="152.0" y1="5.0" x2="158.0" y2="5.0"/>
      <line id="prefigure-limitinfcheck6-__line-36" x1="152.0" y1="275.0" x2="158.0" y2="275.0"/>
      <line id="prefigure-limitinfcheck6-__line-37" x1="152.0" y1="215.0" x2="158.0" y2="215.0"/>
      <line id="prefigure-limitinfcheck6-__line-38" x1="152.0" y1="95.0" x2="158.0" y2="95.0"/>
      <line id="prefigure-limitinfcheck6-__line-39" x1="152.0" y1="35.0" x2="158.0" y2="35.0"/>
    </g>
  </g>
  <g id="prefigure-limitinfcheck6-__label-0" transform="translate(301.0,151.0) translate(-8.4,-8.2)">
    <g id="prefigure-limitinfcheck6-__g-2">
      <svg xmlns:xlink="http://www.w3.org/1999/xlink" style="vertical-align: -0.200px" width="8.416px" height="8.200px" role="img" focusable="false" viewBox="0 -442 465 453" x="0.0" y="0.0">
        <defs>
          <path id="prefigure-limitinfcheck6-MJX-2-TEX-I-1D467" d="M347 338Q337 338 294 349T231 360Q211 360 197 356T174 346T162 335T155 324L153 320Q150 317 138 317Q117 317 117 325Q117 330 120 339Q133 378 163 406T229 440Q241 442 246 442Q271 442 291 425T329 392T367 375Q389 375 411 408T434 441Q435 442 449 442H462Q468 436 468 434Q468 430 463 420T449 399T432 377T418 358L411 349Q368 298 275 214T160 106L148 94L163 93Q185 93 227 82T290 71Q328 71 360 90T402 140Q406 149 409 151T424 153Q443 153 443 143Q443 138 442 134Q425 72 376 31T278 -11Q252 -11 232 6T193 40T155 57Q111 57 76 -3Q70 -11 59 -11H54H41Q35 -5 35 -2Q35 13 93 84Q132 129 225 214T340 322Q352 338 347 338Z"/>
        </defs>
        <g stroke="currentColor" fill="currentColor" stroke-width="0" transform="scale(1,-1)">
          <g data-mml-node="math">
            <g data-mml-node="mi" data-semantic-type="identifier" data-semantic-role="latinletter" data-semantic-font="italic" data-semantic-id="0" data-semantic-speech="">
              <use data-c="1D467" xlink:href="#prefigure-limitinfcheck6-MJX-2-TEX-I-1D467"/>
            </g>
          </g>
        </g>
      </svg>
    </g>
  </g>
  <g id="prefigure-limitinfcheck6-__label-1" transform="translate(159.0,9.0) translate(0.0,-0.0)">
    <g id="prefigure-limitinfcheck6-__g-3">
      <svg xmlns:xlink="http://www.w3.org/1999/xlink" style="vertical-align: -4.528px" width="32.920px" height="18.096px" role="img" focusable="false" viewBox="0 -750 1819 1000" x="0.0" y="0.0">
        <defs>
          <path id="prefigure-limitinfcheck6-MJX-3-TEX-I-210E" d="M137 683Q138 683 209 688T282 694Q294 694 294 685Q294 674 258 534Q220 386 220 383Q220 381 227 388Q288 442 357 442Q411 442 444 415T478 336Q478 285 440 178T402 50Q403 36 407 31T422 26Q450 26 474 56T513 138Q516 149 519 151T535 153Q555 153 555 145Q555 144 551 130Q535 71 500 33Q466 -10 419 -10H414Q367 -10 346 17T325 74Q325 90 361 192T398 345Q398 404 354 404H349Q266 404 205 306L198 293L164 158Q132 28 127 16Q114 -11 83 -11Q69 -11 59 -2T48 16Q48 30 121 320L195 616Q195 629 188 632T149 637H128Q122 643 122 645T124 664Q129 683 137 683Z"/>
          <path id="prefigure-limitinfcheck6-MJX-3-TEX-N-2061" d=""/>
          <path id="prefigure-limitinfcheck6-MJX-3-TEX-N-28" d="M94 250Q94 319 104 381T127 488T164 576T202 643T244 695T277 729T302 750H315H319Q333 750 333 741Q333 738 316 720T275 667T226 581T184 443T167 250T184 58T225 -81T274 -167T316 -220T333 -241Q333 -250 318 -250H315H302L274 -226Q180 -141 137 -14T94 250Z"/>
          <path id="prefigure-limitinfcheck6-MJX-3-TEX-I-1D467" d="M347 338Q337 338 294 349T231 360Q211 360 197 356T174 346T162 335T155 324L153 320Q150 317 138 317Q117 317 117 325Q117 330 120 339Q133 378 163 406T229 440Q241 442 246 442Q271 442 291 425T329 392T367 375Q389 375 411 408T434 441Q435 442 449 442H462Q468 436 468 434Q468 430 463 420T449 399T432 377T418 358L411 349Q368 298 275 214T160 106L148 94L163 93Q185 93 227 82T290 71Q328 71 360 90T402 140Q406 149 409 151T424 153Q443 153 443 143Q443 138 442 134Q425 72 376 31T278 -11Q252 -11 232 6T193 40T155 57Q111 57 76 -3Q70 -11 59 -11H54H41Q35 -5 35 -2Q35 13 93 84Q132 129 225 214T340 322Q352 338 347 338Z"/>
          <path id="prefigure-limitinfcheck6-MJX-3-TEX-N-29" d="M60 749L64 750Q69 750 74 750H86L114 726Q208 641 251 514T294 250Q294 182 284 119T261 12T224 -76T186 -143T145 -194T113 -227T90 -246Q87 -249 86 -250H74Q66 -250 63 -250T58 -247T55 -238Q56 -237 66 -225Q221 -64 221 250T66 725Q56 737 55 738Q55 746 60 749Z"/>
        </defs>
        <g stroke="currentColor" fill="currentColor" stroke-width="0" transform="scale(1,-1)">
          <g data-mml-node="math" data-semantic-type="appl" data-semantic-role="simple function" data-semantic-id="6" data-semantic-children="0,4" data-semantic-content="5,0" data-semantic-speech="">
            <g data-mml-node="mi" data-semantic-type="identifier" data-semantic-role="simple function" data-semantic-font="italic" data-semantic-id="0" data-semantic-parent="6" data-semantic-operator="appl" data-semantic-speech="">
              <use data-c="210E" xlink:href="#prefigure-limitinfcheck6-MJX-3-TEX-I-210E"/>
            </g>
            <g data-mml-node="mo" data-semantic-type="punctuation" data-semantic-role="application" data-semantic-id="5" data-semantic-parent="6" data-semantic-added="true" data-semantic-operator="appl" data-semantic-speech="" transform="translate(576,0)">
              <use data-c="2061" xlink:href="#prefigure-limitinfcheck6-MJX-3-TEX-N-2061"/>
            </g>
            <g data-mml-node="mrow" data-semantic-type="fenced" data-semantic-role="leftright" data-semantic-id="4" data-semantic-children="2" data-semantic-content="1,3" data-semantic-parent="6" data-semantic-speech="" transform="translate(576,0)">
              <g data-mml-node="mo" data-semantic-type="fence" data-semantic-role="open" data-semantic-id="1" data-semantic-parent="4" data-semantic-operator="fenced" data-semantic-speech="">
                <use data-c="28" xlink:href="#prefigure-limitinfcheck6-MJX-3-TEX-N-28"/>
              </g>
              <g data-mml-node="mi" data-semantic-type="identifier" data-semantic-role="latinletter" data-semantic-font="italic" data-semantic-id="2" data-semantic-parent="4" data-semantic-speech="" transform="translate(389,0)">
                <use data-c="1D467" xlink:href="#prefigure-limitinfcheck6-MJX-3-TEX-I-1D467"/>
              </g>
              <g data-mml-node="mo" data-semantic-type="fence" data-semantic-role="close" data-semantic-id="3" data-semantic-parent="4" data-semantic-operator="fenced" data-semantic-speech="" transform="translate(854,0)">
                <use data-c="29" xlink:href="#prefigure-limitinfcheck6-MJX-3-TEX-N-29"/>
              </g>
            </g>
          </g>
        </g>
      </svg>
    </g>
  </g>
  <g id="prefigure-limitinfcheck6-__label-2" transform="translate(5.0,166.0) translate(-16.7,-0.0)">
    <g id="prefigure-limitinfcheck6-__g-4">
      <svg xmlns:xlink="http://www.w3.org/1999/xlink" style="vertical-align: -1.488px" width="33.448px" height="13.536px" role="img" focusable="false" viewBox="0 -666 1848 748" x="0.0" y="0.0">
        <defs>
          <path id="prefigure-limitinfcheck6-MJX-4-TEX-N-2212" d="M84 237T84 250T98 270H679Q694 262 694 250T679 230H98Q84 237 84 250Z"/>
          <path id="prefigure-limitinfcheck6-MJX-4-TEX-N-38" d="M70 417T70 494T124 618T248 666Q319 666 374 624T429 515Q429 485 418 459T392 417T361 389T335 371T324 363L338 354Q352 344 366 334T382 323Q457 264 457 174Q457 95 399 37T249 -22Q159 -22 101 29T43 155Q43 263 172 335L154 348Q133 361 127 368Q70 417 70 494ZM286 386L292 390Q298 394 301 396T311 403T323 413T334 425T345 438T355 454T364 471T369 491T371 513Q371 556 342 586T275 624Q268 625 242 625Q201 625 165 599T128 534Q128 511 141 492T167 463T217 431Q224 426 228 424L286 386ZM250 21Q308 21 350 55T392 137Q392 154 387 169T375 194T353 216T330 234T301 253T274 270Q260 279 244 289T218 306L210 311Q204 311 181 294T133 239T107 157Q107 98 150 60T250 21Z"/>
          <path id="prefigure-limitinfcheck6-MJX-4-TEX-N-2062" d=""/>
          <path id="prefigure-limitinfcheck6-MJX-4-TEX-I-1D70B" d="M132 -11Q98 -11 98 22V33L111 61Q186 219 220 334L228 358H196Q158 358 142 355T103 336Q92 329 81 318T62 297T53 285Q51 284 38 284Q19 284 19 294Q19 300 38 329T93 391T164 429Q171 431 389 431Q549 431 553 430Q573 423 573 402Q573 371 541 360Q535 358 472 358H408L405 341Q393 269 393 222Q393 170 402 129T421 65T431 37Q431 20 417 5T381 -10Q370 -10 363 -7T347 17T331 77Q330 86 330 121Q330 170 339 226T357 318T367 358H269L268 354Q268 351 249 275T206 114T175 17Q164 -11 132 -11Z"/>
        </defs>
        <g stroke="currentColor" fill="currentColor" stroke-width="0" transform="scale(1,-1)">
          <g data-mml-node="math" data-semantic-type="prefixop" data-semantic-role="negative" data-semantic-id="5" data-semantic-children="4" data-semantic-content="0" data-semantic-speech="">
            <g data-mml-node="mo" data-semantic-type="operator" data-semantic-role="subtraction" data-semantic-id="0" data-semantic-parent="5" data-semantic-operator="prefixop,−" data-semantic-speech="">
              <use data-c="2212" xlink:href="#prefigure-limitinfcheck6-MJX-4-TEX-N-2212"/>
            </g>
            <g data-mml-node="mrow" data-semantic-type="infixop" data-semantic-role="implicit" data-semantic-id="4" data-semantic-children="1,2" data-semantic-content="3" data-semantic-parent="5" data-semantic-speech="" transform="translate(778,0)">
              <g data-mml-node="mn" data-semantic-type="number" data-semantic-role="integer" data-semantic-font="normal" data-semantic-id="1" data-semantic-parent="4" data-semantic-speech="">
                <use data-c="38" xlink:href="#prefigure-limitinfcheck6-MJX-4-TEX-N-38"/>
              </g>
              <g data-mml-node="mo" data-semantic-type="operator" data-semantic-role="multiplication" data-semantic-id="3" data-semantic-parent="4" data-semantic-added="true" data-semantic-operator="infixop,⁢" data-semantic-speech="" transform="translate(500,0)">
                <use data-c="2062" xlink:href="#prefigure-limitinfcheck6-MJX-4-TEX-N-2062"/>
              </g>
              <g data-mml-node="mi" data-semantic-type="identifier" data-semantic-role="greekletter" data-semantic-font="italic" data-semantic-id="2" data-semantic-parent="4" data-semantic-speech="" transform="translate(500,0)">
                <use data-c="1D70B" xlink:href="#prefigure-limitinfcheck6-MJX-4-TEX-I-1D70B"/>
              </g>
            </g>
          </g>
        </g>
      </svg>
    </g>
  </g>
  <g id="prefigure-limitinfcheck6-__label-3" transform="translate(42.5,166.0) translate(-16.7,-0.0)">
    <g id="prefigure-limitinfcheck6-__g-5">
      <svg xmlns:xlink="http://www.w3.org/1999/xlink" style="vertical-align: -1.488px" width="33.448px" height="13.536px" role="img" focusable="false" viewBox="0 -666 1848 748" x="0.0" y="0.0">
        <defs>
          <path id="prefigure-limitinfcheck6-MJX-5-TEX-N-2212" d="M84 237T84 250T98 270H679Q694 262 694 250T679 230H98Q84 237 84 250Z"/>
          <path id="prefigure-limitinfcheck6-MJX-5-TEX-N-36" d="M42 313Q42 476 123 571T303 666Q372 666 402 630T432 550Q432 525 418 510T379 495Q356 495 341 509T326 548Q326 592 373 601Q351 623 311 626Q240 626 194 566Q147 500 147 364L148 360Q153 366 156 373Q197 433 263 433H267Q313 433 348 414Q372 400 396 374T435 317Q456 268 456 210V192Q456 169 451 149Q440 90 387 34T253 -22Q225 -22 199 -14T143 16T92 75T56 172T42 313ZM257 397Q227 397 205 380T171 335T154 278T148 216Q148 133 160 97T198 39Q222 21 251 21Q302 21 329 59Q342 77 347 104T352 209Q352 289 347 316T329 361Q302 397 257 397Z"/>
          <path id="prefigure-limitinfcheck6-MJX-5-TEX-N-2062" d=""/>
          <path id="prefigure-limitinfcheck6-MJX-5-TEX-I-1D70B" d="M132 -11Q98 -11 98 22V33L111 61Q186 219 220 334L228 358H196Q158 358 142 355T103 336Q92 329 81 318T62 297T53 285Q51 284 38 284Q19 284 19 294Q19 300 38 329T93 391T164 429Q171 431 389 431Q549 431 553 430Q573 423 573 402Q573 371 541 360Q535 358 472 358H408L405 341Q393 269 393 222Q393 170 402 129T421 65T431 37Q431 20 417 5T381 -10Q370 -10 363 -7T347 17T331 77Q330 86 330 121Q330 170 339 226T357 318T367 358H269L268 354Q268 351 249 275T206 114T175 17Q164 -11 132 -11Z"/>
        </defs>
        <g stroke="currentColor" fill="currentColor" stroke-width="0" transform="scale(1,-1)">
          <g data-mml-node="math" data-semantic-type="prefixop" data-semantic-role="negative" data-semantic-id="5" data-semantic-children="4" data-semantic-content="0" data-semantic-speech="">
            <g data-mml-node="mo" data-semantic-type="operator" data-semantic-role="subtraction" data-semantic-id="0" data-semantic-parent="5" data-semantic-operator="prefixop,−" data-semantic-speech="">
              <use data-c="2212" xlink:href="#prefigure-limitinfcheck6-MJX-5-TEX-N-2212"/>
            </g>
            <g data-mml-node="mrow" data-semantic-type="infixop" data-semantic-role="implicit" data-semantic-id="4" data-semantic-children="1,2" data-semantic-content="3" data-semantic-parent="5" data-semantic-speech="" transform="translate(778,0)">
              <g data-mml-node="mn" data-semantic-type="number" data-semantic-role="integer" data-semantic-font="normal" data-semantic-id="1" data-semantic-parent="4" data-semantic-speech="">
                <use data-c="36" xlink:href="#prefigure-limitinfcheck6-MJX-5-TEX-N-36"/>
              </g>
              <g data-mml-node="mo" data-semantic-type="operator" data-semantic-role="multiplication" data-semantic-id="3" data-semantic-parent="4" data-semantic-added="true" data-semantic-operator="infixop,⁢" data-semantic-speech="" transform="translate(500,0)">
                <use data-c="2062" xlink:href="#prefigure-limitinfcheck6-MJX-5-TEX-N-2062"/>
              </g>
              <g data-mml-node="mi" data-semantic-type="identifier" data-semantic-role="greekletter" data-semantic-font="italic" data-semantic-id="2" data-semantic-parent="4" data-semantic-speech="" transform="translate(500,0)">
                <use data-c="1D70B" xlink:href="#prefigure-limitinfcheck6-MJX-5-TEX-I-1D70B"/>
              </g>
            </g>
          </g>
        </g>
      </svg>
    </g>
  </g>
  <g id="prefigure-limitinfcheck6-__label-4" transform="translate(80.0,166.0) translate(-16.7,-0.0)">
    <g id="prefigure-limitinfcheck6-__g-6">
      <svg xmlns:xlink="http://www.w3.org/1999/xlink" style="vertical-align: -1.488px" width="33.448px" height="13.736px" role="img" focusable="false" viewBox="0 -677 1848 759" x="0.0" y="0.0">
        <defs>
          <path id="prefigure-limitinfcheck6-MJX-6-TEX-N-2212" d="M84 237T84 250T98 270H679Q694 262 694 250T679 230H98Q84 237 84 250Z"/>
          <path id="prefigure-limitinfcheck6-MJX-6-TEX-N-34" d="M462 0Q444 3 333 3Q217 3 199 0H190V46H221Q241 46 248 46T265 48T279 53T286 61Q287 63 287 115V165H28V211L179 442Q332 674 334 675Q336 677 355 677H373L379 671V211H471V165H379V114Q379 73 379 66T385 54Q393 47 442 46H471V0H462ZM293 211V545L74 212L183 211H293Z"/>
          <path id="prefigure-limitinfcheck6-MJX-6-TEX-N-2062" d=""/>
          <path id="prefigure-limitinfcheck6-MJX-6-TEX-I-1D70B" d="M132 -11Q98 -11 98 22V33L111 61Q186 219 220 334L228 358H196Q158 358 142 355T103 336Q92 329 81 318T62 297T53 285Q51 284 38 284Q19 284 19 294Q19 300 38 329T93 391T164 429Q171 431 389 431Q549 431 553 430Q573 423 573 402Q573 371 541 360Q535 358 472 358H408L405 341Q393 269 393 222Q393 170 402 129T421 65T431 37Q431 20 417 5T381 -10Q370 -10 363 -7T347 17T331 77Q330 86 330 121Q330 170 339 226T357 318T367 358H269L268 354Q268 351 249 275T206 114T175 17Q164 -11 132 -11Z"/>
        </defs>
        <g stroke="currentColor" fill="currentColor" stroke-width="0" transform="scale(1,-1)">
          <g data-mml-node="math" data-semantic-type="prefixop" data-semantic-role="negative" data-semantic-id="5" data-semantic-children="4" data-semantic-content="0" data-semantic-speech="">
            <g data-mml-node="mo" data-semantic-type="operator" data-semantic-role="subtraction" data-semantic-id="0" data-semantic-parent="5" data-semantic-operator="prefixop,−" data-semantic-speech="">
              <use data-c="2212" xlink:href="#prefigure-limitinfcheck6-MJX-6-TEX-N-2212"/>
            </g>
            <g data-mml-node="mrow" data-semantic-type="infixop" data-semantic-role="implicit" data-semantic-id="4" data-semantic-children="1,2" data-semantic-content="3" data-semantic-parent="5" data-semantic-speech="" transform="translate(778,0)">
              <g data-mml-node="mn" data-semantic-type="number" data-semantic-role="integer" data-semantic-font="normal" data-semantic-id="1" data-semantic-parent="4" data-semantic-speech="">
                <use data-c="34" xlink:href="#prefigure-limitinfcheck6-MJX-6-TEX-N-34"/>
              </g>
              <g data-mml-node="mo" data-semantic-type="operator" data-semantic-role="multiplication" data-semantic-id="3" data-semantic-parent="4" data-semantic-added="true" data-semantic-operator="infixop,⁢" data-semantic-speech="" transform="translate(500,0)">
                <use data-c="2062" xlink:href="#prefigure-limitinfcheck6-MJX-6-TEX-N-2062"/>
              </g>
              <g data-mml-node="mi" data-semantic-type="identifier" data-semantic-role="greekletter" data-semantic-font="italic" data-semantic-id="2" data-semantic-parent="4" data-semantic-speech="" transform="translate(500,0)">
                <use data-c="1D70B" xlink:href="#prefigure-limitinfcheck6-MJX-6-TEX-I-1D70B"/>
              </g>
            </g>
          </g>
        </g>
      </svg>
    </g>
  </g>
  <g id="prefigure-limitinfcheck6-__label-5" transform="translate(117.5,166.0) translate(-16.7,-0.0)">
    <g id="prefigure-limitinfcheck6-__g-7">
      <svg xmlns:xlink="http://www.w3.org/1999/xlink" style="vertical-align: -1.488px" width="33.448px" height="13.536px" role="img" focusable="false" viewBox="0 -666 1848 748" x="0.0" y="0.0">
        <defs>
          <path id="prefigure-limitinfcheck6-MJX-7-TEX-N-2212" d="M84 237T84 250T98 270H679Q694 262 694 250T679 230H98Q84 237 84 250Z"/>
          <path id="prefigure-limitinfcheck6-MJX-7-TEX-N-32" d="M109 429Q82 429 66 447T50 491Q50 562 103 614T235 666Q326 666 387 610T449 465Q449 422 429 383T381 315T301 241Q265 210 201 149L142 93L218 92Q375 92 385 97Q392 99 409 186V189H449V186Q448 183 436 95T421 3V0H50V19V31Q50 38 56 46T86 81Q115 113 136 137Q145 147 170 174T204 211T233 244T261 278T284 308T305 340T320 369T333 401T340 431T343 464Q343 527 309 573T212 619Q179 619 154 602T119 569T109 550Q109 549 114 549Q132 549 151 535T170 489Q170 464 154 447T109 429Z"/>
          <path id="prefigure-limitinfcheck6-MJX-7-TEX-N-2062" d=""/>
          <path id="prefigure-limitinfcheck6-MJX-7-TEX-I-1D70B" d="M132 -11Q98 -11 98 22V33L111 61Q186 219 220 334L228 358H196Q158 358 142 355T103 336Q92 329 81 318T62 297T53 285Q51 284 38 284Q19 284 19 294Q19 300 38 329T93 391T164 429Q171 431 389 431Q549 431 553 430Q573 423 573 402Q573 371 541 360Q535 358 472 358H408L405 341Q393 269 393 222Q393 170 402 129T421 65T431 37Q431 20 417 5T381 -10Q370 -10 363 -7T347 17T331 77Q330 86 330 121Q330 170 339 226T357 318T367 358H269L268 354Q268 351 249 275T206 114T175 17Q164 -11 132 -11Z"/>
        </defs>
        <g stroke="currentColor" fill="currentColor" stroke-width="0" transform="scale(1,-1)">
          <g data-mml-node="math" data-semantic-type="prefixop" data-semantic-role="negative" data-semantic-id="5" data-semantic-children="4" data-semantic-content="0" data-semantic-speech="">
            <g data-mml-node="mo" data-semantic-type="operator" data-semantic-role="subtraction" data-semantic-id="0" data-semantic-parent="5" data-semantic-operator="prefixop,−" data-semantic-speech="">
              <use data-c="2212" xlink:href="#prefigure-limitinfcheck6-MJX-7-TEX-N-2212"/>
            </g>
            <g data-mml-node="mrow" data-semantic-type="infixop" data-semantic-role="implicit" data-semantic-id="4" data-semantic-children="1,2" data-semantic-content="3" data-semantic-parent="5" data-semantic-speech="" transform="translate(778,0)">
              <g data-mml-node="mn" data-semantic-type="number" data-semantic-role="integer" data-semantic-font="normal" data-semantic-id="1" data-semantic-parent="4" data-semantic-speech="">
                <use data-c="32" xlink:href="#prefigure-limitinfcheck6-MJX-7-TEX-N-32"/>
              </g>
              <g data-mml-node="mo" data-semantic-type="operator" data-semantic-role="multiplication" data-semantic-id="3" data-semantic-parent="4" data-semantic-added="true" data-semantic-operator="infixop,⁢" data-semantic-speech="" transform="translate(500,0)">
                <use data-c="2062" xlink:href="#prefigure-limitinfcheck6-MJX-7-TEX-N-2062"/>
              </g>
              <g data-mml-node="mi" data-semantic-type="identifier" data-semantic-role="greekletter" data-semantic-font="italic" data-semantic-id="2" data-semantic-parent="4" data-semantic-speech="" transform="translate(500,0)">
                <use data-c="1D70B" xlink:href="#prefigure-limitinfcheck6-MJX-7-TEX-I-1D70B"/>
              </g>
            </g>
          </g>
        </g>
      </svg>
    </g>
  </g>
  <g id="prefigure-limitinfcheck6-__label-6" transform="translate(192.5,166.0) translate(-9.7,-0.0)">
    <g id="prefigure-limitinfcheck6-__g-8">
      <svg xmlns:xlink="http://www.w3.org/1999/xlink" style="vertical-align: -0.200px" width="19.368px" height="12.256px" role="img" focusable="false" viewBox="0 -666 1070 677" x="0.0" y="0.0">
        <defs>
          <path id="prefigure-limitinfcheck6-MJX-8-TEX-N-32" d="M109 429Q82 429 66 447T50 491Q50 562 103 614T235 666Q326 666 387 610T449 465Q449 422 429 383T381 315T301 241Q265 210 201 149L142 93L218 92Q375 92 385 97Q392 99 409 186V189H449V186Q448 183 436 95T421 3V0H50V19V31Q50 38 56 46T86 81Q115 113 136 137Q145 147 170 174T204 211T233 244T261 278T284 308T305 340T320 369T333 401T340 431T343 464Q343 527 309 573T212 619Q179 619 154 602T119 569T109 550Q109 549 114 549Q132 549 151 535T170 489Q170 464 154 447T109 429Z"/>
          <path id="prefigure-limitinfcheck6-MJX-8-TEX-N-2062" d=""/>
          <path id="prefigure-limitinfcheck6-MJX-8-TEX-I-1D70B" d="M132 -11Q98 -11 98 22V33L111 61Q186 219 220 334L228 358H196Q158 358 142 355T103 336Q92 329 81 318T62 297T53 285Q51 284 38 284Q19 284 19 294Q19 300 38 329T93 391T164 429Q171 431 389 431Q549 431 553 430Q573 423 573 402Q573 371 541 360Q535 358 472 358H408L405 341Q393 269 393 222Q393 170 402 129T421 65T431 37Q431 20 417 5T381 -10Q370 -10 363 -7T347 17T331 77Q330 86 330 121Q330 170 339 226T357 318T367 358H269L268 354Q268 351 249 275T206 114T175 17Q164 -11 132 -11Z"/>
        </defs>
        <g stroke="currentColor" fill="currentColor" stroke-width="0" transform="scale(1,-1)">
          <g data-mml-node="math" data-semantic-type="infixop" data-semantic-role="implicit" data-semantic-id="3" data-semantic-children="0,1" data-semantic-content="2" data-semantic-speech="">
            <g data-mml-node="mn" data-semantic-type="number" data-semantic-role="integer" data-semantic-font="normal" data-semantic-id="0" data-semantic-parent="3" data-semantic-speech="">
              <use data-c="32" xlink:href="#prefigure-limitinfcheck6-MJX-8-TEX-N-32"/>
            </g>
            <g data-mml-node="mo" data-semantic-type="operator" data-semantic-role="multiplication" data-semantic-id="2" data-semantic-parent="3" data-semantic-added="true" data-semantic-operator="infixop,⁢" data-semantic-speech="" transform="translate(500,0)">
              <use data-c="2062" xlink:href="#prefigure-limitinfcheck6-MJX-8-TEX-N-2062"/>
            </g>
            <g data-mml-node="mi" data-semantic-type="identifier" data-semantic-role="greekletter" data-semantic-font="italic" data-semantic-id="1" data-semantic-parent="3" data-semantic-speech="" transform="translate(500,0)">
              <use data-c="1D70B" xlink:href="#prefigure-limitinfcheck6-MJX-8-TEX-I-1D70B"/>
            </g>
          </g>
        </g>
      </svg>
    </g>
  </g>
  <g id="prefigure-limitinfcheck6-__label-7" transform="translate(230.0,166.0) translate(-9.7,-0.0)">
    <g id="prefigure-limitinfcheck6-__g-9">
      <svg xmlns:xlink="http://www.w3.org/1999/xlink" style="vertical-align: -0.200px" width="19.368px" height="12.456px" role="img" focusable="false" viewBox="0 -677 1070 688" x="0.0" y="0.0">
        <defs>
          <path id="prefigure-limitinfcheck6-MJX-9-TEX-N-34" d="M462 0Q444 3 333 3Q217 3 199 0H190V46H221Q241 46 248 46T265 48T279 53T286 61Q287 63 287 115V165H28V211L179 442Q332 674 334 675Q336 677 355 677H373L379 671V211H471V165H379V114Q379 73 379 66T385 54Q393 47 442 46H471V0H462ZM293 211V545L74 212L183 211H293Z"/>
          <path id="prefigure-limitinfcheck6-MJX-9-TEX-N-2062" d=""/>
          <path id="prefigure-limitinfcheck6-MJX-9-TEX-I-1D70B" d="M132 -11Q98 -11 98 22V33L111 61Q186 219 220 334L228 358H196Q158 358 142 355T103 336Q92 329 81 318T62 297T53 285Q51 284 38 284Q19 284 19 294Q19 300 38 329T93 391T164 429Q171 431 389 431Q549 431 553 430Q573 423 573 402Q573 371 541 360Q535 358 472 358H408L405 341Q393 269 393 222Q393 170 402 129T421 65T431 37Q431 20 417 5T381 -10Q370 -10 363 -7T347 17T331 77Q330 86 330 121Q330 170 339 226T357 318T367 358H269L268 354Q268 351 249 275T206 114T175 17Q164 -11 132 -11Z"/>
        </defs>
        <g stroke="currentColor" fill="currentColor" stroke-width="0" transform="scale(1,-1)">
          <g data-mml-node="math" data-semantic-type="infixop" data-semantic-role="implicit" data-semantic-id="3" data-semantic-children="0,1" data-semantic-content="2" data-semantic-speech="">
            <g data-mml-node="mn" data-semantic-type="number" data-semantic-role="integer" data-semantic-font="normal" data-semantic-id="0" data-semantic-parent="3" data-semantic-speech="">
              <use data-c="34" xlink:href="#prefigure-limitinfcheck6-MJX-9-TEX-N-34"/>
            </g>
            <g data-mml-node="mo" data-semantic-type="operator" data-semantic-role="multiplication" data-semantic-id="2" data-semantic-parent="3" data-semantic-added="true" data-semantic-operator="infixop,⁢" data-semantic-speech="" transform="translate(500,0)">
              <use data-c="2062" xlink:href="#prefigure-limitinfcheck6-MJX-9-TEX-N-2062"/>
            </g>
            <g data-mml-node="mi" data-semantic-type="identifier" data-semantic-role="greekletter" data-semantic-font="italic" data-semantic-id="1" data-semantic-parent="3" data-semantic-speech="" transform="translate(500,0)">
              <use data-c="1D70B" xlink:href="#prefigure-limitinfcheck6-MJX-9-TEX-I-1D70B"/>
            </g>
          </g>
        </g>
      </svg>
    </g>
  </g>
  <g id="prefigure-limitinfcheck6-__label-8" transform="translate(267.5,166.0) translate(-9.7,-0.0)">
    <g id="prefigure-limitinfcheck6-__g-10">
      <svg xmlns:xlink="http://www.w3.org/1999/xlink" style="vertical-align: -0.400px" width="19.368px" height="12.456px" role="img" focusable="false" viewBox="0 -666 1070 688" x="0.0" y="0.0">
        <defs>
          <path id="prefigure-limitinfcheck6-MJX-10-TEX-N-36" d="M42 313Q42 476 123 571T303 666Q372 666 402 630T432 550Q432 525 418 510T379 495Q356 495 341 509T326 548Q326 592 373 601Q351 623 311 626Q240 626 194 566Q147 500 147 364L148 360Q153 366 156 373Q197 433 263 433H267Q313 433 348 414Q372 400 396 374T435 317Q456 268 456 210V192Q456 169 451 149Q440 90 387 34T253 -22Q225 -22 199 -14T143 16T92 75T56 172T42 313ZM257 397Q227 397 205 380T171 335T154 278T148 216Q148 133 160 97T198 39Q222 21 251 21Q302 21 329 59Q342 77 347 104T352 209Q352 289 347 316T329 361Q302 397 257 397Z"/>
          <path id="prefigure-limitinfcheck6-MJX-10-TEX-N-2062" d=""/>
          <path id="prefigure-limitinfcheck6-MJX-10-TEX-I-1D70B" d="M132 -11Q98 -11 98 22V33L111 61Q186 219 220 334L228 358H196Q158 358 142 355T103 336Q92 329 81 318T62 297T53 285Q51 284 38 284Q19 284 19 294Q19 300 38 329T93 391T164 429Q171 431 389 431Q549 431 553 430Q573 423 573 402Q573 371 541 360Q535 358 472 358H408L405 341Q393 269 393 222Q393 170 402 129T421 65T431 37Q431 20 417 5T381 -10Q370 -10 363 -7T347 17T331 77Q330 86 330 121Q330 170 339 226T357 318T367 358H269L268 354Q268 351 249 275T206 114T175 17Q164 -11 132 -11Z"/>
        </defs>
        <g stroke="currentColor" fill="currentColor" stroke-width="0" transform="scale(1,-1)">
          <g data-mml-node="math" data-semantic-type="infixop" data-semantic-role="implicit" data-semantic-id="3" data-semantic-children="0,1" data-semantic-content="2" data-semantic-speech="">
            <g data-mml-node="mn" data-semantic-type="number" data-semantic-role="integer" data-semantic-font="normal" data-semantic-id="0" data-semantic-parent="3" data-semantic-speech="">
              <use data-c="36" xlink:href="#prefigure-limitinfcheck6-MJX-10-TEX-N-36"/>
            </g>
            <g data-mml-node="mo" data-semantic-type="operator" data-semantic-role="multiplication" data-semantic-id="2" data-semantic-parent="3" data-semantic-added="true" data-semantic-operator="infixop,⁢" data-semantic-speech="" transform="translate(500,0)">
              <use data-c="2062" xlink:href="#prefigure-limitinfcheck6-MJX-10-TEX-N-2062"/>
            </g>
            <g data-mml-node="mi" data-semantic-type="identifier" data-semantic-role="greekletter" data-semantic-font="italic" data-semantic-id="1" data-semantic-parent="3" data-semantic-speech="" transform="translate(500,0)">
              <use data-c="1D70B" xlink:href="#prefigure-limitinfcheck6-MJX-10-TEX-I-1D70B"/>
            </g>
          </g>
        </g>
      </svg>
    </g>
  </g>
  <g id="prefigure-limitinfcheck6-__label-9" transform="translate(305.0,166.0) translate(-9.7,-0.0)">
    <g id="prefigure-limitinfcheck6-__g-11">
      <svg xmlns:xlink="http://www.w3.org/1999/xlink" style="vertical-align: -0.400px" width="19.368px" height="12.456px" role="img" focusable="false" viewBox="0 -666 1070 688" x="0.0" y="0.0">
        <defs>
          <path id="prefigure-limitinfcheck6-MJX-11-TEX-N-38" d="M70 417T70 494T124 618T248 666Q319 666 374 624T429 515Q429 485 418 459T392 417T361 389T335 371T324 363L338 354Q352 344 366 334T382 323Q457 264 457 174Q457 95 399 37T249 -22Q159 -22 101 29T43 155Q43 263 172 335L154 348Q133 361 127 368Q70 417 70 494ZM286 386L292 390Q298 394 301 396T311 403T323 413T334 425T345 438T355 454T364 471T369 491T371 513Q371 556 342 586T275 624Q268 625 242 625Q201 625 165 599T128 534Q128 511 141 492T167 463T217 431Q224 426 228 424L286 386ZM250 21Q308 21 350 55T392 137Q392 154 387 169T375 194T353 216T330 234T301 253T274 270Q260 279 244 289T218 306L210 311Q204 311 181 294T133 239T107 157Q107 98 150 60T250 21Z"/>
          <path id="prefigure-limitinfcheck6-MJX-11-TEX-N-2062" d=""/>
          <path id="prefigure-limitinfcheck6-MJX-11-TEX-I-1D70B" d="M132 -11Q98 -11 98 22V33L111 61Q186 219 220 334L228 358H196Q158 358 142 355T103 336Q92 329 81 318T62 297T53 285Q51 284 38 284Q19 284 19 294Q19 300 38 329T93 391T164 429Q171 431 389 431Q549 431 553 430Q573 423 573 402Q573 371 541 360Q535 358 472 358H408L405 341Q393 269 393 222Q393 170 402 129T421 65T431 37Q431 20 417 5T381 -10Q370 -10 363 -7T347 17T331 77Q330 86 330 121Q330 170 339 226T357 318T367 358H269L268 354Q268 351 249 275T206 114T175 17Q164 -11 132 -11Z"/>
        </defs>
        <g stroke="currentColor" fill="currentColor" stroke-width="0" transform="scale(1,-1)">
          <g data-mml-node="math" data-semantic-type="infixop" data-semantic-role="implicit" data-semantic-id="3" data-semantic-children="0,1" data-semantic-content="2" data-semantic-speech="">
            <g data-mml-node="mn" data-semantic-type="number" data-semantic-role="integer" data-semantic-font="normal" data-semantic-id="0" data-semantic-parent="3" data-semantic-speech="">
              <use data-c="38" xlink:href="#prefigure-limitinfcheck6-MJX-11-TEX-N-38"/>
            </g>
            <g data-mml-node="mo" data-semantic-type="operator" data-semantic-role="multiplication" data-semantic-id="2" data-semantic-parent="3" data-semantic-added="true" data-semantic-operator="infixop,⁢" data-semantic-speech="" transform="translate(500,0)">
              <use data-c="2062" xlink:href="#prefigure-limitinfcheck6-MJX-11-TEX-N-2062"/>
            </g>
            <g data-mml-node="mi" data-semantic-type="identifier" data-semantic-role="greekletter" data-semantic-font="italic" data-semantic-id="1" data-semantic-parent="3" data-semantic-speech="" transform="translate(500,0)">
              <use data-c="1D70B" xlink:href="#prefigure-limitinfcheck6-MJX-11-TEX-I-1D70B"/>
            </g>
          </g>
        </g>
      </svg>
    </g>
  </g>
  <g id="prefigure-limitinfcheck6-__label-10" transform="translate(144.0,275.0) translate(-33.2,-6.3)">
    <g id="prefigure-limitinfcheck6-__g-12">
      <svg xmlns:xlink="http://www.w3.org/1999/xlink" style="vertical-align: -0.400px" width="33.176px" height="12.648px" role="img" focusable="false" viewBox="0 -677 1833 699" x="0.0" y="0.0">
        <defs>
          <path id="prefigure-limitinfcheck6-MJX-12-TEX-N-2D" d="M11 179V252H277V179H11Z"/>
          <path id="prefigure-limitinfcheck6-MJX-12-TEX-N-34" d="M462 0Q444 3 333 3Q217 3 199 0H190V46H221Q241 46 248 46T265 48T279 53T286 61Q287 63 287 115V165H28V211L179 442Q332 674 334 675Q336 677 355 677H373L379 671V211H471V165H379V114Q379 73 379 66T385 54Q393 47 442 46H471V0H462ZM293 211V545L74 212L183 211H293Z"/>
          <path id="prefigure-limitinfcheck6-MJX-12-TEX-N-30" d="M96 585Q152 666 249 666Q297 666 345 640T423 548Q460 465 460 320Q460 165 417 83Q397 41 362 16T301 -15T250 -22Q224 -22 198 -16T137 16T82 83Q39 165 39 320Q39 494 96 585ZM321 597Q291 629 250 629Q208 629 178 597Q153 571 145 525T137 333Q137 175 145 125T181 46Q209 16 250 16Q290 16 318 46Q347 76 354 130T362 333Q362 478 354 524T321 597Z"/>
        </defs>
        <g stroke="currentColor" fill="currentColor" stroke-width="0" transform="scale(1,-1)">
          <g data-mml-node="math">
            <g data-mml-node="mtext" data-semantic-type="text" data-semantic-role="unknown" data-semantic-font="normal" data-semantic-id="0" data-semantic-speech="">
              <use data-c="2D" xlink:href="#prefigure-limitinfcheck6-MJX-12-TEX-N-2D"/>
              <use data-c="34" xlink:href="#prefigure-limitinfcheck6-MJX-12-TEX-N-34" transform="translate(333,0)"/>
              <use data-c="30" xlink:href="#prefigure-limitinfcheck6-MJX-12-TEX-N-30" transform="translate(833,0)"/>
              <use data-c="30" xlink:href="#prefigure-limitinfcheck6-MJX-12-TEX-N-30" transform="translate(1333,0)"/>
            </g>
          </g>
        </g>
      </svg>
    </g>
  </g>
  <g id="prefigure-limitinfcheck6-__label-11" transform="translate(144.0,215.0) translate(-33.2,-6.2)">
    <g id="prefigure-limitinfcheck6-__g-13">
      <svg xmlns:xlink="http://www.w3.org/1999/xlink" style="vertical-align: -0.400px" width="33.176px" height="12.456px" role="img" focusable="false" viewBox="0 -666 1833 688" x="0.0" y="0.0">
        <defs>
          <path id="prefigure-limitinfcheck6-MJX-13-TEX-N-2D" d="M11 179V252H277V179H11Z"/>
          <path id="prefigure-limitinfcheck6-MJX-13-TEX-N-32" d="M109 429Q82 429 66 447T50 491Q50 562 103 614T235 666Q326 666 387 610T449 465Q449 422 429 383T381 315T301 241Q265 210 201 149L142 93L218 92Q375 92 385 97Q392 99 409 186V189H449V186Q448 183 436 95T421 3V0H50V19V31Q50 38 56 46T86 81Q115 113 136 137Q145 147 170 174T204 211T233 244T261 278T284 308T305 340T320 369T333 401T340 431T343 464Q343 527 309 573T212 619Q179 619 154 602T119 569T109 550Q109 549 114 549Q132 549 151 535T170 489Q170 464 154 447T109 429Z"/>
          <path id="prefigure-limitinfcheck6-MJX-13-TEX-N-30" d="M96 585Q152 666 249 666Q297 666 345 640T423 548Q460 465 460 320Q460 165 417 83Q397 41 362 16T301 -15T250 -22Q224 -22 198 -16T137 16T82 83Q39 165 39 320Q39 494 96 585ZM321 597Q291 629 250 629Q208 629 178 597Q153 571 145 525T137 333Q137 175 145 125T181 46Q209 16 250 16Q290 16 318 46Q347 76 354 130T362 333Q362 478 354 524T321 597Z"/>
        </defs>
        <g stroke="currentColor" fill="currentColor" stroke-width="0" transform="scale(1,-1)">
          <g data-mml-node="math">
            <g data-mml-node="mtext" data-semantic-type="text" data-semantic-role="unknown" data-semantic-font="normal" data-semantic-id="0" data-semantic-speech="">
              <use data-c="2D" xlink:href="#prefigure-limitinfcheck6-MJX-13-TEX-N-2D"/>
              <use data-c="32" xlink:href="#prefigure-limitinfcheck6-MJX-13-TEX-N-32" transform="translate(333,0)"/>
              <use data-c="30" xlink:href="#prefigure-limitinfcheck6-MJX-13-TEX-N-30" transform="translate(833,0)"/>
              <use data-c="30" xlink:href="#prefigure-limitinfcheck6-MJX-13-TEX-N-30" transform="translate(1333,0)"/>
            </g>
          </g>
        </g>
      </svg>
    </g>
  </g>
  <g id="prefigure-limitinfcheck6-__label-12" transform="translate(144.0,95.0) translate(-27.2,-6.2)">
    <g id="prefigure-limitinfcheck6-__g-14">
      <svg xmlns:xlink="http://www.w3.org/1999/xlink" style="vertical-align: -0.400px" width="27.152px" height="12.456px" role="img" focusable="false" viewBox="0 -666 1500 688" x="0.0" y="0.0">
        <defs>
          <path id="prefigure-limitinfcheck6-MJX-14-TEX-N-32" d="M109 429Q82 429 66 447T50 491Q50 562 103 614T235 666Q326 666 387 610T449 465Q449 422 429 383T381 315T301 241Q265 210 201 149L142 93L218 92Q375 92 385 97Q392 99 409 186V189H449V186Q448 183 436 95T421 3V0H50V19V31Q50 38 56 46T86 81Q115 113 136 137Q145 147 170 174T204 211T233 244T261 278T284 308T305 340T320 369T333 401T340 431T343 464Q343 527 309 573T212 619Q179 619 154 602T119 569T109 550Q109 549 114 549Q132 549 151 535T170 489Q170 464 154 447T109 429Z"/>
          <path id="prefigure-limitinfcheck6-MJX-14-TEX-N-30" d="M96 585Q152 666 249 666Q297 666 345 640T423 548Q460 465 460 320Q460 165 417 83Q397 41 362 16T301 -15T250 -22Q224 -22 198 -16T137 16T82 83Q39 165 39 320Q39 494 96 585ZM321 597Q291 629 250 629Q208 629 178 597Q153 571 145 525T137 333Q137 175 145 125T181 46Q209 16 250 16Q290 16 318 46Q347 76 354 130T362 333Q362 478 354 524T321 597Z"/>
        </defs>
        <g stroke="currentColor" fill="currentColor" stroke-width="0" transform="scale(1,-1)">
          <g data-mml-node="math">
            <g data-mml-node="mtext" data-semantic-type="text" data-semantic-role="unknown" data-semantic-font="normal" data-semantic-id="0" data-semantic-speech="">
              <use data-c="32" xlink:href="#prefigure-limitinfcheck6-MJX-14-TEX-N-32"/>
              <use data-c="30" xlink:href="#prefigure-limitinfcheck6-MJX-14-TEX-N-30" transform="translate(500,0)"/>
              <use data-c="30" xlink:href="#prefigure-limitinfcheck6-MJX-14-TEX-N-30" transform="translate(1000,0)"/>
            </g>
          </g>
        </g>
      </svg>
    </g>
  </g>
  <g id="prefigure-limitinfcheck6-__label-13" transform="translate(144.0,35.0) translate(-27.2,-6.3)">
    <g id="prefigure-limitinfcheck6-__g-15">
      <svg xmlns:xlink="http://www.w3.org/1999/xlink" style="vertical-align: -0.400px" width="27.152px" height="12.648px" role="img" focusable="false" viewBox="0 -677 1500 699" x="0.0" y="0.0">
        <defs>
          <path id="prefigure-limitinfcheck6-MJX-15-TEX-N-34" d="M462 0Q444 3 333 3Q217 3 199 0H190V46H221Q241 46 248 46T265 48T279 53T286 61Q287 63 287 115V165H28V211L179 442Q332 674 334 675Q336 677 355 677H373L379 671V211H471V165H379V114Q379 73 379 66T385 54Q393 47 442 46H471V0H462ZM293 211V545L74 212L183 211H293Z"/>
          <path id="prefigure-limitinfcheck6-MJX-15-TEX-N-30" d="M96 585Q152 666 249 666Q297 666 345 640T423 548Q460 465 460 320Q460 165 417 83Q397 41 362 16T301 -15T250 -22Q224 -22 198 -16T137 16T82 83Q39 165 39 320Q39 494 96 585ZM321 597Q291 629 250 629Q208 629 178 597Q153 571 145 525T137 333Q137 175 145 125T181 46Q209 16 250 16Q290 16 318 46Q347 76 354 130T362 333Q362 478 354 524T321 597Z"/>
        </defs>
        <g stroke="currentColor" fill="currentColor" stroke-width="0" transform="scale(1,-1)">
          <g data-mml-node="math">
            <g data-mml-node="mtext" data-semantic-type="text" data-semantic-role="unknown" data-semantic-font="normal" data-semantic-id="0" data-semantic-speech="">
              <use data-c="34" xlink:href="#prefigure-limitinfcheck6-MJX-15-TEX-N-34"/>
              <use data-c="30" xlink:href="#prefigure-limitinfcheck6-MJX-15-TEX-N-30" transform="translate(500,0)"/>
              <use data-c="30" xlink:href="#prefigure-limitinfcheck6-MJX-15-TEX-N-30" transform="translate(1000,0)"/>
            </g>
          </g>
        </g>
      </svg>
    </g>
  </g>
  <path id="prefigure-limitinfcheck6-graph_1" stroke="lightgreen" stroke-width="2" fill="none" d="M 5.0 155.0 L 8.0 67.3 L 11.0 7.5 L 14.0 -12.1 L 17.0 9.9 L 20.0 64.8 L 23.0 136.6 L 26.0 206.6 L 29.0 258.0 L 32.0 280.2 L 35.0 270.3 L 38.0 233.9 L 41.0 182.2 L 44.0 129.2 L 47.0 87.8 L 50.0 66.7 L 53.0 68.9 L 56.0 91.4 L 59.0 126.4 L 62.0 164.1 L 65.0 195.1 L 68.0 212.7 L 71.0 214.3 L 74.0 201.7 L 77.0 179.7 L 80.0 155.0 L 83.0 134.0 L 86.0 121.1 L 89.0 118.4 L 92.0 124.8 L 95.0 137.2 L 98.0 151.6 L 101.0 164.0 L 104.0 171.9 L 107.0 174.1 L 110.0 171.2 L 113.0 165.2 L 116.0 158.2 L 119.0 152.3 L 122.0 148.7 L 125.0 147.8 L 128.0 149.0 L 131.0 151.3 L 134.0 153.6 L 137.0 155.3 L 140.0 156.1 L 143.0 156.1 L 146.0 155.7 L 149.0 155.3 L 152.0 155.0 L 155.0 155.0 L 158.0 155.0 L 161.0 154.7 L 164.0 154.3 L 167.0 153.9 L 170.0 153.9 L 173.0 154.7 L 176.0 156.4 L 179.0 158.7 L 182.0 161.0 L 185.0 162.2 L 188.0 161.3 L 191.0 157.7 L 194.0 151.8 L 197.0 144.8 L 200.0 138.8 L 203.0 135.9 L 206.0 138.1 L 209.0 146.0 L 212.0 158.4 L 215.0 172.8 L 218.0 185.2 L 221.0 191.6 L 224.0 188.9 L 227.0 176.0 L 230.0 155.0 L 233.0 130.3 L 236.0 108.3 L 239.0 95.7 L 242.0 97.3 L 245.0 114.9 L 248.0 145.9 L 251.0 183.6 L 254.0 218.6 L 257.0 241.1 L 260.0 243.3 L 263.0 222.2 L 266.0 180.8 L 269.0 127.8 L 272.0 76.1 L 275.0 39.7 L 278.0 29.8 L 281.0 52.0 L 284.0 103.4 L 287.0 173.4 L 290.0 245.2 L 293.0 300.1 L 296.0 322.1 L 299.0 302.5 L 302.0 242.7 L 305.0 155.0" clip-path="url(#prefigure-limitinfcheck6-__clipPath-1)"/>
</svg>
