<svg xmlns="http://www.w3.org/2000/svg" id="prefigure-limitinfdefined2-figure" viewBox="0 0 310 310" style="aspect-ratio: 310 / 310;">
  <defs>
    <clipPath id="prefigure-limitinfdefined2-__clipPath-0">
      <rect x="5.0" y="5.0" width="300.0" height="300.0"/>
    </clipPath>
    <clipPath id="prefigure-limitinfdefined2-__clipPath-1">
      <rect x="5.0" y="5.0" width="300.0" height="300.0"/>
    </clipPath>
  </defs>
  <g id="prefigure-limitinfdefined2-axes" stroke="black" stroke-width="2">
    <line id="prefigure-limitinfdefined2-__line-0" x1="5.0" y1="155.0" x2="305.0" y2="155.0" stroke="black" stroke-width="2"/>
    <g id="prefigure-limitinfdefined2-__g-0">
      <line id="prefigure-limitinfdefined2-__line-1" x1="5.0" y1="158.0" x2="5.0" y2="152.0"/>
      <line id="prefigure-limitinfdefined2-__line-2" x1="23.8" y1="158.0" x2="23.8" y2="152.0"/>
      <line id="prefigure-limitinfdefined2-__line-3" x1="42.5" y1="158.0" x2="42.5" y2="152.0"/>
      <line id="prefigure-limitinfdefined2-__line-4" x1="61.2" y1="158.0" x2="61.2" y2="152.0"/>
      <line id="prefigure-limitinfdefined2-__line-5" x1="80.0" y1="158.0" x2="80.0" y2="152.0"/>
      <line id="prefigure-limitinfdefined2-__line-6" x1="98.8" y1="158.0" x2="98.8" y2="152.0"/>
      <line id="prefigure-limitinfdefined2-__line-7" x1="117.5" y1="158.0" x2="117.5" y2="152.0"/>
      <line id="prefigure-limitinfdefined2-__line-8" x1="136.2" y1="158.0" x2="136.2" y2="152.0"/>
      <line id="prefigure-limitinfdefined2-__line-9" x1="173.8" y1="158.0" x2="173.8" y2="152.0"/>
      <line id="prefigure-limitinfdefined2-__line-10" x1="192.5" y1="158.0" x2="192.5" y2="152.0"/>
      <line id="prefigure-limitinfdefined2-__line-11" x1="211.2" y1="158.0" x2="211.2" y2="152.0"/>
      <line id="prefigure-limitinfdefined2-__line-12" x1="230.0" y1="158.0" x2="230.0" y2="152.0"/>
      <line id="prefigure-limitinfdefined2-__line-13" x1="248.8" y1="158.0" x2="248.8" y2="152.0"/>
      <line id="prefigure-limitinfdefined2-__line-14" x1="267.5" y1="158.0" x2="267.5" y2="152.0"/>
      <line id="prefigure-limitinfdefined2-__line-15" x1="286.2" y1="158.0" x2="286.2" y2="152.0"/>
      <line id="prefigure-limitinfdefined2-__line-16" x1="305.0" y1="158.0" x2="305.0" y2="152.0"/>
      <line id="prefigure-limitinfdefined2-__line-17" x1="5.0" y1="158.0" x2="5.0" y2="152.0"/>
      <line id="prefigure-limitinfdefined2-__line-18" x1="42.5" y1="158.0" x2="42.5" y2="152.0"/>
      <line id="prefigure-limitinfdefined2-__line-19" x1="80.0" y1="158.0" x2="80.0" y2="152.0"/>
      <line id="prefigure-limitinfdefined2-__line-20" x1="117.5" y1="158.0" x2="117.5" y2="152.0"/>
      <line id="prefigure-limitinfdefined2-__line-21" x1="192.5" y1="158.0" x2="192.5" y2="152.0"/>
      <line id="prefigure-limitinfdefined2-__line-22" x1="230.0" y1="158.0" x2="230.0" y2="152.0"/>
      <line id="prefigure-limitinfdefined2-__line-23" x1="267.5" y1="158.0" x2="267.5" y2="152.0"/>
      <line id="prefigure-limitinfdefined2-__line-24" x1="305.0" y1="158.0" x2="305.0" y2="152.0"/>
    </g>
    <line id="prefigure-limitinfdefined2-__line-25" x1="155.0" y1="305.0" x2="155.0" y2="5.0" stroke="black" stroke-width="2"/>
    <g id="prefigure-limitinfdefined2-__g-1">
      <line id="prefigure-limitinfdefined2-__line-26" x1="152.0" y1="293.5" x2="158.0" y2="293.5"/>
      <line id="prefigure-limitinfdefined2-__line-27" x1="152.0" y1="281.9" x2="158.0" y2="281.9"/>
      <line id="prefigure-limitinfdefined2-__line-28" x1="152.0" y1="270.4" x2="158.0" y2="270.4"/>
      <line id="prefigure-limitinfdefined2-__line-29" x1="152.0" y1="258.8" x2="158.0" y2="258.8"/>
      <line id="prefigure-limitinfdefined2-__line-30" x1="152.0" y1="247.3" x2="158.0" y2="247.3"/>
      <line id="prefigure-limitinfdefined2-__line-31" x1="152.0" y1="235.8" x2="158.0" y2="235.8"/>
      <line id="prefigure-limitinfdefined2-__line-32" x1="152.0" y1="224.2" x2="158.0" y2="224.2"/>
      <line id="prefigure-limitinfdefined2-__line-33" x1="152.0" y1="212.7" x2="158.0" y2="212.7"/>
      <line id="prefigure-limitinfdefined2-__line-34" x1="152.0" y1="201.2" x2="158.0" y2="201.2"/>
      <line id="prefigure-limitinfdefined2-__line-35" x1="152.0" y1="189.6" x2="158.0" y2="189.6"/>
      <line id="prefigure-limitinfdefined2-__line-36" x1="152.0" y1="178.1" x2="158.0" y2="178.1"/>
      <line id="prefigure-limitinfdefined2-__line-37" x1="152.0" y1="166.5" x2="158.0" y2="166.5"/>
      <line id="prefigure-limitinfdefined2-__line-38" x1="152.0" y1="143.5" x2="158.0" y2="143.5"/>
      <line id="prefigure-limitinfdefined2-__line-39" x1="152.0" y1="131.9" x2="158.0" y2="131.9"/>
      <line id="prefigure-limitinfdefined2-__line-40" x1="152.0" y1="120.4" x2="158.0" y2="120.4"/>
      <line id="prefigure-limitinfdefined2-__line-41" x1="152.0" y1="108.8" x2="158.0" y2="108.8"/>
      <line id="prefigure-limitinfdefined2-__line-42" x1="152.0" y1="97.3" x2="158.0" y2="97.3"/>
      <line id="prefigure-limitinfdefined2-__line-43" x1="152.0" y1="85.8" x2="158.0" y2="85.8"/>
      <line id="prefigure-limitinfdefined2-__line-44" x1="152.0" y1="74.2" x2="158.0" y2="74.2"/>
      <line id="prefigure-limitinfdefined2-__line-45" x1="152.0" y1="62.7" x2="158.0" y2="62.7"/>
      <line id="prefigure-limitinfdefined2-__line-46" x1="152.0" y1="51.2" x2="158.0" y2="51.2"/>
      <line id="prefigure-limitinfdefined2-__line-47" x1="152.0" y1="39.6" x2="158.0" y2="39.6"/>
      <line id="prefigure-limitinfdefined2-__line-48" x1="152.0" y1="28.1" x2="158.0" y2="28.1"/>
      <line id="prefigure-limitinfdefined2-__line-49" x1="152.0" y1="16.5" x2="158.0" y2="16.5"/>
      <line id="prefigure-limitinfdefined2-__line-50" x1="152.0" y1="270.4" x2="158.0" y2="270.4"/>
      <line id="prefigure-limitinfdefined2-__line-51" x1="152.0" y1="212.7" x2="158.0" y2="212.7"/>
      <line id="prefigure-limitinfdefined2-__line-52" x1="152.0" y1="97.3" x2="158.0" y2="97.3"/>
      <line id="prefigure-limitinfdefined2-__line-53" x1="152.0" y1="39.6" x2="158.0" y2="39.6"/>
    </g>
  </g>
  <g id="prefigure-limitinfdefined2-__label-0" transform="translate(301.0,151.0) translate(-8.9,-11.7)">
    <g id="prefigure-limitinfdefined2-__g-2">
      <svg xmlns:xlink="http://www.w3.org/1999/xlink" style="vertical-align: -3.712px" width="8.872px" height="11.712px" role="img" focusable="false" viewBox="0 -442 490 647" x="0.0" y="0.0">
        <defs>
          <path id="prefigure-limitinfdefined2-MJX-2-NCM-I-1D466" d="M163 442C118 442 83 417 58 367C39 328 29 301 29 286C29 277 34 272 45 272C59 272 60 278 64 293C87 372 119 412 160 412C173 412 180 403 180 385C180 369 175 346 164 317C126 214 107 145 107 108C107 32 154-13 231-13C264-13 295-1 323 23C288-109 233-175 158-175C124-175 101-164 89-142C129-140 149-121 149-85C149-60 136-47 109-47C72-47 50-78 50-115C50-170 100-205 158-205C273-205 367-99 392-1L486 377C489 388 490 396 490 401C490 421 479 431 458 431C442 431 429 423 420 408C414 387 409 369 406 354L342 97C332 61 279 16 234 16C196 16 177 41 177 92C177 134 194 198 227 284C240 319 247 343 247 357C247 406 212 442 163 442Z"/>
        </defs>
        <g stroke="currentColor" fill="currentColor" stroke-width="0" transform="scale(1,-1)">
          <g data-mml-node="math">
            <g data-mml-node="mi" data-semantic-type="identifier" data-semantic-role="latinletter" data-semantic-font="italic" data-semantic-annotation="clearspeak:simple;nemeth:number;depth:1" data-semantic-id="0" data-semantic-attributes="latex:y" data-semantic-speech="y">
              <use data-c="1D466" xlink:href="#prefigure-limitinfdefined2-MJX-2-NCM-I-1D466"/>
            </g>
          </g>
        </g>
      </svg>
    </g>
  </g>
  <g id="prefigure-limitinfdefined2-__label-1" transform="translate(159.0,9.0) translate(0.0,-0.0)">
    <g id="prefigure-limitinfdefined2-__g-3">
      <svg xmlns:xlink="http://www.w3.org/1999/xlink" style="vertical-align: -4.488px" width="31.584px" height="18.024px" role="img" focusable="false" viewBox="0 -748 1745 996" x="0.0" y="0.0">
        <defs>
          <path id="prefigure-limitinfdefined2-MJX-3-NCM-I-1D454" d="M15-141C15-184 60-205 150-205C197-205 241-193 280-170C324-144 351-109 362-66L471 373C473 383 474 389 474 392C474 412 463 422 442 422C420 422 406 410 399 387C377 424 347 442 310 442C246 442 189 410 140 346C95 286 72 223 72 158C72 71 123-3 207-3C246-3 282 14 315 47L285-71C256-140 211-175 148-175C122-175 100-173 82-169C103-158 113-141 113-118C113-93 99-80 72-80C40-80 15-109 15-141M356 392C376 371 386 351 386 331C386 330 385 325 383 318L336 129C330 106 313 82 286 60C259 38 233 27 210 27C170 27 150 56 150 114C150 169 184 291 204 327C235 384 270 412 311 412C329 412 344 405 356 392Z"/>
          <path id="prefigure-limitinfdefined2-MJX-3-NCM-N-2061" d=""/>
          <path id="prefigure-limitinfdefined2-MJX-3-NCM-N-28" d="M318-248C327-248 332-243 332-234C332-231 330-227 327-223C275-183 233-117 202-26C175 53 161 131 161 208L161 292C161 369 175 447 202 526C233 617 275 683 327 723C330 726 332 730 332 734C332 743 327 748 318 748C317 748 314 747 311 745C251 699 201 631 160 540C121 453 101 371 101 292L101 208C101 129 121 47 160-40C201-131 251-199 311-245C314-247 317-248 318-248Z"/>
          <path id="prefigure-limitinfdefined2-MJX-3-NCM-I-1D466" d="M163 442C118 442 83 417 58 367C39 328 29 301 29 286C29 277 34 272 45 272C59 272 60 278 64 293C87 372 119 412 160 412C173 412 180 403 180 385C180 369 175 346 164 317C126 214 107 145 107 108C107 32 154-13 231-13C264-13 295-1 323 23C288-109 233-175 158-175C124-175 101-164 89-142C129-140 149-121 149-85C149-60 136-47 109-47C72-47 50-78 50-115C50-170 100-205 158-205C273-205 367-99 392-1L486 377C489 388 490 396 490 401C490 421 479 431 458 431C442 431 429 423 420 408C414 387 409 369 406 354L342 97C332 61 279 16 234 16C196 16 177 41 177 92C177 134 194 198 227 284C240 319 247 343 247 357C247 406 212 442 163 442Z"/>
          <path id="prefigure-limitinfdefined2-MJX-3-NCM-N-29" d="M78-245C138-199 188-131 229-40C268 47 288 129 288 208L288 292C288 371 268 453 229 540C188 631 138 699 78 745C75 747 72 748 71 748C62 748 57 743 57 734C57 730 59 726 62 723C114 683 156 617 187 526C214 447 228 369 228 292L228 208C228 131 214 53 187-26C156-117 114-183 62-223C59-227 57-231 57-234C57-243 62-248 71-248C72-248 75-247 78-245Z"/>
        </defs>
        <g stroke="currentColor" fill="currentColor" stroke-width="0" transform="scale(1,-1)">
          <g data-mml-node="math" data-semantic-type="appl" data-semantic-role="simple function" data-semantic-annotation="clearspeak:simple;depth:1" data-semantic-id="6" data-semantic-children="0,4" data-semantic-content="5,0" data-semantic-attributes="latex:g(y)" data-semantic-speech="g left parenthesis y right parenthesis">
            <g data-mml-node="mi" data-semantic-type="identifier" data-semantic-role="simple function" data-semantic-font="italic" data-semantic-annotation="clearspeak:simple;nemeth:number;depth:2" data-semantic-id="0" data-semantic-parent="6" data-semantic-attributes="latex:g" data-semantic-operator="appl" data-semantic-speech="g">
              <use data-c="1D454" xlink:href="#prefigure-limitinfdefined2-MJX-3-NCM-I-1D454"/>
            </g>
            <g data-mml-node="mo" data-semantic-type="punctuation" data-semantic-role="application" data-semantic-annotation="nemeth:number;depth:2" data-semantic-id="5" data-semantic-parent="6" data-semantic-added="true" data-semantic-operator="appl" data-semantic-speech="of" transform="translate(477,0)">
              <use data-c="2061" xlink:href="#prefigure-limitinfdefined2-MJX-3-NCM-N-2061"/>
            </g>
            <g data-mml-node="mrow" data-semantic-added="true" data-semantic-type="fenced" data-semantic-role="leftright" data-semantic-annotation="fences:paren;depth:2" data-semantic-id="4" data-semantic-children="2" data-semantic-content="1,3" data-semantic-parent="6" data-semantic-speech="left parenthesis y right parenthesis" transform="translate(477,0)">
              <g data-mml-node="mo" data-semantic-type="fence" data-semantic-role="open" data-semantic-annotation="depth:3" data-semantic-id="1" data-semantic-parent="4" data-semantic-attributes="latex:(" data-semantic-operator="fenced" data-semantic-speech="left parenthesis">
                <use data-c="28" xlink:href="#prefigure-limitinfdefined2-MJX-3-NCM-N-28"/>
              </g>
              <g data-mml-node="mi" data-semantic-type="identifier" data-semantic-role="latinletter" data-semantic-font="italic" data-semantic-annotation="clearspeak:simple;depth:3" data-semantic-id="2" data-semantic-parent="4" data-semantic-attributes="latex:y" data-semantic-speech="y" transform="translate(389,0)">
                <use data-c="1D466" xlink:href="#prefigure-limitinfdefined2-MJX-3-NCM-I-1D466"/>
              </g>
              <g data-mml-node="mo" data-semantic-type="fence" data-semantic-role="close" data-semantic-annotation="depth:3" data-semantic-id="3" data-semantic-parent="4" data-semantic-attributes="latex:)" data-semantic-operator="fenced" data-semantic-speech="right parenthesis" transform="translate(879,0)">
                <use data-c="29" xlink:href="#prefigure-limitinfdefined2-MJX-3-NCM-N-29"/>
              </g>
            </g>
          </g>
        </g>
      </svg>
    </g>
  </g>
  <g id="prefigure-limitinfdefined2-__label-2" transform="translate(5.0,166.0) translate(-7.5,-0.0)">
    <g id="prefigure-limitinfdefined2-__g-4">
      <svg xmlns:xlink="http://www.w3.org/1999/xlink" style="vertical-align: 0.000px" width="15.080px" height="12.256px" role="img" focusable="false" viewBox="0 -677 833 677" x="0.0" y="0.0">
        <defs>
          <path id="prefigure-limitinfdefined2-MJX-4-NCM-N-2D" d="M11 187L276 187L276 245L11 245Z"/>
          <path id="prefigure-limitinfdefined2-MJX-4-NCM-N-34" d="M353 677C344 677 336 672 330 663L28 199L28 163L289 163L289 81C289 63 285 51 278 46C271 41 252 39 219 39L194 39L194 0C223 2 269 3 331 3C393 3 439 2 468 0L468 39L443 39C410 39 391 41 384 46C377 51 373 63 373 81L373 163L471 163L471 202L373 202L373 660C373 670 366 677 353 677M295 553L295 202L67 202Z"/>
        </defs>
        <g stroke="currentColor" fill="currentColor" stroke-width="0" transform="scale(1,-1)">
          <g data-mml-node="math">
            <g data-mml-node="mtext" data-semantic-type="text" data-semantic-role="unknown" data-semantic-font="normal" data-semantic-annotation="clearspeak:unit;nemeth:number;depth:1" data-semantic-id="0" data-semantic-attributes="latex:\text{-4}" data-semantic-speech="minus 4">
              <use data-c="2D" xlink:href="#prefigure-limitinfdefined2-MJX-4-NCM-N-2D"/>
              <use data-c="34" xlink:href="#prefigure-limitinfdefined2-MJX-4-NCM-N-34" transform="translate(333,0)"/>
            </g>
          </g>
        </g>
      </svg>
    </g>
  </g>
  <g id="prefigure-limitinfdefined2-__label-3" transform="translate(42.5,166.0) translate(-7.5,-0.0)">
    <g id="prefigure-limitinfdefined2-__g-5">
      <svg xmlns:xlink="http://www.w3.org/1999/xlink" style="vertical-align: -0.400px" width="15.080px" height="12.456px" role="img" focusable="false" viewBox="0 -666 833 688" x="0.0" y="0.0">
        <defs>
          <path id="prefigure-limitinfdefined2-MJX-5-NCM-N-2D" d="M11 187L276 187L276 245L11 245Z"/>
          <path id="prefigure-limitinfdefined2-MJX-5-NCM-N-33" d="M303 353C369 378 431 441 431 526C431 569 410 604 369 631C333 654 292 666 246 666C201 666 162 654 127 631C88 605 68 571 68 528C68 495 90 472 122 472C154 472 176 495 176 527C176 560 157 578 119 580C145 615 186 633 242 633C302 633 332 598 332 527C332 485 324 450 309 421C282 373 245 364 183 364C171 362 165 357 165 348C165 333 172 333 192 333L235 333C310 333 348 280 348 173C348 88 317 14 241 14C176 14 128 36 99 80C134 79 160 105 160 139C160 173 135 198 101 198C62 198 42 178 42 137C42 88 64 49 108 18C147-9 193-22 244-22C301-22 350-3 393 34C436 71 457 117 457 173C457 267 383 332 303 353Z"/>
        </defs>
        <g stroke="currentColor" fill="currentColor" stroke-width="0" transform="scale(1,-1)">
          <g data-mml-node="math">
            <g data-mml-node="mtext" data-semantic-type="text" data-semantic-role="unknown" data-semantic-font="normal" data-semantic-annotation="clearspeak:unit;nemeth:number;depth:1" data-semantic-id="0" data-semantic-attributes="latex:\text{-3}" data-semantic-speech="minus 3">
              <use data-c="2D" xlink:href="#prefigure-limitinfdefined2-MJX-5-NCM-N-2D"/>
              <use data-c="33" xlink:href="#prefigure-limitinfdefined2-MJX-5-NCM-N-33" transform="translate(333,0)"/>
            </g>
          </g>
        </g>
      </svg>
    </g>
  </g>
  <g id="prefigure-limitinfdefined2-__label-4" transform="translate(80.0,166.0) translate(-7.5,-0.0)">
    <g id="prefigure-limitinfdefined2-__g-6">
      <svg xmlns:xlink="http://www.w3.org/1999/xlink" style="vertical-align: 0.000px" width="15.080px" height="12.056px" role="img" focusable="false" viewBox="0 -666 833 666" x="0.0" y="0.0">
        <defs>
          <path id="prefigure-limitinfdefined2-MJX-6-NCM-N-2D" d="M11 187L276 187L276 245L11 245Z"/>
          <path id="prefigure-limitinfdefined2-MJX-6-NCM-N-32" d="M237 666C186 666 143 648 106 612C69 576 50 534 50 483C50 449 75 424 106 424C136 424 161 450 161 480C161 513 137 536 105 536C102 536 100 536 98 535C117 584 161 627 224 627C306 627 352 556 352 470C352 403 318 331 250 255L62 43C49 28 50 29 50 0L421 0L450 180L417 180C409 129 402 100 396 91C391 86 361 84 306 84L139 84L236 179C304 243 390 312 419 365C439 400 449 435 449 470C449 588 357 666 237 666Z"/>
        </defs>
        <g stroke="currentColor" fill="currentColor" stroke-width="0" transform="scale(1,-1)">
          <g data-mml-node="math">
            <g data-mml-node="mtext" data-semantic-type="text" data-semantic-role="unknown" data-semantic-font="normal" data-semantic-annotation="clearspeak:unit;nemeth:number;depth:1" data-semantic-id="0" data-semantic-attributes="latex:\text{-2}" data-semantic-speech="minus 2">
              <use data-c="2D" xlink:href="#prefigure-limitinfdefined2-MJX-6-NCM-N-2D"/>
              <use data-c="32" xlink:href="#prefigure-limitinfdefined2-MJX-6-NCM-N-32" transform="translate(333,0)"/>
            </g>
          </g>
        </g>
      </svg>
    </g>
  </g>
  <g id="prefigure-limitinfdefined2-__label-5" transform="translate(117.5,166.0) translate(-7.5,-0.0)">
    <g id="prefigure-limitinfdefined2-__g-7">
      <svg xmlns:xlink="http://www.w3.org/1999/xlink" style="vertical-align: 0.000px" width="15.080px" height="12.056px" role="img" focusable="false" viewBox="0 -666 833 666" x="0.0" y="0.0">
        <defs>
          <path id="prefigure-limitinfdefined2-MJX-7-NCM-N-2D" d="M11 187L276 187L276 245L11 245Z"/>
          <path id="prefigure-limitinfdefined2-MJX-7-NCM-N-31" d="M269 666C228 624 168 603 89 603L89 564C141 564 184 572 217 588L217 82C217 64 213 52 204 47C195 42 170 39 130 39L95 39L95 0C120 2 174 3 257 3C340 3 394 2 419 0L419 39L384 39C343 39 318 42 310 47C302 52 297 64 297 82L297 636C297 660 295 666 269 666Z"/>
        </defs>
        <g stroke="currentColor" fill="currentColor" stroke-width="0" transform="scale(1,-1)">
          <g data-mml-node="math">
            <g data-mml-node="mtext" data-semantic-type="text" data-semantic-role="unknown" data-semantic-font="normal" data-semantic-annotation="clearspeak:unit;nemeth:number;depth:1" data-semantic-id="0" data-semantic-attributes="latex:\text{-1}" data-semantic-speech="minus 1">
              <use data-c="2D" xlink:href="#prefigure-limitinfdefined2-MJX-7-NCM-N-2D"/>
              <use data-c="31" xlink:href="#prefigure-limitinfdefined2-MJX-7-NCM-N-31" transform="translate(333,0)"/>
            </g>
          </g>
        </g>
      </svg>
    </g>
  </g>
  <g id="prefigure-limitinfdefined2-__label-6" transform="translate(192.5,166.0) translate(-4.5,-0.0)">
    <g id="prefigure-limitinfdefined2-__g-8">
      <svg xmlns:xlink="http://www.w3.org/1999/xlink" style="vertical-align: 0.000px" width="9.048px" height="12.056px" role="img" focusable="false" viewBox="0 -666 500 666" x="0.0" y="0.0">
        <defs>
          <path id="prefigure-limitinfdefined2-MJX-8-NCM-N-31" d="M269 666C228 624 168 603 89 603L89 564C141 564 184 572 217 588L217 82C217 64 213 52 204 47C195 42 170 39 130 39L95 39L95 0C120 2 174 3 257 3C340 3 394 2 419 0L419 39L384 39C343 39 318 42 310 47C302 52 297 64 297 82L297 636C297 660 295 666 269 666Z"/>
        </defs>
        <g stroke="currentColor" fill="currentColor" stroke-width="0" transform="scale(1,-1)">
          <g data-mml-node="math">
            <g data-mml-node="mtext" data-semantic-type="number" data-semantic-role="integer" data-semantic-font="normal" data-semantic-annotation="general:text;clearspeak:simple;nemeth:number;depth:1" data-semantic-id="0" data-semantic-attributes="latex:\text{1}" data-semantic-speech="1">
              <use data-c="31" xlink:href="#prefigure-limitinfdefined2-MJX-8-NCM-N-31"/>
            </g>
          </g>
        </g>
      </svg>
    </g>
  </g>
  <g id="prefigure-limitinfdefined2-__label-7" transform="translate(230.0,166.0) translate(-4.5,-0.0)">
    <g id="prefigure-limitinfdefined2-__g-9">
      <svg xmlns:xlink="http://www.w3.org/1999/xlink" style="vertical-align: 0.000px" width="9.048px" height="12.056px" role="img" focusable="false" viewBox="0 -666 500 666" x="0.0" y="0.0">
        <defs>
          <path id="prefigure-limitinfdefined2-MJX-9-NCM-N-32" d="M237 666C186 666 143 648 106 612C69 576 50 534 50 483C50 449 75 424 106 424C136 424 161 450 161 480C161 513 137 536 105 536C102 536 100 536 98 535C117 584 161 627 224 627C306 627 352 556 352 470C352 403 318 331 250 255L62 43C49 28 50 29 50 0L421 0L450 180L417 180C409 129 402 100 396 91C391 86 361 84 306 84L139 84L236 179C304 243 390 312 419 365C439 400 449 435 449 470C449 588 357 666 237 666Z"/>
        </defs>
        <g stroke="currentColor" fill="currentColor" stroke-width="0" transform="scale(1,-1)">
          <g data-mml-node="math">
            <g data-mml-node="mtext" data-semantic-type="number" data-semantic-role="integer" data-semantic-font="normal" data-semantic-annotation="general:text;clearspeak:simple;nemeth:number;depth:1" data-semantic-id="0" data-semantic-attributes="latex:\text{2}" data-semantic-speech="2">
              <use data-c="32" xlink:href="#prefigure-limitinfdefined2-MJX-9-NCM-N-32"/>
            </g>
          </g>
        </g>
      </svg>
    </g>
  </g>
  <g id="prefigure-limitinfdefined2-__label-8" transform="translate(267.5,166.0) translate(-4.5,-0.0)">
    <g id="prefigure-limitinfdefined2-__g-10">
      <svg xmlns:xlink="http://www.w3.org/1999/xlink" style="vertical-align: -0.400px" width="9.048px" height="12.456px" role="img" focusable="false" viewBox="0 -666 500 688" x="0.0" y="0.0">
        <defs>
          <path id="prefigure-limitinfdefined2-MJX-10-NCM-N-33" d="M303 353C369 378 431 441 431 526C431 569 410 604 369 631C333 654 292 666 246 666C201 666 162 654 127 631C88 605 68 571 68 528C68 495 90 472 122 472C154 472 176 495 176 527C176 560 157 578 119 580C145 615 186 633 242 633C302 633 332 598 332 527C332 485 324 450 309 421C282 373 245 364 183 364C171 362 165 357 165 348C165 333 172 333 192 333L235 333C310 333 348 280 348 173C348 88 317 14 241 14C176 14 128 36 99 80C134 79 160 105 160 139C160 173 135 198 101 198C62 198 42 178 42 137C42 88 64 49 108 18C147-9 193-22 244-22C301-22 350-3 393 34C436 71 457 117 457 173C457 267 383 332 303 353Z"/>
        </defs>
        <g stroke="currentColor" fill="currentColor" stroke-width="0" transform="scale(1,-1)">
          <g data-mml-node="math">
            <g data-mml-node="mtext" data-semantic-type="number" data-semantic-role="integer" data-semantic-font="normal" data-semantic-annotation="general:text;clearspeak:simple;nemeth:number;depth:1" data-semantic-id="0" data-semantic-attributes="latex:\text{3}" data-semantic-speech="3">
              <use data-c="33" xlink:href="#prefigure-limitinfdefined2-MJX-10-NCM-N-33"/>
            </g>
          </g>
        </g>
      </svg>
    </g>
  </g>
  <g id="prefigure-limitinfdefined2-__label-9" transform="translate(305.0,166.0) translate(-4.5,-0.0)">
    <g id="prefigure-limitinfdefined2-__g-11">
      <svg xmlns:xlink="http://www.w3.org/1999/xlink" style="vertical-align: 0.000px" width="9.048px" height="12.256px" role="img" focusable="false" viewBox="0 -677 500 677" x="0.0" y="0.0">
        <defs>
          <path id="prefigure-limitinfdefined2-MJX-11-NCM-N-34" d="M353 677C344 677 336 672 330 663L28 199L28 163L289 163L289 81C289 63 285 51 278 46C271 41 252 39 219 39L194 39L194 0C223 2 269 3 331 3C393 3 439 2 468 0L468 39L443 39C410 39 391 41 384 46C377 51 373 63 373 81L373 163L471 163L471 202L373 202L373 660C373 670 366 677 353 677M295 553L295 202L67 202Z"/>
        </defs>
        <g stroke="currentColor" fill="currentColor" stroke-width="0" transform="scale(1,-1)">
          <g data-mml-node="math">
            <g data-mml-node="mtext" data-semantic-type="number" data-semantic-role="integer" data-semantic-font="normal" data-semantic-annotation="general:text;clearspeak:simple;nemeth:number;depth:1" data-semantic-id="0" data-semantic-attributes="latex:\text{4}" data-semantic-speech="4">
              <use data-c="34" xlink:href="#prefigure-limitinfdefined2-MJX-11-NCM-N-34"/>
            </g>
          </g>
        </g>
      </svg>
    </g>
  </g>
  <g id="prefigure-limitinfdefined2-__label-10" transform="translate(144.0,270.4) translate(-24.1,-6.2)">
    <g id="prefigure-limitinfdefined2-__g-12">
      <svg xmlns:xlink="http://www.w3.org/1999/xlink" style="vertical-align: -0.400px" width="24.128px" height="12.456px" role="img" focusable="false" viewBox="0 -666 1333 688" x="0.0" y="0.0">
        <defs>
          <path id="prefigure-limitinfdefined2-MJX-12-NCM-N-2D" d="M11 187L276 187L276 245L11 245Z"/>
          <path id="prefigure-limitinfdefined2-MJX-12-NCM-N-31" d="M269 666C228 624 168 603 89 603L89 564C141 564 184 572 217 588L217 82C217 64 213 52 204 47C195 42 170 39 130 39L95 39L95 0C120 2 174 3 257 3C340 3 394 2 419 0L419 39L384 39C343 39 318 42 310 47C302 52 297 64 297 82L297 636C297 660 295 666 269 666Z"/>
          <path id="prefigure-limitinfdefined2-MJX-12-NCM-N-30" d="M249-22C390-22 460 92 460 320C460 473 428 575 365 625C330 652 291 666 250 666C109 666 39 551 39 320C39 136 88-22 249-22M361 524C368 489 371 425 371 332C371 240 367 172 360 128C347 48 310 8 249 8C226 8 203 17 182 34C155 57 139 104 132 176C129 201 128 253 128 332C128 419 131 480 136 513C145 568 163 603 191 618C213 630 232 636 249 636C314 636 350 583 361 524Z"/>
        </defs>
        <g stroke="currentColor" fill="currentColor" stroke-width="0" transform="scale(1,-1)">
          <g data-mml-node="math">
            <g data-mml-node="mtext" data-semantic-type="text" data-semantic-role="unknown" data-semantic-font="normal" data-semantic-annotation="clearspeak:unit;nemeth:number;depth:1" data-semantic-id="0" data-semantic-attributes="latex:\text{-10}" data-semantic-speech="minus 10">
              <use data-c="2D" xlink:href="#prefigure-limitinfdefined2-MJX-12-NCM-N-2D"/>
              <use data-c="31" xlink:href="#prefigure-limitinfdefined2-MJX-12-NCM-N-31" transform="translate(333,0)"/>
              <use data-c="30" xlink:href="#prefigure-limitinfdefined2-MJX-12-NCM-N-30" transform="translate(833,0)"/>
            </g>
          </g>
        </g>
      </svg>
    </g>
  </g>
  <g id="prefigure-limitinfdefined2-__label-11" transform="translate(144.0,212.7) translate(-15.1,-6.2)">
    <g id="prefigure-limitinfdefined2-__g-13">
      <svg xmlns:xlink="http://www.w3.org/1999/xlink" style="vertical-align: -0.400px" width="15.080px" height="12.456px" role="img" focusable="false" viewBox="0 -666 833 688" x="0.0" y="0.0">
        <defs>
          <path id="prefigure-limitinfdefined2-MJX-13-NCM-N-2D" d="M11 187L276 187L276 245L11 245Z"/>
          <path id="prefigure-limitinfdefined2-MJX-13-NCM-N-35" d="M118 315C123 315 129 319 134 326C164 371 205 393 257 393C292 393 319 373 337 332C348 305 354 264 354 209C354 146 346 102 331 76C306 35 272 14 229 14C162 14 109 62 91 114C94 113 96 114 100 114C130 114 155 137 155 167C155 198 130 219 100 219C65 219 50 200 50 163C50 63 131-22 231-22C292-22 344 0 386 44C428 88 449 141 449 202C449 260 432 310 398 353C361 400 315 423 259 423C212 423 171 408 138 378L138 556C165 548 191 544 218 544C264 544 304 555 338 578C369 597 390 616 402 634C408 642 411 648 411 651C411 661 406 666 396 666C341 645 294 634 256 634C211 634 168 643 127 662C122 664 118 665 114 665C105 665 100 656 100 637L100 345C100 324 100 315 118 315Z"/>
        </defs>
        <g stroke="currentColor" fill="currentColor" stroke-width="0" transform="scale(1,-1)">
          <g data-mml-node="math">
            <g data-mml-node="mtext" data-semantic-type="text" data-semantic-role="unknown" data-semantic-font="normal" data-semantic-annotation="clearspeak:unit;nemeth:number;depth:1" data-semantic-id="0" data-semantic-attributes="latex:\text{-5}" data-semantic-speech="minus 5">
              <use data-c="2D" xlink:href="#prefigure-limitinfdefined2-MJX-13-NCM-N-2D"/>
              <use data-c="35" xlink:href="#prefigure-limitinfdefined2-MJX-13-NCM-N-35" transform="translate(333,0)"/>
            </g>
          </g>
        </g>
      </svg>
    </g>
  </g>
  <g id="prefigure-limitinfdefined2-__label-12" transform="translate(144.0,97.3) translate(-9.0,-6.2)">
    <g id="prefigure-limitinfdefined2-__g-14">
      <svg xmlns:xlink="http://www.w3.org/1999/xlink" style="vertical-align: -0.400px" width="9.048px" height="12.456px" role="img" focusable="false" viewBox="0 -666 500 688" x="0.0" y="0.0">
        <defs>
          <path id="prefigure-limitinfdefined2-MJX-14-NCM-N-35" d="M118 315C123 315 129 319 134 326C164 371 205 393 257 393C292 393 319 373 337 332C348 305 354 264 354 209C354 146 346 102 331 76C306 35 272 14 229 14C162 14 109 62 91 114C94 113 96 114 100 114C130 114 155 137 155 167C155 198 130 219 100 219C65 219 50 200 50 163C50 63 131-22 231-22C292-22 344 0 386 44C428 88 449 141 449 202C449 260 432 310 398 353C361 400 315 423 259 423C212 423 171 408 138 378L138 556C165 548 191 544 218 544C264 544 304 555 338 578C369 597 390 616 402 634C408 642 411 648 411 651C411 661 406 666 396 666C341 645 294 634 256 634C211 634 168 643 127 662C122 664 118 665 114 665C105 665 100 656 100 637L100 345C100 324 100 315 118 315Z"/>
        </defs>
        <g stroke="currentColor" fill="currentColor" stroke-width="0" transform="scale(1,-1)">
          <g data-mml-node="math">
            <g data-mml-node="mtext" data-semantic-type="number" data-semantic-role="integer" data-semantic-font="normal" data-semantic-annotation="general:text;clearspeak:simple;nemeth:number;depth:1" data-semantic-id="0" data-semantic-attributes="latex:\text{5}" data-semantic-speech="5">
              <use data-c="35" xlink:href="#prefigure-limitinfdefined2-MJX-14-NCM-N-35"/>
            </g>
          </g>
        </g>
      </svg>
    </g>
  </g>
  <g id="prefigure-limitinfdefined2-__label-13" transform="translate(144.0,39.6) translate(-18.1,-6.2)">
    <g id="prefigure-limitinfdefined2-__g-15">
      <svg xmlns:xlink="http://www.w3.org/1999/xlink" style="vertical-align: -0.400px" width="18.096px" height="12.456px" role="img" focusable="false" viewBox="0 -666 1000 688" x="0.0" y="0.0">
        <defs>
          <path id="prefigure-limitinfdefined2-MJX-15-NCM-N-31" d="M269 666C228 624 168 603 89 603L89 564C141 564 184 572 217 588L217 82C217 64 213 52 204 47C195 42 170 39 130 39L95 39L95 0C120 2 174 3 257 3C340 3 394 2 419 0L419 39L384 39C343 39 318 42 310 47C302 52 297 64 297 82L297 636C297 660 295 666 269 666Z"/>
          <path id="prefigure-limitinfdefined2-MJX-15-NCM-N-30" d="M249-22C390-22 460 92 460 320C460 473 428 575 365 625C330 652 291 666 250 666C109 666 39 551 39 320C39 136 88-22 249-22M361 524C368 489 371 425 371 332C371 240 367 172 360 128C347 48 310 8 249 8C226 8 203 17 182 34C155 57 139 104 132 176C129 201 128 253 128 332C128 419 131 480 136 513C145 568 163 603 191 618C213 630 232 636 249 636C314 636 350 583 361 524Z"/>
        </defs>
        <g stroke="currentColor" fill="currentColor" stroke-width="0" transform="scale(1,-1)">
          <g data-mml-node="math">
            <g data-mml-node="mtext" data-semantic-type="text" data-semantic-role="unknown" data-semantic-font="normal" data-semantic-annotation="clearspeak:unit;nemeth:number;depth:1" data-semantic-id="0" data-semantic-attributes="latex:\text{10}" data-semantic-speech="10">
              <use data-c="31" xlink:href="#prefigure-limitinfdefined2-MJX-15-NCM-N-31"/>
              <use data-c="30" xlink:href="#prefigure-limitinfdefined2-MJX-15-NCM-N-30" transform="translate(500,0)"/>
            </g>
          </g>
        </g>
      </svg>
    </g>
  </g>
  <path id="prefigure-limitinfdefined2-graph_left" stroke="lightgreen" stroke-width="2" fill="none" d="M 5.0 157.9 L 6.5 157.9 L 8.0 157.9 L 9.5 158.0 L 11.0 158.0 L 12.5 158.0 L 14.0 158.1 L 15.5 158.1 L 17.0 158.1 L 18.5 158.2 L 20.0 158.2 L 21.5 158.2 L 23.0 158.3 L 24.5 158.3 L 26.0 158.4 L 27.5 158.4 L 29.0 158.4 L 30.5 158.5 L 32.0 158.5 L 33.5 158.6 L 35.0 158.6 L 36.5 158.7 L 38.0 158.7 L 39.5 158.7 L 41.0 158.8 L 42.5 158.8 L 44.0 158.9 L 45.5 159.0 L 47.0 159.0 L 48.5 159.1 L 50.0 159.1 L 51.5 159.2 L 53.0 159.2 L 54.5 159.3 L 56.0 159.4 L 57.5 159.4 L 59.0 159.5 L 60.5 159.6 L 62.0 159.7 L 63.5 159.7 L 65.0 159.8 L 66.5 159.9 L 68.0 160.0 L 69.5 160.1 L 71.0 160.2 L 72.5 160.2 L 74.0 160.3 L 75.5 160.4 L 77.0 160.5 L 78.5 160.7 L 80.0 160.8 L 81.5 160.9 L 83.0 161.0 L 84.5 161.1 L 86.0 161.3 L 87.5 161.4 L 89.0 161.6 L 90.5 161.7 L 92.0 161.9 L 93.5 162.0 L 95.0 162.2 L 96.5 162.4 L 98.0 162.6 L 99.5 162.8 L 101.0 163.0 L 102.5 163.2 L 104.0 163.5 L 105.5 163.7 L 107.0 164.0 L 108.5 164.3 L 110.0 164.6 L 111.5 164.9 L 113.0 165.3 L 114.5 165.7 L 116.0 166.1 L 117.5 166.5 L 119.0 167.0 L 120.5 167.5 L 122.0 168.1 L 123.5 168.7 L 125.0 169.4 L 126.5 170.2 L 128.0 171.0 L 129.5 172.0 L 131.0 173.0 L 132.5 174.2 L 134.0 175.6 L 135.5 177.2 L 137.0 179.0 L 138.5 181.2 L 140.0 183.8 L 141.5 187.1 L 143.0 191.1 L 144.5 196.2 L 146.0 203.1 L 147.5 212.7 L 149.0 227.1 L 150.5 251.2 L 152.0 299.2 L 153.5 443.5" clip-path="url(#prefigure-limitinfdefined2-__clipPath-1)"/>
  <path id="prefigure-limitinfdefined2-graph_right" stroke="lightgreen" stroke-width="2" fill="none" d="M 156.0 -292.6 L 156.5 -133.5 L 158.0 10.8 L 159.5 58.8 L 161.0 82.9 L 162.5 97.3 L 164.0 106.9 L 165.5 113.8 L 167.0 118.9 L 168.5 122.9 L 170.0 126.2 L 171.5 128.8 L 173.0 131.0 L 174.5 132.8 L 176.0 134.4 L 177.5 135.8 L 179.0 137.0 L 180.5 138.0 L 182.0 139.0 L 183.5 139.8 L 185.0 140.6 L 186.5 141.3 L 188.0 141.9 L 189.5 142.5 L 191.0 143.0 L 192.5 143.5 L 194.0 143.9 L 195.5 144.3 L 197.0 144.7 L 198.5 145.1 L 200.0 145.4 L 201.5 145.7 L 203.0 146.0 L 204.5 146.3 L 206.0 146.5 L 207.5 146.8 L 209.0 147.0 L 210.5 147.2 L 212.0 147.4 L 213.5 147.6 L 215.0 147.8 L 216.5 148.0 L 218.0 148.1 L 219.5 148.3 L 221.0 148.4 L 222.5 148.6 L 224.0 148.7 L 225.5 148.9 L 227.0 149.0 L 228.5 149.1 L 230.0 149.2 L 231.5 149.3 L 233.0 149.5 L 234.5 149.6 L 236.0 149.7 L 237.5 149.8 L 239.0 149.8 L 240.5 149.9 L 242.0 150.0 L 243.5 150.1 L 245.0 150.2 L 246.5 150.3 L 248.0 150.3 L 249.5 150.4 L 251.0 150.5 L 252.5 150.6 L 254.0 150.6 L 255.5 150.7 L 257.0 150.8 L 258.5 150.8 L 260.0 150.9 L 261.5 150.9 L 263.0 151.0 L 264.5 151.0 L 266.0 151.1 L 267.5 151.2 L 269.0 151.2 L 270.5 151.3 L 272.0 151.3 L 273.5 151.3 L 275.0 151.4 L 276.5 151.4 L 278.0 151.5 L 279.5 151.5 L 281.0 151.6 L 282.5 151.6 L 284.0 151.6 L 285.5 151.7 L 287.0 151.7 L 288.5 151.8 L 290.0 151.8 L 291.5 151.8 L 293.0 151.9 L 294.5 151.9 L 296.0 151.9 L 297.5 152.0 L 299.0 152.0 L 300.5 152.0 L 302.0 152.1 L 303.5 152.1 L 305.0 152.1" clip-path="url(#prefigure-limitinfdefined2-__clipPath-1)"/>
</svg>
