<svg xmlns="http://www.w3.org/2000/svg" id="prefigure-limitcheck2-figure" viewBox="0 0 310 310">
  <defs>
    <clipPath id="prefigure-limitcheck2-__clipPath-0">
      <rect x="5.0" y="5.0" width="300.0" height="300.0"/>
    </clipPath>
    <clipPath id="prefigure-limitcheck2-__clipPath-1">
      <rect x="5.0" y="5.0" width="300.0" height="300.0"/>
    </clipPath>
  </defs>
  <g id="prefigure-limitcheck2-axes" stroke="black" stroke-width="2">
    <line id="prefigure-limitcheck2-__line-0" x1="5.0" y1="155.0" x2="305.0" y2="155.0" stroke="black" stroke-width="2"/>
    <g id="prefigure-limitcheck2-__g-0">
      <line id="prefigure-limitcheck2-__line-1" x1="66.4" y1="158.0" x2="66.4" y2="152.0"/>
      <line id="prefigure-limitcheck2-__line-2" x1="100.5" y1="158.0" x2="100.5" y2="152.0"/>
      <line id="prefigure-limitcheck2-__line-3" x1="134.5" y1="158.0" x2="134.5" y2="152.0"/>
      <line id="prefigure-limitcheck2-__line-4" x1="168.6" y1="158.0" x2="168.6" y2="152.0"/>
      <line id="prefigure-limitcheck2-__line-5" x1="202.7" y1="158.0" x2="202.7" y2="152.0"/>
      <line id="prefigure-limitcheck2-__line-6" x1="236.8" y1="158.0" x2="236.8" y2="152.0"/>
      <line id="prefigure-limitcheck2-__line-7" x1="270.9" y1="158.0" x2="270.9" y2="152.0"/>
      <line id="prefigure-limitcheck2-__line-8" x1="305.0" y1="158.0" x2="305.0" y2="152.0"/>
      <line id="prefigure-limitcheck2-__line-9" x1="100.5" y1="158.0" x2="100.5" y2="152.0"/>
      <line id="prefigure-limitcheck2-__line-10" x1="168.6" y1="158.0" x2="168.6" y2="152.0"/>
      <line id="prefigure-limitcheck2-__line-11" x1="236.8" y1="158.0" x2="236.8" y2="152.0"/>
      <line id="prefigure-limitcheck2-__line-12" x1="305.0" y1="158.0" x2="305.0" y2="152.0"/>
    </g>
    <line id="prefigure-limitcheck2-__line-13" x1="32.3" y1="305.0" x2="32.3" y2="5.0" stroke="black" stroke-width="2"/>
    <g id="prefigure-limitcheck2-__g-1">
      <line id="prefigure-limitcheck2-__line-14" x1="29.3" y1="305.0" x2="35.3" y2="305.0"/>
      <line id="prefigure-limitcheck2-__line-15" x1="29.3" y1="267.5" x2="35.3" y2="267.5"/>
      <line id="prefigure-limitcheck2-__line-16" x1="29.3" y1="230.0" x2="35.3" y2="230.0"/>
      <line id="prefigure-limitcheck2-__line-17" x1="29.3" y1="192.5" x2="35.3" y2="192.5"/>
      <line id="prefigure-limitcheck2-__line-18" x1="29.3" y1="117.5" x2="35.3" y2="117.5"/>
      <line id="prefigure-limitcheck2-__line-19" x1="29.3" y1="80.0" x2="35.3" y2="80.0"/>
      <line id="prefigure-limitcheck2-__line-20" x1="29.3" y1="42.5" x2="35.3" y2="42.5"/>
      <line id="prefigure-limitcheck2-__line-21" x1="29.3" y1="5.0" x2="35.3" y2="5.0"/>
      <line id="prefigure-limitcheck2-__line-22" x1="29.3" y1="305.0" x2="35.3" y2="305.0"/>
      <line id="prefigure-limitcheck2-__line-23" x1="29.3" y1="230.0" x2="35.3" y2="230.0"/>
      <line id="prefigure-limitcheck2-__line-24" x1="29.3" y1="80.0" x2="35.3" y2="80.0"/>
      <line id="prefigure-limitcheck2-__line-25" x1="29.3" y1="5.0" x2="35.3" y2="5.0"/>
    </g>
  </g>
  <g id="prefigure-limitcheck2-__label-0" transform="translate(301.0,151.0) translate(-9.8,-11.9)">
    <g id="prefigure-limitcheck2-__g-2">
      <svg xmlns:xlink="http://www.w3.org/1999/xlink" style="vertical-align: -3.912px" width="9.832px" height="11.888px" role="img" focusable="false" viewBox="0 -441 543 657" x="0.0" y="0.0">
        <defs>
          <path id="prefigure-limitcheck2-MJX-2-TEX-I-1D6FE" d="M31 249Q11 249 11 258Q11 275 26 304T66 365T129 418T206 441Q233 441 239 440Q287 429 318 386T371 255Q385 195 385 170Q385 166 386 166L398 193Q418 244 443 300T486 391T508 430Q510 431 524 431H537Q543 425 543 422Q543 418 522 378T463 251T391 71Q385 55 378 6T357 -100Q341 -165 330 -190T303 -216Q286 -216 286 -188Q286 -138 340 32L346 51L347 69Q348 79 348 100Q348 257 291 317Q251 355 196 355Q148 355 108 329T51 260Q49 251 47 251Q45 249 31 249Z"/>
        </defs>
        <g stroke="currentColor" fill="currentColor" stroke-width="0" transform="scale(1,-1)">
          <g data-mml-node="math">
            <g data-mml-node="mi" data-semantic-type="identifier" data-semantic-role="greekletter" data-semantic-font="italic" data-semantic-id="0" data-semantic-speech="">
              <use data-c="1D6FE" xlink:href="#prefigure-limitcheck2-MJX-2-TEX-I-1D6FE"/>
            </g>
          </g>
        </g>
      </svg>
    </g>
  </g>
  <g id="prefigure-limitcheck2-__label-1" transform="translate(36.3,9.0) translate(0.0,-0.0)">
    <g id="prefigure-limitcheck2-__g-3">
      <svg xmlns:xlink="http://www.w3.org/1999/xlink" style="vertical-align: -4.528px" width="34.336px" height="18.096px" role="img" focusable="false" viewBox="0 -750 1897 1000" x="0.0" y="0.0">
        <defs>
          <path id="prefigure-limitcheck2-MJX-3-TEX-I-210E" d="M137 683Q138 683 209 688T282 694Q294 694 294 685Q294 674 258 534Q220 386 220 383Q220 381 227 388Q288 442 357 442Q411 442 444 415T478 336Q478 285 440 178T402 50Q403 36 407 31T422 26Q450 26 474 56T513 138Q516 149 519 151T535 153Q555 153 555 145Q555 144 551 130Q535 71 500 33Q466 -10 419 -10H414Q367 -10 346 17T325 74Q325 90 361 192T398 345Q398 404 354 404H349Q266 404 205 306L198 293L164 158Q132 28 127 16Q114 -11 83 -11Q69 -11 59 -2T48 16Q48 30 121 320L195 616Q195 629 188 632T149 637H128Q122 643 122 645T124 664Q129 683 137 683Z"/>
          <path id="prefigure-limitcheck2-MJX-3-TEX-N-2061" d=""/>
          <path id="prefigure-limitcheck2-MJX-3-TEX-N-28" d="M94 250Q94 319 104 381T127 488T164 576T202 643T244 695T277 729T302 750H315H319Q333 750 333 741Q333 738 316 720T275 667T226 581T184 443T167 250T184 58T225 -81T274 -167T316 -220T333 -241Q333 -250 318 -250H315H302L274 -226Q180 -141 137 -14T94 250Z"/>
          <path id="prefigure-limitcheck2-MJX-3-TEX-I-1D6FE" d="M31 249Q11 249 11 258Q11 275 26 304T66 365T129 418T206 441Q233 441 239 440Q287 429 318 386T371 255Q385 195 385 170Q385 166 386 166L398 193Q418 244 443 300T486 391T508 430Q510 431 524 431H537Q543 425 543 422Q543 418 522 378T463 251T391 71Q385 55 378 6T357 -100Q341 -165 330 -190T303 -216Q286 -216 286 -188Q286 -138 340 32L346 51L347 69Q348 79 348 100Q348 257 291 317Q251 355 196 355Q148 355 108 329T51 260Q49 251 47 251Q45 249 31 249Z"/>
          <path id="prefigure-limitcheck2-MJX-3-TEX-N-29" d="M60 749L64 750Q69 750 74 750H86L114 726Q208 641 251 514T294 250Q294 182 284 119T261 12T224 -76T186 -143T145 -194T113 -227T90 -246Q87 -249 86 -250H74Q66 -250 63 -250T58 -247T55 -238Q56 -237 66 -225Q221 -64 221 250T66 725Q56 737 55 738Q55 746 60 749Z"/>
        </defs>
        <g stroke="currentColor" fill="currentColor" stroke-width="0" transform="scale(1,-1)">
          <g data-mml-node="math" data-semantic-type="appl" data-semantic-role="simple function" data-semantic-id="6" data-semantic-children="0,4" data-semantic-content="5,0" data-semantic-speech="">
            <g data-mml-node="mi" data-semantic-type="identifier" data-semantic-role="simple function" data-semantic-font="italic" data-semantic-id="0" data-semantic-parent="6" data-semantic-operator="appl" data-semantic-speech="">
              <use data-c="210E" xlink:href="#prefigure-limitcheck2-MJX-3-TEX-I-210E"/>
            </g>
            <g data-mml-node="mo" data-semantic-type="punctuation" data-semantic-role="application" data-semantic-id="5" data-semantic-parent="6" data-semantic-added="true" data-semantic-operator="appl" data-semantic-speech="" transform="translate(576,0)">
              <use data-c="2061" xlink:href="#prefigure-limitcheck2-MJX-3-TEX-N-2061"/>
            </g>
            <g data-mml-node="mrow" data-semantic-type="fenced" data-semantic-role="leftright" data-semantic-id="4" data-semantic-children="2" data-semantic-content="1,3" data-semantic-parent="6" data-semantic-speech="" transform="translate(576,0)">
              <g data-mml-node="mo" data-semantic-type="fence" data-semantic-role="open" data-semantic-id="1" data-semantic-parent="4" data-semantic-operator="fenced" data-semantic-speech="">
                <use data-c="28" xlink:href="#prefigure-limitcheck2-MJX-3-TEX-N-28"/>
              </g>
              <g data-mml-node="mi" data-semantic-type="identifier" data-semantic-role="greekletter" data-semantic-font="italic" data-semantic-id="2" data-semantic-parent="4" data-semantic-speech="" transform="translate(389,0)">
                <use data-c="1D6FE" xlink:href="#prefigure-limitcheck2-MJX-3-TEX-I-1D6FE"/>
              </g>
              <g data-mml-node="mo" data-semantic-type="fence" data-semantic-role="close" data-semantic-id="3" data-semantic-parent="4" data-semantic-operator="fenced" data-semantic-speech="" transform="translate(932,0)">
                <use data-c="29" xlink:href="#prefigure-limitcheck2-MJX-3-TEX-N-29"/>
              </g>
            </g>
          </g>
        </g>
      </svg>
    </g>
  </g>
  <g id="prefigure-limitcheck2-__label-2" transform="translate(100.5,166.0) translate(-4.5,-0.0)">
    <g id="prefigure-limitcheck2-__g-4">
      <svg xmlns:xlink="http://www.w3.org/1999/xlink" style="vertical-align: 0.000px" width="9.048px" height="12.056px" role="img" focusable="false" viewBox="0 -666 500 666" x="0.0" y="0.0">
        <defs>
          <path id="prefigure-limitcheck2-MJX-4-TEX-N-31" d="M213 578L200 573Q186 568 160 563T102 556H83V602H102Q149 604 189 617T245 641T273 663Q275 666 285 666Q294 666 302 660V361L303 61Q310 54 315 52T339 48T401 46H427V0H416Q395 3 257 3Q121 3 100 0H88V46H114Q136 46 152 46T177 47T193 50T201 52T207 57T213 61V578Z"/>
        </defs>
        <g stroke="currentColor" fill="currentColor" stroke-width="0" transform="scale(1,-1)">
          <g data-mml-node="math">
            <g data-mml-node="mtext" data-semantic-type="text" data-semantic-role="integer" data-semantic-font="normal" data-semantic-id="0" data-semantic-speech="">
              <use data-c="31" xlink:href="#prefigure-limitcheck2-MJX-4-TEX-N-31"/>
            </g>
          </g>
        </g>
      </svg>
    </g>
  </g>
  <g id="prefigure-limitcheck2-__label-3" transform="translate(168.6,166.0) translate(-4.5,-0.0)">
    <g id="prefigure-limitcheck2-__g-5">
      <svg xmlns:xlink="http://www.w3.org/1999/xlink" style="vertical-align: 0.000px" width="9.048px" height="12.056px" role="img" focusable="false" viewBox="0 -666 500 666" x="0.0" y="0.0">
        <defs>
          <path id="prefigure-limitcheck2-MJX-5-TEX-N-32" d="M109 429Q82 429 66 447T50 491Q50 562 103 614T235 666Q326 666 387 610T449 465Q449 422 429 383T381 315T301 241Q265 210 201 149L142 93L218 92Q375 92 385 97Q392 99 409 186V189H449V186Q448 183 436 95T421 3V0H50V19V31Q50 38 56 46T86 81Q115 113 136 137Q145 147 170 174T204 211T233 244T261 278T284 308T305 340T320 369T333 401T340 431T343 464Q343 527 309 573T212 619Q179 619 154 602T119 569T109 550Q109 549 114 549Q132 549 151 535T170 489Q170 464 154 447T109 429Z"/>
        </defs>
        <g stroke="currentColor" fill="currentColor" stroke-width="0" transform="scale(1,-1)">
          <g data-mml-node="math">
            <g data-mml-node="mtext" data-semantic-type="text" data-semantic-role="integer" data-semantic-font="normal" data-semantic-id="0" data-semantic-speech="">
              <use data-c="32" xlink:href="#prefigure-limitcheck2-MJX-5-TEX-N-32"/>
            </g>
          </g>
        </g>
      </svg>
    </g>
  </g>
  <g id="prefigure-limitcheck2-__label-4" transform="translate(236.8,166.0) translate(-4.5,-0.0)">
    <g id="prefigure-limitcheck2-__g-6">
      <svg xmlns:xlink="http://www.w3.org/1999/xlink" style="vertical-align: -0.400px" width="9.048px" height="12.432px" role="img" focusable="false" viewBox="0 -665 500 687" x="0.0" y="0.0">
        <defs>
          <path id="prefigure-limitcheck2-MJX-6-TEX-N-33" d="M127 463Q100 463 85 480T69 524Q69 579 117 622T233 665Q268 665 277 664Q351 652 390 611T430 522Q430 470 396 421T302 350L299 348Q299 347 308 345T337 336T375 315Q457 262 457 175Q457 96 395 37T238 -22Q158 -22 100 21T42 130Q42 158 60 175T105 193Q133 193 151 175T169 130Q169 119 166 110T159 94T148 82T136 74T126 70T118 67L114 66Q165 21 238 21Q293 21 321 74Q338 107 338 175V195Q338 290 274 322Q259 328 213 329L171 330L168 332Q166 335 166 348Q166 366 174 366Q202 366 232 371Q266 376 294 413T322 525V533Q322 590 287 612Q265 626 240 626Q208 626 181 615T143 592T132 580H135Q138 579 143 578T153 573T165 566T175 555T183 540T186 520Q186 498 172 481T127 463Z"/>
        </defs>
        <g stroke="currentColor" fill="currentColor" stroke-width="0" transform="scale(1,-1)">
          <g data-mml-node="math">
            <g data-mml-node="mtext" data-semantic-type="text" data-semantic-role="integer" data-semantic-font="normal" data-semantic-id="0" data-semantic-speech="">
              <use data-c="33" xlink:href="#prefigure-limitcheck2-MJX-6-TEX-N-33"/>
            </g>
          </g>
        </g>
      </svg>
    </g>
  </g>
  <g id="prefigure-limitcheck2-__label-5" transform="translate(305.0,166.0) translate(-4.5,-0.0)">
    <g id="prefigure-limitcheck2-__g-7">
      <svg xmlns:xlink="http://www.w3.org/1999/xlink" style="vertical-align: 0.000px" width="9.048px" height="12.256px" role="img" focusable="false" viewBox="0 -677 500 677" x="0.0" y="0.0">
        <defs>
          <path id="prefigure-limitcheck2-MJX-7-TEX-N-34" d="M462 0Q444 3 333 3Q217 3 199 0H190V46H221Q241 46 248 46T265 48T279 53T286 61Q287 63 287 115V165H28V211L179 442Q332 674 334 675Q336 677 355 677H373L379 671V211H471V165H379V114Q379 73 379 66T385 54Q393 47 442 46H471V0H462ZM293 211V545L74 212L183 211H293Z"/>
        </defs>
        <g stroke="currentColor" fill="currentColor" stroke-width="0" transform="scale(1,-1)">
          <g data-mml-node="math">
            <g data-mml-node="mtext" data-semantic-type="text" data-semantic-role="integer" data-semantic-font="normal" data-semantic-id="0" data-semantic-speech="">
              <use data-c="34" xlink:href="#prefigure-limitcheck2-MJX-7-TEX-N-34"/>
            </g>
          </g>
        </g>
      </svg>
    </g>
  </g>
  <g id="prefigure-limitcheck2-__label-6" transform="translate(21.3,305.0) translate(-24.1,-6.2)">
    <g id="prefigure-limitcheck2-__g-8">
      <svg xmlns:xlink="http://www.w3.org/1999/xlink" style="vertical-align: -0.400px" width="24.128px" height="12.456px" role="img" focusable="false" viewBox="0 -666 1333 688" x="0.0" y="0.0">
        <defs>
          <path id="prefigure-limitcheck2-MJX-8-TEX-N-2D" d="M11 179V252H277V179H11Z"/>
          <path id="prefigure-limitcheck2-MJX-8-TEX-N-32" d="M109 429Q82 429 66 447T50 491Q50 562 103 614T235 666Q326 666 387 610T449 465Q449 422 429 383T381 315T301 241Q265 210 201 149L142 93L218 92Q375 92 385 97Q392 99 409 186V189H449V186Q448 183 436 95T421 3V0H50V19V31Q50 38 56 46T86 81Q115 113 136 137Q145 147 170 174T204 211T233 244T261 278T284 308T305 340T320 369T333 401T340 431T343 464Q343 527 309 573T212 619Q179 619 154 602T119 569T109 550Q109 549 114 549Q132 549 151 535T170 489Q170 464 154 447T109 429Z"/>
          <path id="prefigure-limitcheck2-MJX-8-TEX-N-30" d="M96 585Q152 666 249 666Q297 666 345 640T423 548Q460 465 460 320Q460 165 417 83Q397 41 362 16T301 -15T250 -22Q224 -22 198 -16T137 16T82 83Q39 165 39 320Q39 494 96 585ZM321 597Q291 629 250 629Q208 629 178 597Q153 571 145 525T137 333Q137 175 145 125T181 46Q209 16 250 16Q290 16 318 46Q347 76 354 130T362 333Q362 478 354 524T321 597Z"/>
        </defs>
        <g stroke="currentColor" fill="currentColor" stroke-width="0" transform="scale(1,-1)">
          <g data-mml-node="math">
            <g data-mml-node="mtext" data-semantic-type="text" data-semantic-role="unknown" data-semantic-font="normal" data-semantic-id="0" data-semantic-speech="">
              <use data-c="2D" xlink:href="#prefigure-limitcheck2-MJX-8-TEX-N-2D"/>
              <use data-c="32" xlink:href="#prefigure-limitcheck2-MJX-8-TEX-N-32" transform="translate(333,0)"/>
              <use data-c="30" xlink:href="#prefigure-limitcheck2-MJX-8-TEX-N-30" transform="translate(833,0)"/>
            </g>
          </g>
        </g>
      </svg>
    </g>
  </g>
  <g id="prefigure-limitcheck2-__label-7" transform="translate(21.3,230.0) translate(-24.1,-6.2)">
    <g id="prefigure-limitcheck2-__g-9">
      <svg xmlns:xlink="http://www.w3.org/1999/xlink" style="vertical-align: -0.400px" width="24.128px" height="12.456px" role="img" focusable="false" viewBox="0 -666 1333 688" x="0.0" y="0.0">
        <defs>
          <path id="prefigure-limitcheck2-MJX-9-TEX-N-2D" d="M11 179V252H277V179H11Z"/>
          <path id="prefigure-limitcheck2-MJX-9-TEX-N-31" d="M213 578L200 573Q186 568 160 563T102 556H83V602H102Q149 604 189 617T245 641T273 663Q275 666 285 666Q294 666 302 660V361L303 61Q310 54 315 52T339 48T401 46H427V0H416Q395 3 257 3Q121 3 100 0H88V46H114Q136 46 152 46T177 47T193 50T201 52T207 57T213 61V578Z"/>
          <path id="prefigure-limitcheck2-MJX-9-TEX-N-30" d="M96 585Q152 666 249 666Q297 666 345 640T423 548Q460 465 460 320Q460 165 417 83Q397 41 362 16T301 -15T250 -22Q224 -22 198 -16T137 16T82 83Q39 165 39 320Q39 494 96 585ZM321 597Q291 629 250 629Q208 629 178 597Q153 571 145 525T137 333Q137 175 145 125T181 46Q209 16 250 16Q290 16 318 46Q347 76 354 130T362 333Q362 478 354 524T321 597Z"/>
        </defs>
        <g stroke="currentColor" fill="currentColor" stroke-width="0" transform="scale(1,-1)">
          <g data-mml-node="math">
            <g data-mml-node="mtext" data-semantic-type="text" data-semantic-role="unknown" data-semantic-font="normal" data-semantic-id="0" data-semantic-speech="">
              <use data-c="2D" xlink:href="#prefigure-limitcheck2-MJX-9-TEX-N-2D"/>
              <use data-c="31" xlink:href="#prefigure-limitcheck2-MJX-9-TEX-N-31" transform="translate(333,0)"/>
              <use data-c="30" xlink:href="#prefigure-limitcheck2-MJX-9-TEX-N-30" transform="translate(833,0)"/>
            </g>
          </g>
        </g>
      </svg>
    </g>
  </g>
  <g id="prefigure-limitcheck2-__label-8" transform="translate(21.3,80.0) translate(-18.1,-6.2)">
    <g id="prefigure-limitcheck2-__g-10">
      <svg xmlns:xlink="http://www.w3.org/1999/xlink" style="vertical-align: -0.400px" width="18.096px" height="12.456px" role="img" focusable="false" viewBox="0 -666 1000 688" x="0.0" y="0.0">
        <defs>
          <path id="prefigure-limitcheck2-MJX-10-TEX-N-31" d="M213 578L200 573Q186 568 160 563T102 556H83V602H102Q149 604 189 617T245 641T273 663Q275 666 285 666Q294 666 302 660V361L303 61Q310 54 315 52T339 48T401 46H427V0H416Q395 3 257 3Q121 3 100 0H88V46H114Q136 46 152 46T177 47T193 50T201 52T207 57T213 61V578Z"/>
          <path id="prefigure-limitcheck2-MJX-10-TEX-N-30" d="M96 585Q152 666 249 666Q297 666 345 640T423 548Q460 465 460 320Q460 165 417 83Q397 41 362 16T301 -15T250 -22Q224 -22 198 -16T137 16T82 83Q39 165 39 320Q39 494 96 585ZM321 597Q291 629 250 629Q208 629 178 597Q153 571 145 525T137 333Q137 175 145 125T181 46Q209 16 250 16Q290 16 318 46Q347 76 354 130T362 333Q362 478 354 524T321 597Z"/>
        </defs>
        <g stroke="currentColor" fill="currentColor" stroke-width="0" transform="scale(1,-1)">
          <g data-mml-node="math">
            <g data-mml-node="mtext" data-semantic-type="text" data-semantic-role="unknown" data-semantic-font="normal" data-semantic-id="0" data-semantic-speech="">
              <use data-c="31" xlink:href="#prefigure-limitcheck2-MJX-10-TEX-N-31"/>
              <use data-c="30" xlink:href="#prefigure-limitcheck2-MJX-10-TEX-N-30" transform="translate(500,0)"/>
            </g>
          </g>
        </g>
      </svg>
    </g>
  </g>
  <g id="prefigure-limitcheck2-__label-9" transform="translate(21.3,5.0) translate(-18.1,-6.2)">
    <g id="prefigure-limitcheck2-__g-11">
      <svg xmlns:xlink="http://www.w3.org/1999/xlink" style="vertical-align: -0.400px" width="18.096px" height="12.456px" role="img" focusable="false" viewBox="0 -666 1000 688" x="0.0" y="0.0">
        <defs>
          <path id="prefigure-limitcheck2-MJX-11-TEX-N-32" d="M109 429Q82 429 66 447T50 491Q50 562 103 614T235 666Q326 666 387 610T449 465Q449 422 429 383T381 315T301 241Q265 210 201 149L142 93L218 92Q375 92 385 97Q392 99 409 186V189H449V186Q448 183 436 95T421 3V0H50V19V31Q50 38 56 46T86 81Q115 113 136 137Q145 147 170 174T204 211T233 244T261 278T284 308T305 340T320 369T333 401T340 431T343 464Q343 527 309 573T212 619Q179 619 154 602T119 569T109 550Q109 549 114 549Q132 549 151 535T170 489Q170 464 154 447T109 429Z"/>
          <path id="prefigure-limitcheck2-MJX-11-TEX-N-30" d="M96 585Q152 666 249 666Q297 666 345 640T423 548Q460 465 460 320Q460 165 417 83Q397 41 362 16T301 -15T250 -22Q224 -22 198 -16T137 16T82 83Q39 165 39 320Q39 494 96 585ZM321 597Q291 629 250 629Q208 629 178 597Q153 571 145 525T137 333Q137 175 145 125T181 46Q209 16 250 16Q290 16 318 46Q347 76 354 130T362 333Q362 478 354 524T321 597Z"/>
        </defs>
        <g stroke="currentColor" fill="currentColor" stroke-width="0" transform="scale(1,-1)">
          <g data-mml-node="math">
            <g data-mml-node="mtext" data-semantic-type="text" data-semantic-role="unknown" data-semantic-font="normal" data-semantic-id="0" data-semantic-speech="">
              <use data-c="32" xlink:href="#prefigure-limitcheck2-MJX-11-TEX-N-32"/>
              <use data-c="30" xlink:href="#prefigure-limitcheck2-MJX-11-TEX-N-30" transform="translate(500,0)"/>
            </g>
          </g>
        </g>
      </svg>
    </g>
  </g>
  <line id="prefigure-limitcheck2-guide" x1="100.5" y1="305.0" x2="100.5" y2="5.0" stroke="blue" stroke-width="2" fill="none"/>
  <path id="prefigure-limitcheck2-graph_1" stroke="lightgreen" stroke-width="2" fill="none" d="M 32.3 156.9 L 33.0 156.9 L 33.6 157.0 L 34.3 157.0 L 35.0 157.0 L 35.7 157.1 L 36.4 157.1 L 37.0 157.2 L 37.7 157.2 L 38.4 157.3 L 39.1 157.3 L 39.8 157.4 L 40.5 157.4 L 41.1 157.5 L 41.8 157.5 L 42.5 157.6 L 43.2 157.6 L 43.9 157.7 L 44.5 157.8 L 45.2 157.8 L 45.9 157.9 L 46.6 158.0 L 47.3 158.0 L 48.0 158.1 L 48.6 158.2 L 49.3 158.3 L 50.0 158.3 L 50.7 158.4 L 51.4 158.5 L 52.0 158.6 L 52.7 158.7 L 53.4 158.8 L 54.1 158.9 L 54.8 159.0 L 55.5 159.1 L 56.1 159.2 L 56.8 159.4 L 57.5 159.5 L 58.2 159.6 L 58.9 159.7 L 59.5 159.9 L 60.2 160.0 L 60.9 160.2 L 61.6 160.3 L 62.3 160.5 L 63.0 160.7 L 63.6 160.9 L 64.3 161.0 L 65.0 161.2 L 65.7 161.4 L 66.4 161.7 L 67.0 161.9 L 67.7 162.1 L 68.4 162.4 L 69.1 162.6 L 69.8 162.9 L 70.5 163.2 L 71.1 163.5 L 71.8 163.9 L 72.5 164.2 L 73.2 164.6 L 73.9 165.0 L 74.5 165.4 L 75.2 165.8 L 75.9 166.3 L 76.6 166.8 L 77.3 167.3 L 78.0 167.8 L 78.6 168.5 L 79.3 169.1 L 80.0 169.8 L 80.7 170.5 L 81.4 171.3 L 82.0 172.2 L 82.7 173.2 L 83.4 174.2 L 84.1 175.3 L 84.8 176.6 L 85.5 177.9 L 86.1 179.4 L 86.8 181.0 L 87.5 182.9 L 88.2 184.9 L 88.9 187.2 L 89.5 189.8 L 90.2 192.8 L 90.9 196.2 L 91.6 200.2 L 92.3 204.8 L 93.0 210.3 L 93.6 217.0 L 94.3 225.1 L 95.0 235.4 L 95.7 248.6 L 96.4 266.2 L 97.0 291.1 L 97.7 328.4 L 98.4 390.6 L 99.1 515.4" clip-path="url(#prefigure-limitcheck2-__clipPath-1)"/>
  <path id="prefigure-limitcheck2-graph_2" stroke="lightgreen" stroke-width="2" fill="none" d="M 101.6 -294.8 L 101.8 -235.5 L 102.5 -110.7 L 103.2 -48.5 L 103.9 -11.2 L 104.5 13.5 L 105.2 31.1 L 105.9 44.2 L 106.6 54.4 L 107.3 62.4 L 108.0 68.9 L 108.6 74.3 L 109.3 78.8 L 110.0 82.6 L 110.7 85.8 L 111.4 88.6 L 112.0 91.0 L 112.7 93.0 L 113.4 94.8 L 114.1 96.4 L 114.8 97.8 L 115.5 99.0 L 116.1 100.0 L 116.8 100.9 L 117.5 101.7 L 118.2 102.3 L 118.9 102.9 L 119.5 103.3 L 120.2 103.7 L 120.9 104.0 L 121.6 104.2 L 122.3 104.3 L 123.0 104.4 L 123.6 104.4 L 124.3 104.3 L 125.0 104.1 L 125.7 103.9 L 126.4 103.7 L 127.0 103.3 L 127.7 102.9 L 128.4 102.4 L 129.1 101.9 L 129.8 101.3 L 130.5 100.6 L 131.1 99.9 L 131.8 99.1 L 132.5 98.2 L 133.2 97.2 L 133.9 96.2 L 134.5 95.0 L 135.2 93.8 L 135.9 92.4 L 136.6 90.9 L 137.3 89.4 L 138.0 87.7 L 138.6 85.8 L 139.3 83.8 L 140.0 81.7 L 140.7 79.4 L 141.4 76.9 L 142.0 74.2 L 142.7 71.2 L 143.4 68.0 L 144.1 64.6 L 144.8 60.8 L 145.5 56.7 L 146.1 52.2 L 146.8 47.3 L 147.5 41.9 L 148.2 36.0 L 148.9 29.4 L 149.5 22.1 L 150.2 14.1 L 150.9 5.1 L 151.6 -5.0 L 152.3 -16.3 L 153.0 -29.1 L 153.6 -43.7 L 154.3 -60.3 L 155.0 -79.4 L 155.7 -101.5 L 156.4 -127.3 L 157.0 -157.7 L 157.7 -193.8 L 158.4 -237.2 L 159.1 -289.9" clip-path="url(#prefigure-limitcheck2-__clipPath-1)"/>
  <path id="prefigure-limitcheck2-graph_3" stroke="lightgreen" stroke-width="2" fill="none" d="M 177.0 -294.5 L 178.2 -180.7 L 179.5 -97.6 L 180.9 -41.2 L 182.3 -1.2 L 183.6 28.0 L 185.0 50.0 L 186.4 66.9 L 187.7 80.3 L 189.1 90.9 L 190.5 99.5 L 191.8 106.6 L 193.2 112.4 L 194.5 117.4 L 195.9 121.5 L 197.3 125.1 L 198.6 128.1 L 200.0 130.7 L 201.4 133.0 L 202.7 135.0 L 204.1 136.8 L 205.5 138.3 L 206.8 139.7 L 208.2 140.9 L 209.5 142.0 L 210.9 143.0 L 212.3 143.8 L 213.6 144.6 L 215.0 145.3 L 216.4 146.0 L 217.7 146.6 L 219.1 147.1 L 220.5 147.6 L 221.8 148.1 L 223.2 148.5 L 224.5 148.9 L 225.9 149.2 L 227.3 149.5 L 228.6 149.8 L 230.0 150.1 L 231.4 150.4 L 232.7 150.6 L 234.1 150.8 L 235.5 151.1 L 236.8 151.2 L 238.2 151.4 L 239.5 151.6 L 240.9 151.8 L 242.3 151.9 L 243.6 152.0 L 245.0 152.2 L 246.4 152.3 L 247.7 152.4 L 249.1 152.5 L 250.5 152.6 L 251.8 152.7 L 253.2 152.8 L 254.5 152.9 L 255.9 153.0 L 257.3 153.1 L 258.6 153.1 L 260.0 153.2 L 261.4 153.3 L 262.7 153.3 L 264.1 153.4 L 265.5 153.5 L 266.8 153.5 L 268.2 153.6 L 269.5 153.6 L 270.9 153.7 L 272.3 153.7 L 273.6 153.8 L 275.0 153.8 L 276.4 153.8 L 277.7 153.9 L 279.1 153.9 L 280.5 153.9 L 281.8 154.0 L 283.2 154.0 L 284.5 154.0 L 285.9 154.1 L 287.3 154.1 L 288.6 154.1 L 290.0 154.1 L 291.4 154.2 L 292.7 154.2 L 294.1 154.2 L 295.5 154.2 L 296.8 154.3 L 298.2 154.3 L 299.5 154.3 L 300.9 154.3 L 302.3 154.3 L 303.6 154.4 L 305.0 154.4" clip-path="url(#prefigure-limitcheck2-__clipPath-1)"/>
</svg>
