<svg xmlns="http://www.w3.org/2000/svg" id="prefigure-check-continuous6-figure" width="310" height="310" viewBox="0 0 310 310">
  <defs>
    <clipPath id="prefigure-check-continuous6-__clipPath-0">
      <rect x="5.0" y="5.0" width="300.0" height="300.0"/>
    </clipPath>
    <clipPath id="prefigure-check-continuous6-__clipPath-1">
      <rect x="5.0" y="5.0" width="300.0" height="300.0"/>
    </clipPath>
  </defs>
  <g id="prefigure-check-continuous6-axes" stroke="black" stroke-width="2">
    <line id="prefigure-check-continuous6-__line-0" x1="5.0" y1="155.0" x2="305.0" y2="155.0" stroke="black" stroke-width="2"/>
    <g id="prefigure-check-continuous6-__g-0">
      <line id="prefigure-check-continuous6-__line-1" x1="5.0" y1="158.0" x2="5.0" y2="152.0"/>
      <line id="prefigure-check-continuous6-__line-2" x1="42.5" y1="158.0" x2="42.5" y2="152.0"/>
      <line id="prefigure-check-continuous6-__line-3" x1="80.0" y1="158.0" x2="80.0" y2="152.0"/>
      <line id="prefigure-check-continuous6-__line-4" x1="117.5" y1="158.0" x2="117.5" y2="152.0"/>
      <line id="prefigure-check-continuous6-__line-5" x1="192.5" y1="158.0" x2="192.5" y2="152.0"/>
      <line id="prefigure-check-continuous6-__line-6" x1="230.0" y1="158.0" x2="230.0" y2="152.0"/>
      <line id="prefigure-check-continuous6-__line-7" x1="267.5" y1="158.0" x2="267.5" y2="152.0"/>
      <line id="prefigure-check-continuous6-__line-8" x1="305.0" y1="158.0" x2="305.0" y2="152.0"/>
      <line id="prefigure-check-continuous6-__line-9" x1="5.0" y1="158.0" x2="5.0" y2="152.0"/>
      <line id="prefigure-check-continuous6-__line-10" x1="80.0" y1="158.0" x2="80.0" y2="152.0"/>
      <line id="prefigure-check-continuous6-__line-11" x1="230.0" y1="158.0" x2="230.0" y2="152.0"/>
      <line id="prefigure-check-continuous6-__line-12" x1="305.0" y1="158.0" x2="305.0" y2="152.0"/>
    </g>
    <line id="prefigure-check-continuous6-__line-13" x1="155.0" y1="305.0" x2="155.0" y2="5.0" stroke="black" stroke-width="2"/>
    <g id="prefigure-check-continuous6-__g-1">
      <line id="prefigure-check-continuous6-__line-14" x1="152.0" y1="291.4" x2="158.0" y2="291.4"/>
      <line id="prefigure-check-continuous6-__line-15" x1="152.0" y1="277.7" x2="158.0" y2="277.7"/>
      <line id="prefigure-check-continuous6-__line-16" x1="152.0" y1="264.1" x2="158.0" y2="264.1"/>
      <line id="prefigure-check-continuous6-__line-17" x1="152.0" y1="250.5" x2="158.0" y2="250.5"/>
      <line id="prefigure-check-continuous6-__line-18" x1="152.0" y1="236.8" x2="158.0" y2="236.8"/>
      <line id="prefigure-check-continuous6-__line-19" x1="152.0" y1="223.2" x2="158.0" y2="223.2"/>
      <line id="prefigure-check-continuous6-__line-20" x1="152.0" y1="209.5" x2="158.0" y2="209.5"/>
      <line id="prefigure-check-continuous6-__line-21" x1="152.0" y1="195.9" x2="158.0" y2="195.9"/>
      <line id="prefigure-check-continuous6-__line-22" x1="152.0" y1="182.3" x2="158.0" y2="182.3"/>
      <line id="prefigure-check-continuous6-__line-23" x1="152.0" y1="168.6" x2="158.0" y2="168.6"/>
      <line id="prefigure-check-continuous6-__line-24" x1="152.0" y1="141.4" x2="158.0" y2="141.4"/>
      <line id="prefigure-check-continuous6-__line-25" x1="152.0" y1="127.7" x2="158.0" y2="127.7"/>
      <line id="prefigure-check-continuous6-__line-26" x1="152.0" y1="114.1" x2="158.0" y2="114.1"/>
      <line id="prefigure-check-continuous6-__line-27" x1="152.0" y1="100.5" x2="158.0" y2="100.5"/>
      <line id="prefigure-check-continuous6-__line-28" x1="152.0" y1="86.8" x2="158.0" y2="86.8"/>
      <line id="prefigure-check-continuous6-__line-29" x1="152.0" y1="73.2" x2="158.0" y2="73.2"/>
      <line id="prefigure-check-continuous6-__line-30" x1="152.0" y1="59.5" x2="158.0" y2="59.5"/>
      <line id="prefigure-check-continuous6-__line-31" x1="152.0" y1="45.9" x2="158.0" y2="45.9"/>
      <line id="prefigure-check-continuous6-__line-32" x1="152.0" y1="32.3" x2="158.0" y2="32.3"/>
      <line id="prefigure-check-continuous6-__line-33" x1="152.0" y1="18.6" x2="158.0" y2="18.6"/>
      <line id="prefigure-check-continuous6-__line-34" x1="152.0" y1="291.4" x2="158.0" y2="291.4"/>
      <line id="prefigure-check-continuous6-__line-35" x1="152.0" y1="223.2" x2="158.0" y2="223.2"/>
      <line id="prefigure-check-continuous6-__line-36" x1="152.0" y1="86.8" x2="158.0" y2="86.8"/>
      <line id="prefigure-check-continuous6-__line-37" x1="152.0" y1="18.6" x2="158.0" y2="18.6"/>
    </g>
  </g>
  <g id="prefigure-check-continuous6-__label-0" transform="translate(301.0,151.0) translate(-8.4,-8.2)">
    <g id="prefigure-check-continuous6-__g-2">
      <svg xmlns:xlink="http://www.w3.org/1999/xlink" style="vertical-align: -0.200px" width="8.416px" height="8.200px" role="img" focusable="false" viewBox="0 -442 465 453" x="0.0" y="0.0">
        <defs>
          <path id="prefigure-check-continuous6-MJX-2-TEX-I-1D467" d="M347 338Q337 338 294 349T231 360Q211 360 197 356T174 346T162 335T155 324L153 320Q150 317 138 317Q117 317 117 325Q117 330 120 339Q133 378 163 406T229 440Q241 442 246 442Q271 442 291 425T329 392T367 375Q389 375 411 408T434 441Q435 442 449 442H462Q468 436 468 434Q468 430 463 420T449 399T432 377T418 358L411 349Q368 298 275 214T160 106L148 94L163 93Q185 93 227 82T290 71Q328 71 360 90T402 140Q406 149 409 151T424 153Q443 153 443 143Q443 138 442 134Q425 72 376 31T278 -11Q252 -11 232 6T193 40T155 57Q111 57 76 -3Q70 -11 59 -11H54H41Q35 -5 35 -2Q35 13 93 84Q132 129 225 214T340 322Q352 338 347 338Z"/>
        </defs>
        <g stroke="currentColor" fill="currentColor" stroke-width="0" transform="scale(1,-1)">
          <g data-mml-node="math">
            <g data-mml-node="mi" data-semantic-type="identifier" data-semantic-role="latinletter" data-semantic-font="italic" data-semantic-id="0" data-semantic-speech="">
              <use data-c="1D467" xlink:href="#prefigure-check-continuous6-MJX-2-TEX-I-1D467"/>
            </g>
          </g>
        </g>
      </svg>
    </g>
  </g>
  <g id="prefigure-check-continuous6-__label-1" transform="translate(159.0,9.0) translate(0.0,-0.0)">
    <g id="prefigure-check-continuous6-__g-3">
      <svg xmlns:xlink="http://www.w3.org/1999/xlink" style="vertical-align: -4.528px" width="32.920px" height="18.096px" role="img" focusable="false" viewBox="0 -750 1819 1000" x="0.0" y="0.0">
        <defs>
          <path id="prefigure-check-continuous6-MJX-3-TEX-I-210E" d="M137 683Q138 683 209 688T282 694Q294 694 294 685Q294 674 258 534Q220 386 220 383Q220 381 227 388Q288 442 357 442Q411 442 444 415T478 336Q478 285 440 178T402 50Q403 36 407 31T422 26Q450 26 474 56T513 138Q516 149 519 151T535 153Q555 153 555 145Q555 144 551 130Q535 71 500 33Q466 -10 419 -10H414Q367 -10 346 17T325 74Q325 90 361 192T398 345Q398 404 354 404H349Q266 404 205 306L198 293L164 158Q132 28 127 16Q114 -11 83 -11Q69 -11 59 -2T48 16Q48 30 121 320L195 616Q195 629 188 632T149 637H128Q122 643 122 645T124 664Q129 683 137 683Z"/>
          <path id="prefigure-check-continuous6-MJX-3-TEX-N-2061" d=""/>
          <path id="prefigure-check-continuous6-MJX-3-TEX-N-28" d="M94 250Q94 319 104 381T127 488T164 576T202 643T244 695T277 729T302 750H315H319Q333 750 333 741Q333 738 316 720T275 667T226 581T184 443T167 250T184 58T225 -81T274 -167T316 -220T333 -241Q333 -250 318 -250H315H302L274 -226Q180 -141 137 -14T94 250Z"/>
          <path id="prefigure-check-continuous6-MJX-3-TEX-I-1D467" d="M347 338Q337 338 294 349T231 360Q211 360 197 356T174 346T162 335T155 324L153 320Q150 317 138 317Q117 317 117 325Q117 330 120 339Q133 378 163 406T229 440Q241 442 246 442Q271 442 291 425T329 392T367 375Q389 375 411 408T434 441Q435 442 449 442H462Q468 436 468 434Q468 430 463 420T449 399T432 377T418 358L411 349Q368 298 275 214T160 106L148 94L163 93Q185 93 227 82T290 71Q328 71 360 90T402 140Q406 149 409 151T424 153Q443 153 443 143Q443 138 442 134Q425 72 376 31T278 -11Q252 -11 232 6T193 40T155 57Q111 57 76 -3Q70 -11 59 -11H54H41Q35 -5 35 -2Q35 13 93 84Q132 129 225 214T340 322Q352 338 347 338Z"/>
          <path id="prefigure-check-continuous6-MJX-3-TEX-N-29" d="M60 749L64 750Q69 750 74 750H86L114 726Q208 641 251 514T294 250Q294 182 284 119T261 12T224 -76T186 -143T145 -194T113 -227T90 -246Q87 -249 86 -250H74Q66 -250 63 -250T58 -247T55 -238Q56 -237 66 -225Q221 -64 221 250T66 725Q56 737 55 738Q55 746 60 749Z"/>
        </defs>
        <g stroke="currentColor" fill="currentColor" stroke-width="0" transform="scale(1,-1)">
          <g data-mml-node="math" data-semantic-type="appl" data-semantic-role="simple function" data-semantic-id="6" data-semantic-children="0,4" data-semantic-content="5,0" data-semantic-speech="">
            <g data-mml-node="mi" data-semantic-type="identifier" data-semantic-role="simple function" data-semantic-font="italic" data-semantic-id="0" data-semantic-parent="6" data-semantic-operator="appl" data-semantic-speech="">
              <use data-c="210E" xlink:href="#prefigure-check-continuous6-MJX-3-TEX-I-210E"/>
            </g>
            <g data-mml-node="mo" data-semantic-type="punctuation" data-semantic-role="application" data-semantic-id="5" data-semantic-parent="6" data-semantic-added="true" data-semantic-operator="appl" data-semantic-speech="" transform="translate(576,0)">
              <use data-c="2061" xlink:href="#prefigure-check-continuous6-MJX-3-TEX-N-2061"/>
            </g>
            <g data-mml-node="mrow" data-semantic-type="fenced" data-semantic-role="leftright" data-semantic-id="4" data-semantic-children="2" data-semantic-content="1,3" data-semantic-parent="6" data-semantic-speech="" transform="translate(576,0)">
              <g data-mml-node="mo" data-semantic-type="fence" data-semantic-role="open" data-semantic-id="1" data-semantic-parent="4" data-semantic-operator="fenced" data-semantic-speech="">
                <use data-c="28" xlink:href="#prefigure-check-continuous6-MJX-3-TEX-N-28"/>
              </g>
              <g data-mml-node="mi" data-semantic-type="identifier" data-semantic-role="latinletter" data-semantic-font="italic" data-semantic-id="2" data-semantic-parent="4" data-semantic-speech="" transform="translate(389,0)">
                <use data-c="1D467" xlink:href="#prefigure-check-continuous6-MJX-3-TEX-I-1D467"/>
              </g>
              <g data-mml-node="mo" data-semantic-type="fence" data-semantic-role="close" data-semantic-id="3" data-semantic-parent="4" data-semantic-operator="fenced" data-semantic-speech="" transform="translate(854,0)">
                <use data-c="29" xlink:href="#prefigure-check-continuous6-MJX-3-TEX-N-29"/>
              </g>
            </g>
          </g>
        </g>
      </svg>
    </g>
  </g>
  <g id="prefigure-check-continuous6-__label-2" transform="translate(5.0,166.0) translate(-7.5,-0.0)">
    <g id="prefigure-check-continuous6-__g-4">
      <svg xmlns:xlink="http://www.w3.org/1999/xlink" style="vertical-align: 0.000px" width="15.080px" height="12.056px" role="img" focusable="false" viewBox="0 -666 833 666" x="0.0" y="0.0">
        <defs>
          <path id="prefigure-check-continuous6-MJX-4-TEX-N-2D" d="M11 179V252H277V179H11Z"/>
          <path id="prefigure-check-continuous6-MJX-4-TEX-N-32" d="M109 429Q82 429 66 447T50 491Q50 562 103 614T235 666Q326 666 387 610T449 465Q449 422 429 383T381 315T301 241Q265 210 201 149L142 93L218 92Q375 92 385 97Q392 99 409 186V189H449V186Q448 183 436 95T421 3V0H50V19V31Q50 38 56 46T86 81Q115 113 136 137Q145 147 170 174T204 211T233 244T261 278T284 308T305 340T320 369T333 401T340 431T343 464Q343 527 309 573T212 619Q179 619 154 602T119 569T109 550Q109 549 114 549Q132 549 151 535T170 489Q170 464 154 447T109 429Z"/>
        </defs>
        <g stroke="currentColor" fill="currentColor" stroke-width="0" transform="scale(1,-1)">
          <g data-mml-node="math">
            <g data-mml-node="mtext" data-semantic-type="text" data-semantic-role="unknown" data-semantic-font="normal" data-semantic-id="0" data-semantic-speech="">
              <use data-c="2D" xlink:href="#prefigure-check-continuous6-MJX-4-TEX-N-2D"/>
              <use data-c="32" xlink:href="#prefigure-check-continuous6-MJX-4-TEX-N-32" transform="translate(333,0)"/>
            </g>
          </g>
        </g>
      </svg>
    </g>
  </g>
  <g id="prefigure-check-continuous6-__label-3" transform="translate(80.0,166.0) translate(-7.5,-0.0)">
    <g id="prefigure-check-continuous6-__g-5">
      <svg xmlns:xlink="http://www.w3.org/1999/xlink" style="vertical-align: 0.000px" width="15.080px" height="12.056px" role="img" focusable="false" viewBox="0 -666 833 666" x="0.0" y="0.0">
        <defs>
          <path id="prefigure-check-continuous6-MJX-5-TEX-N-2D" d="M11 179V252H277V179H11Z"/>
          <path id="prefigure-check-continuous6-MJX-5-TEX-N-31" d="M213 578L200 573Q186 568 160 563T102 556H83V602H102Q149 604 189 617T245 641T273 663Q275 666 285 666Q294 666 302 660V361L303 61Q310 54 315 52T339 48T401 46H427V0H416Q395 3 257 3Q121 3 100 0H88V46H114Q136 46 152 46T177 47T193 50T201 52T207 57T213 61V578Z"/>
        </defs>
        <g stroke="currentColor" fill="currentColor" stroke-width="0" transform="scale(1,-1)">
          <g data-mml-node="math">
            <g data-mml-node="mtext" data-semantic-type="text" data-semantic-role="unknown" data-semantic-font="normal" data-semantic-id="0" data-semantic-speech="">
              <use data-c="2D" xlink:href="#prefigure-check-continuous6-MJX-5-TEX-N-2D"/>
              <use data-c="31" xlink:href="#prefigure-check-continuous6-MJX-5-TEX-N-31" transform="translate(333,0)"/>
            </g>
          </g>
        </g>
      </svg>
    </g>
  </g>
  <g id="prefigure-check-continuous6-__label-4" transform="translate(230.0,166.0) translate(-4.5,-0.0)">
    <g id="prefigure-check-continuous6-__g-6">
      <svg xmlns:xlink="http://www.w3.org/1999/xlink" style="vertical-align: 0.000px" width="9.048px" height="12.056px" role="img" focusable="false" viewBox="0 -666 500 666" x="0.0" y="0.0">
        <defs>
          <path id="prefigure-check-continuous6-MJX-6-TEX-N-31" d="M213 578L200 573Q186 568 160 563T102 556H83V602H102Q149 604 189 617T245 641T273 663Q275 666 285 666Q294 666 302 660V361L303 61Q310 54 315 52T339 48T401 46H427V0H416Q395 3 257 3Q121 3 100 0H88V46H114Q136 46 152 46T177 47T193 50T201 52T207 57T213 61V578Z"/>
        </defs>
        <g stroke="currentColor" fill="currentColor" stroke-width="0" transform="scale(1,-1)">
          <g data-mml-node="math">
            <g data-mml-node="mtext" data-semantic-type="text" data-semantic-role="integer" data-semantic-font="normal" data-semantic-id="0" data-semantic-speech="">
              <use data-c="31" xlink:href="#prefigure-check-continuous6-MJX-6-TEX-N-31"/>
            </g>
          </g>
        </g>
      </svg>
    </g>
  </g>
  <g id="prefigure-check-continuous6-__label-5" transform="translate(305.0,166.0) translate(-4.5,-0.0)">
    <g id="prefigure-check-continuous6-__g-7">
      <svg xmlns:xlink="http://www.w3.org/1999/xlink" style="vertical-align: 0.000px" width="9.048px" height="12.056px" role="img" focusable="false" viewBox="0 -666 500 666" x="0.0" y="0.0">
        <defs>
          <path id="prefigure-check-continuous6-MJX-7-TEX-N-32" d="M109 429Q82 429 66 447T50 491Q50 562 103 614T235 666Q326 666 387 610T449 465Q449 422 429 383T381 315T301 241Q265 210 201 149L142 93L218 92Q375 92 385 97Q392 99 409 186V189H449V186Q448 183 436 95T421 3V0H50V19V31Q50 38 56 46T86 81Q115 113 136 137Q145 147 170 174T204 211T233 244T261 278T284 308T305 340T320 369T333 401T340 431T343 464Q343 527 309 573T212 619Q179 619 154 602T119 569T109 550Q109 549 114 549Q132 549 151 535T170 489Q170 464 154 447T109 429Z"/>
        </defs>
        <g stroke="currentColor" fill="currentColor" stroke-width="0" transform="scale(1,-1)">
          <g data-mml-node="math">
            <g data-mml-node="mtext" data-semantic-type="text" data-semantic-role="integer" data-semantic-font="normal" data-semantic-id="0" data-semantic-speech="">
              <use data-c="32" xlink:href="#prefigure-check-continuous6-MJX-7-TEX-N-32"/>
            </g>
          </g>
        </g>
      </svg>
    </g>
  </g>
  <g id="prefigure-check-continuous6-__label-6" transform="translate(144.0,291.4) translate(-15.1,-6.0)">
    <g id="prefigure-check-continuous6-__g-8">
      <svg xmlns:xlink="http://www.w3.org/1999/xlink" style="vertical-align: 0.000px" width="15.080px" height="12.056px" role="img" focusable="false" viewBox="0 -666 833 666" x="0.0" y="0.0">
        <defs>
          <path id="prefigure-check-continuous6-MJX-8-TEX-N-2D" d="M11 179V252H277V179H11Z"/>
          <path id="prefigure-check-continuous6-MJX-8-TEX-N-31" d="M213 578L200 573Q186 568 160 563T102 556H83V602H102Q149 604 189 617T245 641T273 663Q275 666 285 666Q294 666 302 660V361L303 61Q310 54 315 52T339 48T401 46H427V0H416Q395 3 257 3Q121 3 100 0H88V46H114Q136 46 152 46T177 47T193 50T201 52T207 57T213 61V578Z"/>
        </defs>
        <g stroke="currentColor" fill="currentColor" stroke-width="0" transform="scale(1,-1)">
          <g data-mml-node="math">
            <g data-mml-node="mtext" data-semantic-type="text" data-semantic-role="unknown" data-semantic-font="normal" data-semantic-id="0" data-semantic-speech="">
              <use data-c="2D" xlink:href="#prefigure-check-continuous6-MJX-8-TEX-N-2D"/>
              <use data-c="31" xlink:href="#prefigure-check-continuous6-MJX-8-TEX-N-31" transform="translate(333,0)"/>
            </g>
          </g>
        </g>
      </svg>
    </g>
  </g>
  <g id="prefigure-check-continuous6-__label-7" transform="translate(144.0,223.2) translate(-29.2,-6.2)">
    <g id="prefigure-check-continuous6-__g-9">
      <svg xmlns:xlink="http://www.w3.org/1999/xlink" style="vertical-align: -0.400px" width="29.160px" height="12.456px" role="img" focusable="false" viewBox="0 -666 1611 688" x="0.0" y="0.0">
        <defs>
          <path id="prefigure-check-continuous6-MJX-9-TEX-N-2D" d="M11 179V252H277V179H11Z"/>
          <path id="prefigure-check-continuous6-MJX-9-TEX-N-30" d="M96 585Q152 666 249 666Q297 666 345 640T423 548Q460 465 460 320Q460 165 417 83Q397 41 362 16T301 -15T250 -22Q224 -22 198 -16T137 16T82 83Q39 165 39 320Q39 494 96 585ZM321 597Q291 629 250 629Q208 629 178 597Q153 571 145 525T137 333Q137 175 145 125T181 46Q209 16 250 16Q290 16 318 46Q347 76 354 130T362 333Q362 478 354 524T321 597Z"/>
          <path id="prefigure-check-continuous6-MJX-9-TEX-N-2E" d="M78 60Q78 84 95 102T138 120Q162 120 180 104T199 61Q199 36 182 18T139 0T96 17T78 60Z"/>
          <path id="prefigure-check-continuous6-MJX-9-TEX-N-35" d="M164 157Q164 133 148 117T109 101H102Q148 22 224 22Q294 22 326 82Q345 115 345 210Q345 313 318 349Q292 382 260 382H254Q176 382 136 314Q132 307 129 306T114 304Q97 304 95 310Q93 314 93 485V614Q93 664 98 664Q100 666 102 666Q103 666 123 658T178 642T253 634Q324 634 389 662Q397 666 402 666Q410 666 410 648V635Q328 538 205 538Q174 538 149 544L139 546V374Q158 388 169 396T205 412T256 420Q337 420 393 355T449 201Q449 109 385 44T229 -22Q148 -22 99 32T50 154Q50 178 61 192T84 210T107 214Q132 214 148 197T164 157Z"/>
        </defs>
        <g stroke="currentColor" fill="currentColor" stroke-width="0" transform="scale(1,-1)">
          <g data-mml-node="math">
            <g data-mml-node="mtext" data-semantic-type="text" data-semantic-role="unknown" data-semantic-font="normal" data-semantic-id="0" data-semantic-speech="">
              <use data-c="2D" xlink:href="#prefigure-check-continuous6-MJX-9-TEX-N-2D"/>
              <use data-c="30" xlink:href="#prefigure-check-continuous6-MJX-9-TEX-N-30" transform="translate(333,0)"/>
              <use data-c="2E" xlink:href="#prefigure-check-continuous6-MJX-9-TEX-N-2E" transform="translate(833,0)"/>
              <use data-c="35" xlink:href="#prefigure-check-continuous6-MJX-9-TEX-N-35" transform="translate(1111,0)"/>
            </g>
          </g>
        </g>
      </svg>
    </g>
  </g>
  <g id="prefigure-check-continuous6-__label-8" transform="translate(144.0,86.8) translate(-23.1,-6.2)">
    <g id="prefigure-check-continuous6-__g-10">
      <svg xmlns:xlink="http://www.w3.org/1999/xlink" style="vertical-align: -0.400px" width="23.128px" height="12.456px" role="img" focusable="false" viewBox="0 -666 1278 688" x="0.0" y="0.0">
        <defs>
          <path id="prefigure-check-continuous6-MJX-10-TEX-N-30" d="M96 585Q152 666 249 666Q297 666 345 640T423 548Q460 465 460 320Q460 165 417 83Q397 41 362 16T301 -15T250 -22Q224 -22 198 -16T137 16T82 83Q39 165 39 320Q39 494 96 585ZM321 597Q291 629 250 629Q208 629 178 597Q153 571 145 525T137 333Q137 175 145 125T181 46Q209 16 250 16Q290 16 318 46Q347 76 354 130T362 333Q362 478 354 524T321 597Z"/>
          <path id="prefigure-check-continuous6-MJX-10-TEX-N-2E" d="M78 60Q78 84 95 102T138 120Q162 120 180 104T199 61Q199 36 182 18T139 0T96 17T78 60Z"/>
          <path id="prefigure-check-continuous6-MJX-10-TEX-N-35" d="M164 157Q164 133 148 117T109 101H102Q148 22 224 22Q294 22 326 82Q345 115 345 210Q345 313 318 349Q292 382 260 382H254Q176 382 136 314Q132 307 129 306T114 304Q97 304 95 310Q93 314 93 485V614Q93 664 98 664Q100 666 102 666Q103 666 123 658T178 642T253 634Q324 634 389 662Q397 666 402 666Q410 666 410 648V635Q328 538 205 538Q174 538 149 544L139 546V374Q158 388 169 396T205 412T256 420Q337 420 393 355T449 201Q449 109 385 44T229 -22Q148 -22 99 32T50 154Q50 178 61 192T84 210T107 214Q132 214 148 197T164 157Z"/>
        </defs>
        <g stroke="currentColor" fill="currentColor" stroke-width="0" transform="scale(1,-1)">
          <g data-mml-node="math">
            <g data-mml-node="mtext" data-semantic-type="text" data-semantic-role="unknown" data-semantic-font="normal" data-semantic-id="0" data-semantic-speech="">
              <use data-c="30" xlink:href="#prefigure-check-continuous6-MJX-10-TEX-N-30"/>
              <use data-c="2E" xlink:href="#prefigure-check-continuous6-MJX-10-TEX-N-2E" transform="translate(500,0)"/>
              <use data-c="35" xlink:href="#prefigure-check-continuous6-MJX-10-TEX-N-35" transform="translate(778,0)"/>
            </g>
          </g>
        </g>
      </svg>
    </g>
  </g>
  <g id="prefigure-check-continuous6-__label-9" transform="translate(144.0,18.6) translate(-9.0,-6.0)">
    <g id="prefigure-check-continuous6-__g-11">
      <svg xmlns:xlink="http://www.w3.org/1999/xlink" style="vertical-align: 0.000px" width="9.048px" height="12.056px" role="img" focusable="false" viewBox="0 -666 500 666" x="0.0" y="0.0">
        <defs>
          <path id="prefigure-check-continuous6-MJX-11-TEX-N-31" d="M213 578L200 573Q186 568 160 563T102 556H83V602H102Q149 604 189 617T245 641T273 663Q275 666 285 666Q294 666 302 660V361L303 61Q310 54 315 52T339 48T401 46H427V0H416Q395 3 257 3Q121 3 100 0H88V46H114Q136 46 152 46T177 47T193 50T201 52T207 57T213 61V578Z"/>
        </defs>
        <g stroke="currentColor" fill="currentColor" stroke-width="0" transform="scale(1,-1)">
          <g data-mml-node="math">
            <g data-mml-node="mtext" data-semantic-type="text" data-semantic-role="integer" data-semantic-font="normal" data-semantic-id="0" data-semantic-speech="">
              <use data-c="31" xlink:href="#prefigure-check-continuous6-MJX-11-TEX-N-31"/>
            </g>
          </g>
        </g>
      </svg>
    </g>
  </g>
  <line id="prefigure-check-continuous6-seg1" x1="8.0" y1="291.4" x2="152.0" y2="291.4" stroke="lightgreen" stroke-width="2" fill="none"/>
  <line id="prefigure-check-continuous6-seg2" x1="158.0" y1="18.6" x2="302.0" y2="18.6" stroke="lightgreen" stroke-width="2" fill="none"/>
  <circle id="prefigure-check-continuous6-__circle-0" cx="155.0" cy="291.4" r="4" stroke="black" stroke-width="1" fill="none"/>
  <circle id="prefigure-check-continuous6-point" cx="155.0" cy="155.0" r="4" stroke="black" stroke-width="1" fill="lightgreen"/>
  <circle id="prefigure-check-continuous6-__circle-1" cx="155.0" cy="18.6" r="4" stroke="black" stroke-width="1" fill="none"/>
</svg>
