<?xml version="1.0" encoding="UTF-8" standalone="no"?>
<svg
   xmlns:dc="http://purl.org/dc/elements/1.1/"
   xmlns:cc="http://creativecommons.org/ns#"
   xmlns:rdf="http://www.w3.org/1999/02/22-rdf-syntax-ns#"
   xmlns:svg="http://www.w3.org/2000/svg"
   xmlns="http://www.w3.org/2000/svg"
   xmlns:sodipodi="http://sodipodi.sourceforge.net/DTD/sodipodi-0.dtd"
   xmlns:inkscape="http://www.inkscape.org/namespaces/inkscape"
   style="font-style:normal;font-weight:normal;font-size:12px;font-family:Dialog;color-interpolation:auto;fill:#000000;fill-opacity:1;stroke:#000000;stroke-width:1;stroke-linecap:square;stroke-linejoin:miter;stroke-miterlimit:10;stroke-dasharray:none;stroke-dashoffset:0;stroke-opacity:1;color-rendering:auto;image-rendering:auto;shape-rendering:auto;text-rendering:auto"
   contentScriptType="text/ecmascript"
   preserveAspectRatio="xMidYMid meet"
   zoomAndPan="magnify"
   version="1.0"
   contentStyleType="text/css"
   id="svg320"
   sodipodi:docname="continuity6.svg"
   inkscape:version="0.92.3 (2405546, 2018-03-11)"
   width="100"
   height="60">
  <metadata
     id="metadata324">
    <rdf:RDF>
      <cc:Work
         rdf:about="">
        <dc:format>image/svg+xml</dc:format>
        <dc:type
           rdf:resource="http://purl.org/dc/dcmitype/StillImage" />
        <dc:title></dc:title>
      </cc:Work>
    </rdf:RDF>
  </metadata>
  <sodipodi:namedview
     pagecolor="#ffffff"
     bordercolor="#666666"
     borderopacity="1"
     objecttolerance="10"
     gridtolerance="10"
     guidetolerance="10"
     inkscape:pageopacity="0"
     inkscape:pageshadow="2"
     inkscape:window-width="2560"
     inkscape:window-height="1346"
     id="namedview322"
     showgrid="false"
     inkscape:zoom="9.44"
     inkscape:cx="50"
     inkscape:cy="47.286324"
     inkscape:window-x="-11"
     inkscape:window-y="-11"
     inkscape:window-maximized="1"
     inkscape:current-layer="svg320" />
  <!--Generated by the Batik Graphics2D SVG Generator-->
  <defs
     id="genericDefs">
    <defs
       id="defs1">
      <clipPath
         id="clipPath1"
         clipPathUnits="userSpaceOnUse">
        <path
           inkscape:connector-curvature="0"
           id="path3"
           d="M 0,0 H 390 V 390 H 0 Z" />
      </clipPath>
      <clipPath
         id="clipPath2"
         clipPathUnits="userSpaceOnUse">
        <path
           inkscape:connector-curvature="0"
           id="path6"
           d="M 22,2.0052 V 387 H 375.9618 V 2.0052 Z" />
      </clipPath>
      <clipPath
         id="clipPath3"
         clipPathUnits="userSpaceOnUse">
        <path
           inkscape:connector-curvature="0"
           id="path9"
           d="M 20,0.0052 V 389 H 377.9618 V 0.0052 Z" />
      </clipPath>
      <clipPath
         id="clipPath4"
         clipPathUnits="userSpaceOnUse">
        <path
           inkscape:connector-curvature="0"
           id="path12"
           d="m 278,256 v 15 h 17 v -15 z" />
      </clipPath>
      <clipPath
         id="clipPath5"
         clipPathUnits="userSpaceOnUse">
        <path
           inkscape:connector-curvature="0"
           id="path15"
           d="M 6,5 H 396 V 395 H 6 Z" />
      </clipPath>
      <clipPath
         id="clipPath6"
         clipPathUnits="userSpaceOnUse">
        <path
           inkscape:connector-curvature="0"
           id="path18"
           d="m 9,212 v 21 h 11 v -21 z" />
      </clipPath>
      <clipPath
         id="clipPath7"
         clipPathUnits="userSpaceOnUse">
        <path
           inkscape:connector-curvature="0"
           id="path21"
           d="m 104,212 v 21 h 11 v -21 z" />
      </clipPath>
      <clipPath
         id="clipPath8"
         clipPathUnits="userSpaceOnUse">
        <path
           inkscape:connector-curvature="0"
           id="path24"
           d="m 156,349 v 21 h 11 v -21 z" />
      </clipPath>
      <clipPath
         id="clipPath9"
         clipPathUnits="userSpaceOnUse">
        <path
           inkscape:connector-curvature="0"
           id="path27"
           d="m 156,296 v 21 h 11 v -21 z" />
      </clipPath>
      <clipPath
         id="clipPath10"
         clipPathUnits="userSpaceOnUse">
        <path
           inkscape:connector-curvature="0"
           id="path30"
           d="m 156,243 v 21 h 11 v -21 z" />
      </clipPath>
    </defs>
  </defs>
  <g
     id="g1434"
     transform="matrix(0.60428546,0,0,0.60428546,19.674854,23.946751)">
    <g
       style="font-size:16px;font-family:'Times New Roman';color-interpolation:linearRGB;fill:#00ff00;stroke:#00ff00;stroke-width:1.5;stroke-linecap:butt;stroke-linejoin:round;color-rendering:optimizeQuality;image-rendering:optimizeQuality;text-rendering:optimizeLegibility"
       transform="matrix(0.25199604,0,0,0.25199604,0.95114918,-39.35354)"
       id="g42">
      <path
         d="m 23,195.0018 1.8452,-0.0925 1.6055,-0.2337 1.8056,-0.4375 1.8175,-0.6311 1.8089,-0.8216 1.6771,-0.9368 1.7365,-1.1496 1.796,-1.3825 1.7901,-1.5752 1.8414,-1.8261 1.6219,-1.781 1.8259,-2.1977 1.8333,-2.4103 1.7668,-2.5137 1.6044,-2.4427 1.9079,-3.0991 1.6161,-2.7873 1.88,-3.424 1.6641,-3.1891 1.8258,-3.6638 1.7386,-3.6429 1.814,-3.9536 1.6658,-3.7611 1.7969,-4.1885 1.8664,-4.4858 1.6247,-4.0085 1.7547,-4.4284 1.8128,-4.6727 1.7735,-4.6561 1.7159,-4.5744 1.9053,-5.1456 1.7119,-4.6716 1.8279,-5.0248 1.6564,-4.5747 1.8108,-5.0117 1.7038,-4.7132 1.781,-4.9109 1.7412,-4.7726 1.8229,-4.9517 1.7557,-4.712 1.7955,-4.7464 1.7805,-4.6206 1.6362,-4.1579 1.8752,-4.6473 1.6773,-4.037 1.7882,-4.1664 1.7116,-3.842 1.9006,-4.0844 1.6457,-3.3705 1.8679,-3.6251 1.7024,-3.1066 1.8621,-3.1699 1.6067,-2.5335 1.8299,-2.647 1.7675,-2.3054 1.7664,-2.0471 1.7599,-1.7748 1.6907,-1.4483 1.8277,-1.2741 1.742,-0.925 1.8333,-0.6613 1.6596,-0.3169 1.8341,-0.033 1.7568,0.2853 1.7525,0.5974 1.8305,0.9612 1.686,1.1922 1.7267,1.5276 1.9064,2.048 1.7261,2.1813 1.7653,2.5516 1.7953,2.9258 1.6502,2.9816 1.759,3.4834 1.7457,3.7643 1.8673,4.3604 1.6478,4.1292 1.9012,5.085 1.7158,4.8766 1.6976,5.0865 1.8255,5.7509 1.8328,6.0573 1.6677,5.7482 1.7709,6.3412 1.7283,6.4129 1.8735,7.189 1.6211,6.4085 1.8618,7.5619 1.7503,7.2915 1.7333,7.3821 1.7348,7.5345 1.7693,7.8211 1.8754,8.4236 1.7196,7.8288 1.6975,7.8117 1.8145,8.4265 1.8106,8.469 1.6252,7.6386 1.9251,9.0756 1.6108,7.6018 1.884,8.8823 1.7981,8.4506 1.6056,7.5089 1.8055,8.3874 1.8176,8.365 1.8089,8.2302 1.677,7.5308 1.7366,7.682 1.7959,7.8058 1.7901,7.6246 1.8414,7.6644 1.6219,6.5883 1.8259,7.2211 1.8334,7.028 1.7668,6.5487 1.6044,5.746 1.9078,6.5717 1.6161,5.3358 1.88,5.9293 1.6641,4.9906 1.8258,5.1881 1.7386,4.653 1.814,4.5486 1.6659,3.8957 1.7968,3.8943 1.8664,3.7018 1.6247,2.9338 1.7547,2.8639 1.8128,2.6238 1.7735,2.236 1.716,1.851 1.9052,1.6954 1.7119,1.2011 1.8279,0.9476 1.6564,0.562 1.8108,0.2951 1.7038,-0.0233 1.781,-0.3315 1.7412,-0.6225 1.8229,-0.9613 1.7557,-1.2183 1.7955,-1.535 1.7806,-1.8025 1.6361,-1.8948 1.8752,-2.4425 1.6773,-2.4205 1.7883,-2.8158 1.7115,-2.912 1.9006,-3.4693 1.6457,-3.1937 1.8679,-3.8252 1.7024,-3.6596 1.8621,-4.1785 1.6067,-3.7412 1.8299,-4.4009 1.7675,-4.3791 1.7664,-4.4881 1.7599,-4.5693 1.6908,-4.4688 1.8276,-4.9039 1.742,-4.7307 1.8333,-5.0242 1.6596,-4.5756 1.8341,-5.0734 1.7568,-4.8622 1.7525,-4.8402 1.8305,-5.0309 1.686,-4.5995 1.7267,-4.6649 1.9064,-5.0838 1.7262,-4.5307 1.7652,-4.5511 1.7953,-4.5319 1.6502,-4.0708 1.759,-4.2298 1.7457,-4.0772 1.8673,-4.2186 1.6478,-3.5928 1.9013,-3.9853 1.7157,-3.4424 1.6976,-3.256 1.8255,-3.3289 1.8328,-3.1568 1.6677,-2.7064 1.7709,-2.6971 1.7284,-2.4532 1.8734,-2.4567 1.6211,-1.9538 1.8619,-2.0455 1.7502,-1.7285 1.7333,-1.5262 1.7348,-1.3426 1.7693,-1.1799 1.8754,-1.0438 1.7196,-0.7719 1.6975,-0.591 1.8146,-0.4471 1.8106,-0.2601 1.7071,-0.0791"
         style="fill:none"
         clip-path="url(#clipPath3)"
         id="path40"
         inkscape:connector-curvature="0" />
    </g>
    <g
       transform="matrix(0.25199604,0,0,0.25199604,0.95114918,-39.35354)"
       style="font-size:16px;font-family:'Times New Roman';color-interpolation:linearRGB;color-rendering:optimizeQuality;image-rendering:optimizeQuality;text-rendering:optimizeLegibility"
       id="g54">
      <path
         d="m 23,195.0018 v 4"
         style="fill:none"
         clip-path="url(#clipPath1)"
         id="path52"
         inkscape:connector-curvature="0" />
    </g>
    <g
       transform="matrix(0.25199604,0,0,0.25199604,-0.56082706,-40.613521)"
       style="font-size:16px;font-family:'Times New Roman';color-interpolation:linearRGB;color-rendering:optimizeQuality;image-rendering:optimizeQuality;text-rendering:optimizeLegibility"
       id="g58">
      <path
         d="m 26.4375,223.25 h -13.875 v -1.0938 h 13.875 z"
         style="stroke:none"
         clip-path="url(#clipPath6)"
         id="path56"
         inkscape:connector-curvature="0" />
    </g>
    <g
       transform="matrix(0.25199604,0,0,0.25199604,-0.56082706,-40.613521)"
       style="font-size:16px;font-family:'Times New Roman';color-interpolation:linearRGB;color-rendering:optimizeQuality;image-rendering:optimizeQuality;text-rendering:optimizeLegibility"
       id="g64">
      <path
         d="M 32.625,226.3281 31.6562,229 h -8.2031 v -0.375 q 3.625,-3.3125 5.1016,-5.3984 1.4765,-2.086 1.4765,-3.8204 0,-1.3281 -0.8124,-2.1796 -0.8126,-0.8516 -1.9376,-0.8516 -1.0312,0 -1.8437,0.6016 -0.8125,0.6015 -1.2031,1.7578 h -0.3906 q 0.2656,-1.8906 1.3281,-2.9063 1.0625,-1.0156 2.6406,-1.0156 1.7031,0 2.8359,1.0859 1.1328,1.086 1.1328,2.5547 0,1.0625 -0.5,2.125 -0.75,1.6563 -2.4531,3.5157 -2.5625,2.7812 -3.1875,3.3593 h 3.625 q 1.1094,0 1.5547,-0.0859 0.4453,-0.086 0.8047,-0.336 0.3594,-0.25 0.625,-0.7031 z"
         style="stroke:none"
         clip-path="url(#clipPath5)"
         id="path60"
         inkscape:connector-curvature="0" />
      <path
         d="m 49.125,225.8281 q 0,0.6094 -0.1641,1.2422 -0.164,0.6328 -0.4843,1.1328 -0.3204,0.5 -0.7891,0.8203 -0.4687,0.3204 -1.0781,0.3204 -0.5938,0 -1.0703,-0.5079 -0.4766,-0.5078 -0.7735,-1.5234 -0.0468,-0.1406 -0.0781,-0.3672 -0.0313,-0.2265 -0.0547,-0.4844 -0.0234,-0.2578 -0.0312,-0.5 -0.0078,-0.2421 -0.0078,-0.3984 0,-1.2031 0.1718,-2.4609 0.1719,-1.2578 0.2656,-2.5235 h -2.375 q -0.2031,2.3594 -0.414,3.9766 -0.211,1.6172 -0.4453,2.8984 -0.0625,0.3281 -0.125,0.625 -0.0625,0.2969 -0.1719,0.5 -0.2188,0.4844 -0.5547,0.6563 -0.3359,0.1718 -0.6328,0.1718 -0.4844,0 -0.7969,-0.3515 -0.3125,-0.3516 -0.3125,-0.7422 0,-0.4531 0.2266,-0.7422 0.2265,-0.2891 0.5234,-0.6484 0.2657,-0.3125 0.5078,-0.6641 0.2422,-0.3516 0.3047,-0.8672 l 0.6094,-4.8125 h -0.9844 q -0.3281,0 -0.7265,0.1719 -0.3985,0.1719 -0.6797,0.5469 l -0.4219,0.6093 h -0.3594 q 0.4688,-1.4687 1.1641,-2.3046 0.6953,-0.836 1.8203,-0.836 h 7.7813 v 1.8125 h -2.6563 q -0.0625,0.6094 -0.1172,1.2813 -0.0547,0.6718 -0.0859,1.3359 -0.0313,0.6641 -0.0391,1.25 -0.0078,0.5859 -0.0078,1.0078 0,0.3594 0.0781,0.7031 0.0782,0.3438 0.2422,0.6172 0.1641,0.2735 0.4297,0.4532 0.2656,0.1796 0.6406,0.1796 0.2344,0 0.5469,-0.1718 0.3125,-0.1719 0.5,-0.5469 0.0781,-0.1719 0.1094,-0.3906 0.0312,-0.2188 0.0625,-0.4688 z"
         style="stroke:none"
         clip-path="url(#clipPath5)"
         id="path62"
         inkscape:connector-curvature="0" />
    </g>
    <g
       transform="matrix(0.25199604,0,0,0.25199604,0.95114918,-39.35354)"
       style="font-size:16px;font-family:'Times New Roman';color-interpolation:linearRGB;color-rendering:optimizeQuality;image-rendering:optimizeQuality;text-rendering:optimizeLegibility"
       id="g68">
      <path
         d="m 66.8702,195.0018 v 4"
         style="fill:none"
         clip-path="url(#clipPath1)"
         id="path66"
         inkscape:connector-curvature="0" />
    </g>
    <g
       transform="matrix(0.25199604,0,0,0.25199604,0.95114918,-39.35354)"
       style="font-size:16px;font-family:'Times New Roman';color-interpolation:linearRGB;color-rendering:optimizeQuality;image-rendering:optimizeQuality;text-rendering:optimizeLegibility"
       id="g72">
      <path
         d="m 110.7404,195.0018 v 4"
         style="fill:none"
         clip-path="url(#clipPath1)"
         id="path70"
         inkscape:connector-curvature="0" />
    </g>
    <g
       transform="matrix(0.25199604,0,0,0.25199604,-0.56082706,-40.613521)"
       style="font-size:16px;font-family:'Times New Roman';color-interpolation:linearRGB;color-rendering:optimizeQuality;image-rendering:optimizeQuality;text-rendering:optimizeLegibility"
       id="g76">
      <path
         d="m 121.4375,223.25 h -13.875 v -1.0938 h 13.875 z"
         style="stroke:none"
         clip-path="url(#clipPath7)"
         id="path74"
         inkscape:connector-curvature="0" />
    </g>
    <g
       transform="matrix(0.25199604,0,0,0.25199604,-0.56082706,-40.613521)"
       style="font-size:16px;font-family:'Times New Roman';color-interpolation:linearRGB;color-rendering:optimizeQuality;image-rendering:optimizeQuality;text-rendering:optimizeLegibility"
       id="g80">
      <path
         d="m 129.125,225.8281 q 0,0.6094 -0.1641,1.2422 -0.164,0.6328 -0.4843,1.1328 -0.3204,0.5 -0.7891,0.8203 -0.4687,0.3204 -1.0781,0.3204 -0.5938,0 -1.0703,-0.5079 -0.4766,-0.5078 -0.7735,-1.5234 -0.0468,-0.1406 -0.0781,-0.3672 -0.0313,-0.2265 -0.0547,-0.4844 -0.0234,-0.2578 -0.0312,-0.5 -0.008,-0.2421 -0.008,-0.3984 0,-1.2031 0.1718,-2.4609 0.1719,-1.2578 0.2656,-2.5235 h -2.375 q -0.2031,2.3594 -0.414,3.9766 -0.211,1.6172 -0.4453,2.8984 -0.0625,0.3281 -0.125,0.625 -0.0625,0.2969 -0.1719,0.5 -0.2188,0.4844 -0.5547,0.6563 -0.3359,0.1718 -0.6328,0.1718 -0.4844,0 -0.7969,-0.3515 -0.3125,-0.3516 -0.3125,-0.7422 0,-0.4531 0.2266,-0.7422 0.2265,-0.2891 0.5234,-0.6484 0.2657,-0.3125 0.5078,-0.6641 0.2422,-0.3516 0.3047,-0.8672 l 0.6094,-4.8125 h -0.9844 q -0.3281,0 -0.7265,0.1719 -0.3985,0.1719 -0.6797,0.5469 l -0.4219,0.6093 h -0.3594 q 0.4688,-1.4687 1.1641,-2.3046 0.6953,-0.836 1.8203,-0.836 h 7.7813 v 1.8125 h -2.6563 q -0.0625,0.6094 -0.1172,1.2813 -0.0547,0.6718 -0.0859,1.3359 -0.0313,0.6641 -0.0391,1.25 -0.008,0.5859 -0.008,1.0078 0,0.3594 0.0781,0.7031 0.0782,0.3438 0.2422,0.6172 0.1641,0.2735 0.4297,0.4532 0.2656,0.1796 0.6406,0.1796 0.2344,0 0.5469,-0.1718 0.3125,-0.1719 0.5,-0.5469 0.0781,-0.1719 0.1094,-0.3906 0.0312,-0.2188 0.0625,-0.4688 h 0.4531 z"
         style="stroke:none"
         clip-path="url(#clipPath5)"
         id="path78"
         inkscape:connector-curvature="0" />
    </g>
    <g
       transform="matrix(0.25199604,0,0,0.25199604,0.95114918,-39.35354)"
       style="font-size:16px;font-family:'Times New Roman';color-interpolation:linearRGB;color-rendering:optimizeQuality;image-rendering:optimizeQuality;text-rendering:optimizeLegibility"
       id="g84">
      <path
         d="m 154.6107,195.0018 v 4"
         style="fill:none"
         clip-path="url(#clipPath1)"
         id="path82"
         inkscape:connector-curvature="0" />
    </g>
    <g
       transform="matrix(0.25199604,0,0,0.25199604,0.95114918,-39.35354)"
       style="font-size:16px;font-family:'Times New Roman';color-interpolation:linearRGB;color-rendering:optimizeQuality;image-rendering:optimizeQuality;text-rendering:optimizeLegibility"
       id="g90">
      <path
         d="m 198.4809,195.0018 v 4"
         style="fill:none"
         clip-path="url(#clipPath1)"
         id="path86"
         inkscape:connector-curvature="0" />
      <path
         d="m 190.7656,217.125 q 0,-2.375 0.711,-4.0938 0.7109,-1.7187 1.914,-2.5624 0.9219,-0.6563 1.9063,-0.6563 1.5937,0 2.8593,1.625 1.5938,2.0156 1.5938,5.4844 0,2.4062 -0.6953,4.1015 -0.6953,1.6954 -1.7813,2.461 -1.0859,0.7656 -2.0859,0.7656 -1.9844,0 -3.3125,-2.3594 -1.1094,-1.9687 -1.1094,-4.7656 z m 2,0.2656 q 0,2.8594 0.7032,4.6875 0.5937,1.5157 1.75,1.5157 0.5468,0 1.1484,-0.4922 0.6016,-0.4922 0.8984,-1.6641 0.4688,-1.7656 0.4688,-4.9687 0,-2.3907 -0.4844,-3.9688 -0.375,-1.1875 -0.9531,-1.6719 -0.4219,-0.3437 -1.0157,-0.3437 -0.7031,0 -1.2343,0.625 -0.75,0.8594 -1.0157,2.6797 -0.2656,1.8203 -0.2656,3.6015 z"
         style="stroke:none"
         transform="translate(-6,-5)"
         clip-path="url(#clipPath5)"
         id="path88"
         inkscape:connector-curvature="0" />
    </g>
    <g
       transform="matrix(0.25199604,0,0,0.25199604,0.95114918,-39.35354)"
       style="font-size:16px;font-family:'Times New Roman';color-interpolation:linearRGB;color-rendering:optimizeQuality;image-rendering:optimizeQuality;text-rendering:optimizeLegibility"
       id="g100">
      <path
         d="m 242.3511,195.0018 v 4"
         style="fill:none"
         clip-path="url(#clipPath1)"
         id="path92"
         inkscape:connector-curvature="0" />
      <path
         d="m 254.125,225.8281 q 0,0.6094 -0.1641,1.2422 -0.164,0.6328 -0.4843,1.1328 -0.3204,0.5 -0.7891,0.8203 -0.4687,0.3204 -1.0781,0.3204 -0.5938,0 -1.0703,-0.5079 -0.4766,-0.5078 -0.7735,-1.5234 -0.0468,-0.1406 -0.0781,-0.3672 -0.0313,-0.2265 -0.0547,-0.4844 -0.0234,-0.2578 -0.0312,-0.5 -0.008,-0.2421 -0.008,-0.3984 0,-1.2031 0.1718,-2.4609 0.1719,-1.2578 0.2656,-2.5235 h -2.375 q -0.2031,2.3594 -0.414,3.9766 -0.211,1.6172 -0.4453,2.8984 -0.0625,0.3281 -0.125,0.625 -0.0625,0.2969 -0.1719,0.5 -0.2188,0.4844 -0.5547,0.6563 -0.3359,0.1718 -0.6328,0.1718 -0.4844,0 -0.7969,-0.3515 -0.3125,-0.3516 -0.3125,-0.7422 0,-0.4531 0.2266,-0.7422 0.2265,-0.2891 0.5234,-0.6484 0.2657,-0.3125 0.5078,-0.6641 0.2422,-0.3516 0.3047,-0.8672 l 0.6094,-4.8125 h -0.9844 q -0.3281,0 -0.7265,0.1719 -0.3985,0.1719 -0.6797,0.5469 l -0.4219,0.6093 h -0.3594 q 0.4688,-1.4687 1.1641,-2.3046 0.6953,-0.836 1.8203,-0.836 h 7.7813 v 1.8125 h -2.6563 q -0.0625,0.6094 -0.1172,1.2813 -0.0547,0.6718 -0.0859,1.3359 -0.0313,0.6641 -0.0391,1.25 -0.008,0.5859 -0.008,1.0078 0,0.3594 0.0781,0.7031 0.0782,0.3438 0.2422,0.6172 0.1641,0.2735 0.4297,0.4532 0.2656,0.1796 0.6406,0.1796 0.2344,0 0.5469,-0.1718 0.3125,-0.1719 0.5,-0.5469 0.0781,-0.1719 0.1094,-0.3906 0.0312,-0.2188 0.0625,-0.4688 h 0.4531 z"
         style="stroke:none"
         transform="translate(-6,-5)"
         clip-path="url(#clipPath5)"
         id="path94"
         inkscape:connector-curvature="0" />
      <path
         d="M 252.625,254.3281 251.6562,257 h -8.2031 v -0.375 q 3.625,-3.3125 5.1016,-5.3984 1.4765,-2.086 1.4765,-3.8204 0,-1.3281 -0.8124,-2.1796 -0.8126,-0.8516 -1.9376,-0.8516 -1.0312,0 -1.8437,0.6016 -0.8125,0.6015 -1.2031,1.7578 h -0.3906 q 0.2656,-1.8906 1.3281,-2.9063 1.0625,-1.0156 2.6406,-1.0156 1.7031,0 2.8359,1.0859 1.1328,1.086 1.1328,2.5547 0,1.0625 -0.5,2.125 -0.75,1.6563 -2.4531,3.5157 -2.5625,2.7812 -3.1875,3.3593 h 3.625 q 1.1094,0 1.5547,-0.0859 0.4453,-0.086 0.8047,-0.336 0.3594,-0.25 0.625,-0.7031 z"
         style="stroke:none"
         transform="translate(-6,-5)"
         clip-path="url(#clipPath5)"
         id="path96"
         inkscape:connector-curvature="0" />
      <line
         transform="translate(-6,-5)"
         x1="238"
         x2="259"
         y1="236"
         style="fill:none"
         y2="236"
         clip-path="url(#clipPath5)"
         id="line98" />
    </g>
    <g
       transform="matrix(0.25199604,0,0,0.25199604,0.95114918,-39.35354)"
       style="font-size:16px;font-family:'Times New Roman';color-interpolation:linearRGB;color-rendering:optimizeQuality;image-rendering:optimizeQuality;text-rendering:optimizeLegibility"
       id="g106">
      <path
         d="m 286.2213,195.0018 v 4"
         style="fill:none"
         clip-path="url(#clipPath1)"
         id="path102"
         inkscape:connector-curvature="0" />
      <path
         d="m 298.125,225.8281 q 0,0.6094 -0.1641,1.2422 -0.164,0.6328 -0.4843,1.1328 -0.3204,0.5 -0.7891,0.8203 -0.4687,0.3204 -1.0781,0.3204 -0.5938,0 -1.0703,-0.5079 -0.4766,-0.5078 -0.7735,-1.5234 -0.0468,-0.1406 -0.0781,-0.3672 -0.0313,-0.2265 -0.0547,-0.4844 -0.0234,-0.2578 -0.0312,-0.5 -0.008,-0.2421 -0.008,-0.3984 0,-1.2031 0.1718,-2.4609 0.1719,-1.2578 0.2656,-2.5235 h -2.375 q -0.2031,2.3594 -0.414,3.9766 -0.211,1.6172 -0.4453,2.8984 -0.0625,0.3281 -0.125,0.625 -0.0625,0.2969 -0.1719,0.5 -0.2188,0.4844 -0.5547,0.6563 -0.3359,0.1718 -0.6328,0.1718 -0.4844,0 -0.7969,-0.3515 -0.3125,-0.3516 -0.3125,-0.7422 0,-0.4531 0.2266,-0.7422 0.2265,-0.2891 0.5234,-0.6484 0.2657,-0.3125 0.5078,-0.6641 0.2422,-0.3516 0.3047,-0.8672 l 0.6094,-4.8125 h -0.9844 q -0.3281,0 -0.7265,0.1719 -0.3985,0.1719 -0.6797,0.5469 l -0.4219,0.6093 h -0.3594 q 0.4688,-1.4687 1.1641,-2.3046 0.6953,-0.836 1.8203,-0.836 h 7.7813 v 1.8125 h -2.6563 q -0.0625,0.6094 -0.1172,1.2813 -0.0547,0.6718 -0.0859,1.3359 -0.0313,0.6641 -0.0391,1.25 -0.008,0.5859 -0.008,1.0078 0,0.3594 0.0781,0.7031 0.0782,0.3438 0.2422,0.6172 0.1641,0.2735 0.4297,0.4532 0.2656,0.1796 0.6406,0.1796 0.2344,0 0.5469,-0.1718 0.3125,-0.1719 0.5,-0.5469 0.0781,-0.1719 0.1094,-0.3906 0.0312,-0.2188 0.0625,-0.4688 h 0.4531 z"
         style="stroke:none"
         transform="translate(-6,-5)"
         clip-path="url(#clipPath5)"
         id="path104"
         inkscape:connector-curvature="0" />
    </g>
    <g
       transform="matrix(0.25199604,0,0,0.25199604,0.95114918,-39.35354)"
       style="font-size:16px;font-family:'Times New Roman';color-interpolation:linearRGB;color-rendering:optimizeQuality;image-rendering:optimizeQuality;text-rendering:optimizeLegibility"
       id="g118">
      <path
         d="m 330.0916,195.0018 v 4"
         style="fill:none"
         clip-path="url(#clipPath1)"
         id="path108"
         inkscape:connector-curvature="0" />
      <path
         d="m 324.0625,217.7344 q 0.5937,-1.3906 1.5,-2.1563 0.9063,-0.7656 2.2656,-0.7656 1.6719,0 2.5625,1.0781 0.6719,0.8125 0.6719,1.7344 0,1.5156 -1.9063,3.1406 1.2813,0.5 1.9376,1.4375 0.6562,0.9375 0.6562,2.1875 0,1.8125 -1.1406,3.125 -1.5,1.7344 -4.3438,1.7344 -1.4062,0 -1.914,-0.3516 -0.5078,-0.3515 -0.5078,-0.7422 0,-0.3124 0.2421,-0.5312 0.2422,-0.2188 0.586,-0.2188 0.25,0 0.5156,0.0782 0.1875,0.0468 0.7969,0.3672 0.6094,0.3203 0.8437,0.3828 0.3907,0.125 0.8125,0.125 1.0469,0 1.8203,-0.8125 0.7735,-0.8125 0.7735,-1.9219 0,-0.8125 -0.3594,-1.5781 -0.2656,-0.5781 -0.5781,-0.875 -0.4375,-0.4063 -1.211,-0.7422 -0.7734,-0.3359 -1.5703,-0.3359 h -0.3281 v -0.2969 q 0.8125,-0.1094 1.625,-0.5938 0.8125,-0.4843 1.1875,-1.1562 0.375,-0.6719 0.375,-1.4844 0,-1.0625 -0.6641,-1.7109 -0.664,-0.6485 -1.6484,-0.6485 -1.5937,0 -2.6563,1.7031 z"
         style="stroke:none"
         transform="translate(-6,-5)"
         clip-path="url(#clipPath5)"
         id="path110"
         inkscape:connector-curvature="0" />
      <path
         d="m 349.125,225.8281 q 0,0.6094 -0.1641,1.2422 -0.164,0.6328 -0.4843,1.1328 -0.3204,0.5 -0.7891,0.8203 -0.4687,0.3204 -1.0781,0.3204 -0.5938,0 -1.0703,-0.5079 -0.4766,-0.5078 -0.7735,-1.5234 -0.0468,-0.1406 -0.0781,-0.3672 -0.0313,-0.2265 -0.0547,-0.4844 -0.0234,-0.2578 -0.0312,-0.5 -0.008,-0.2421 -0.008,-0.3984 0,-1.2031 0.1718,-2.4609 0.1719,-1.2578 0.2656,-2.5235 h -2.375 q -0.2031,2.3594 -0.414,3.9766 -0.211,1.6172 -0.4453,2.8984 -0.0625,0.3281 -0.125,0.625 -0.0625,0.2969 -0.1719,0.5 -0.2188,0.4844 -0.5547,0.6563 -0.3359,0.1718 -0.6328,0.1718 -0.4844,0 -0.7969,-0.3515 -0.3125,-0.3516 -0.3125,-0.7422 0,-0.4531 0.2266,-0.7422 0.2265,-0.2891 0.5234,-0.6484 0.2657,-0.3125 0.5078,-0.6641 0.2422,-0.3516 0.3047,-0.8672 l 0.6094,-4.8125 h -0.9844 q -0.3281,0 -0.7265,0.1719 -0.3985,0.1719 -0.6797,0.5469 l -0.4219,0.6093 h -0.3594 q 0.4688,-1.4687 1.1641,-2.3046 0.6953,-0.836 1.8203,-0.836 h 7.7813 v 1.8125 h -2.6563 q -0.0625,0.6094 -0.1172,1.2813 -0.0547,0.6718 -0.0859,1.3359 -0.0313,0.6641 -0.0391,1.25 -0.008,0.5859 -0.008,1.0078 0,0.3594 0.0781,0.7031 0.0782,0.3438 0.2422,0.6172 0.1641,0.2735 0.4297,0.4532 0.2656,0.1796 0.6406,0.1796 0.2344,0 0.5469,-0.1718 0.3125,-0.1719 0.5,-0.5469 0.0781,-0.1719 0.1094,-0.3906 0.0312,-0.2188 0.0625,-0.4688 h 0.4531 z"
         style="stroke:none"
         transform="translate(-6,-5)"
         clip-path="url(#clipPath5)"
         id="path112"
         inkscape:connector-curvature="0" />
      <path
         d="M 340.625,254.3281 339.6562,257 h -8.2031 v -0.375 q 3.625,-3.3125 5.1016,-5.3984 1.4765,-2.086 1.4765,-3.8204 0,-1.3281 -0.8124,-2.1796 -0.8126,-0.8516 -1.9376,-0.8516 -1.0312,0 -1.8437,0.6016 -0.8125,0.6015 -1.2031,1.7578 h -0.3906 q 0.2656,-1.8906 1.3281,-2.9063 1.0625,-1.0156 2.6406,-1.0156 1.7031,0 2.8359,1.0859 1.1328,1.086 1.1328,2.5547 0,1.0625 -0.5,2.125 -0.75,1.6563 -2.4531,3.5157 -2.5625,2.7812 -3.1875,3.3593 h 3.625 q 1.1094,0 1.5547,-0.0859 0.4453,-0.086 0.8047,-0.336 0.3594,-0.25 0.625,-0.7031 z"
         style="stroke:none"
         transform="translate(-6,-5)"
         clip-path="url(#clipPath5)"
         id="path114"
         inkscape:connector-curvature="0" />
      <line
         transform="translate(-6,-5)"
         x1="318"
         x2="354"
         y1="236"
         style="fill:none"
         y2="236"
         clip-path="url(#clipPath5)"
         id="line116" />
    </g>
    <g
       transform="matrix(0.25199604,0,0,0.25199604,0.95114918,-39.35354)"
       style="font-size:16px;font-family:'Times New Roman';color-interpolation:linearRGB;color-rendering:optimizeQuality;image-rendering:optimizeQuality;text-rendering:optimizeLegibility"
       id="g126">
      <path
         d="m 373.9618,195.0018 v 4"
         style="fill:none"
         clip-path="url(#clipPath1)"
         id="path120"
         inkscape:connector-curvature="0" />
      <path
         d="M 375.625,226.3281 374.6562,229 h -8.2031 v -0.375 q 3.625,-3.3125 5.1016,-5.3984 1.4765,-2.086 1.4765,-3.8204 0,-1.3281 -0.8124,-2.1796 -0.8126,-0.8516 -1.9376,-0.8516 -1.0312,0 -1.8437,0.6016 -0.8125,0.6015 -1.2031,1.7578 h -0.3906 q 0.2656,-1.8906 1.3281,-2.9063 1.0625,-1.0156 2.6406,-1.0156 1.7031,0 2.8359,1.0859 1.1328,1.086 1.1328,2.5547 0,1.0625 -0.5,2.125 -0.75,1.6563 -2.4531,3.5157 -2.5625,2.7812 -3.1875,3.3593 h 3.625 q 1.1094,0 1.5547,-0.0859 0.4453,-0.086 0.8047,-0.336 0.3594,-0.25 0.625,-0.7031 z"
         style="stroke:none"
         transform="translate(-6,-5)"
         clip-path="url(#clipPath5)"
         id="path122"
         inkscape:connector-curvature="0" />
      <path
         d="m 392.125,225.8281 q 0,0.6094 -0.1641,1.2422 -0.164,0.6328 -0.4843,1.1328 -0.3204,0.5 -0.7891,0.8203 -0.4687,0.3204 -1.0781,0.3204 -0.5938,0 -1.0703,-0.5079 -0.4766,-0.5078 -0.7735,-1.5234 -0.0468,-0.1406 -0.0781,-0.3672 -0.0313,-0.2265 -0.0547,-0.4844 -0.0234,-0.2578 -0.0312,-0.5 -0.008,-0.2421 -0.008,-0.3984 0,-1.2031 0.1718,-2.4609 0.1719,-1.2578 0.2656,-2.5235 h -2.375 q -0.2031,2.3594 -0.414,3.9766 -0.211,1.6172 -0.4453,2.8984 -0.0625,0.3281 -0.125,0.625 -0.0625,0.2969 -0.1719,0.5 -0.2188,0.4844 -0.5547,0.6563 -0.3359,0.1718 -0.6328,0.1718 -0.4844,0 -0.7969,-0.3515 -0.3125,-0.3516 -0.3125,-0.7422 0,-0.4531 0.2266,-0.7422 0.2265,-0.2891 0.5234,-0.6484 0.2657,-0.3125 0.5078,-0.6641 0.2422,-0.3516 0.3047,-0.8672 l 0.6094,-4.8125 h -0.9844 q -0.3281,0 -0.7265,0.1719 -0.3985,0.1719 -0.6797,0.5469 l -0.4219,0.6093 h -0.3594 q 0.4688,-1.4687 1.1641,-2.3046 0.6953,-0.836 1.8203,-0.836 h 7.7813 v 1.8125 h -2.6563 q -0.0625,0.6094 -0.1172,1.2813 -0.0547,0.6718 -0.0859,1.3359 -0.0313,0.6641 -0.0391,1.25 -0.008,0.5859 -0.008,1.0078 0,0.3594 0.0781,0.7031 0.0782,0.3438 0.2422,0.6172 0.1641,0.2735 0.4297,0.4532 0.2656,0.1796 0.6406,0.1796 0.2344,0 0.5469,-0.1718 0.3125,-0.1719 0.5,-0.5469 0.0781,-0.1719 0.1094,-0.3906 0.0312,-0.2188 0.0625,-0.4688 h 0.4531 z"
         style="stroke:none"
         transform="translate(-6,-5)"
         clip-path="url(#clipPath5)"
         id="path124"
         inkscape:connector-curvature="0" />
    </g>
    <g
       transform="matrix(0.25199604,0,0,0.25199604,0.95114918,-39.35354)"
       style="font-size:16px;font-family:'Times New Roman';color-interpolation:linearRGB;color-rendering:optimizeQuality;image-rendering:optimizeQuality;text-rendering:optimizeLegibility"
       id="g130">
      <path
         d="m 33.9676,195.0018 v 2"
         style="fill:none"
         clip-path="url(#clipPath1)"
         id="path128"
         inkscape:connector-curvature="0" />
    </g>
    <g
       transform="matrix(0.25199604,0,0,0.25199604,0.95114918,-39.35354)"
       style="font-size:16px;font-family:'Times New Roman';color-interpolation:linearRGB;color-rendering:optimizeQuality;image-rendering:optimizeQuality;text-rendering:optimizeLegibility"
       id="g134">
      <path
         d="m 44.9351,195.0018 v 2"
         style="fill:none"
         clip-path="url(#clipPath1)"
         id="path132"
         inkscape:connector-curvature="0" />
    </g>
    <g
       transform="matrix(0.25199604,0,0,0.25199604,0.95114918,-39.35354)"
       style="font-size:16px;font-family:'Times New Roman';color-interpolation:linearRGB;color-rendering:optimizeQuality;image-rendering:optimizeQuality;text-rendering:optimizeLegibility"
       id="g138">
      <path
         d="m 55.9027,195.0018 v 2"
         style="fill:none"
         clip-path="url(#clipPath1)"
         id="path136"
         inkscape:connector-curvature="0" />
    </g>
    <g
       transform="matrix(0.25199604,0,0,0.25199604,0.95114918,-39.35354)"
       style="font-size:16px;font-family:'Times New Roman';color-interpolation:linearRGB;color-rendering:optimizeQuality;image-rendering:optimizeQuality;text-rendering:optimizeLegibility"
       id="g142">
      <path
         d="m 77.8378,195.0018 v 2"
         style="fill:none"
         clip-path="url(#clipPath1)"
         id="path140"
         inkscape:connector-curvature="0" />
    </g>
    <g
       transform="matrix(0.25199604,0,0,0.25199604,0.95114918,-39.35354)"
       style="font-size:16px;font-family:'Times New Roman';color-interpolation:linearRGB;color-rendering:optimizeQuality;image-rendering:optimizeQuality;text-rendering:optimizeLegibility"
       id="g146">
      <path
         d="m 88.8053,195.0018 v 2"
         style="fill:none"
         clip-path="url(#clipPath1)"
         id="path144"
         inkscape:connector-curvature="0" />
    </g>
    <g
       transform="matrix(0.25199604,0,0,0.25199604,0.95114918,-39.35354)"
       style="font-size:16px;font-family:'Times New Roman';color-interpolation:linearRGB;color-rendering:optimizeQuality;image-rendering:optimizeQuality;text-rendering:optimizeLegibility"
       id="g150">
      <path
         d="m 99.7729,195.0018 v 2"
         style="fill:none"
         clip-path="url(#clipPath1)"
         id="path148"
         inkscape:connector-curvature="0" />
    </g>
    <g
       transform="matrix(0.25199604,0,0,0.25199604,0.95114918,-39.35354)"
       style="font-size:16px;font-family:'Times New Roman';color-interpolation:linearRGB;color-rendering:optimizeQuality;image-rendering:optimizeQuality;text-rendering:optimizeLegibility"
       id="g154">
      <path
         d="m 121.708,195.0018 v 2"
         style="fill:none"
         clip-path="url(#clipPath1)"
         id="path152"
         inkscape:connector-curvature="0" />
    </g>
    <g
       transform="matrix(0.25199604,0,0,0.25199604,0.95114918,-39.35354)"
       style="font-size:16px;font-family:'Times New Roman';color-interpolation:linearRGB;color-rendering:optimizeQuality;image-rendering:optimizeQuality;text-rendering:optimizeLegibility"
       id="g158">
      <path
         d="m 132.6756,195.0018 v 2"
         style="fill:none"
         clip-path="url(#clipPath1)"
         id="path156"
         inkscape:connector-curvature="0" />
    </g>
    <g
       transform="matrix(0.25199604,0,0,0.25199604,0.95114918,-39.35354)"
       style="font-size:16px;font-family:'Times New Roman';color-interpolation:linearRGB;color-rendering:optimizeQuality;image-rendering:optimizeQuality;text-rendering:optimizeLegibility"
       id="g162">
      <path
         d="m 143.6431,195.0018 v 2"
         style="fill:none"
         clip-path="url(#clipPath1)"
         id="path160"
         inkscape:connector-curvature="0" />
    </g>
    <g
       transform="matrix(0.25199604,0,0,0.25199604,0.95114918,-39.35354)"
       style="font-size:16px;font-family:'Times New Roman';color-interpolation:linearRGB;color-rendering:optimizeQuality;image-rendering:optimizeQuality;text-rendering:optimizeLegibility"
       id="g166">
      <path
         d="m 165.5782,195.0018 v 2"
         style="fill:none"
         clip-path="url(#clipPath1)"
         id="path164"
         inkscape:connector-curvature="0" />
    </g>
    <g
       transform="matrix(0.25199604,0,0,0.25199604,0.95114918,-39.35354)"
       style="font-size:16px;font-family:'Times New Roman';color-interpolation:linearRGB;color-rendering:optimizeQuality;image-rendering:optimizeQuality;text-rendering:optimizeLegibility"
       id="g170">
      <path
         d="m 176.5458,195.0018 v 2"
         style="fill:none"
         clip-path="url(#clipPath1)"
         id="path168"
         inkscape:connector-curvature="0" />
    </g>
    <g
       transform="matrix(0.25199604,0,0,0.25199604,0.95114918,-39.35354)"
       style="font-size:16px;font-family:'Times New Roman';color-interpolation:linearRGB;color-rendering:optimizeQuality;image-rendering:optimizeQuality;text-rendering:optimizeLegibility"
       id="g174">
      <path
         d="m 187.5133,195.0018 v 2"
         style="fill:none"
         clip-path="url(#clipPath1)"
         id="path172"
         inkscape:connector-curvature="0" />
    </g>
    <g
       transform="matrix(0.25199604,0,0,0.25199604,0.95114918,-39.35354)"
       style="font-size:16px;font-family:'Times New Roman';color-interpolation:linearRGB;color-rendering:optimizeQuality;image-rendering:optimizeQuality;text-rendering:optimizeLegibility"
       id="g178">
      <path
         d="m 209.4484,195.0018 v 2"
         style="fill:none"
         clip-path="url(#clipPath1)"
         id="path176"
         inkscape:connector-curvature="0" />
    </g>
    <g
       transform="matrix(0.25199604,0,0,0.25199604,0.95114918,-39.35354)"
       style="font-size:16px;font-family:'Times New Roman';color-interpolation:linearRGB;color-rendering:optimizeQuality;image-rendering:optimizeQuality;text-rendering:optimizeLegibility"
       id="g182">
      <path
         d="m 220.416,195.0018 v 2"
         style="fill:none"
         clip-path="url(#clipPath1)"
         id="path180"
         inkscape:connector-curvature="0" />
    </g>
    <g
       transform="matrix(0.25199604,0,0,0.25199604,0.95114918,-39.35354)"
       style="font-size:16px;font-family:'Times New Roman';color-interpolation:linearRGB;color-rendering:optimizeQuality;image-rendering:optimizeQuality;text-rendering:optimizeLegibility"
       id="g186">
      <path
         d="m 231.3835,195.0018 v 2"
         style="fill:none"
         clip-path="url(#clipPath1)"
         id="path184"
         inkscape:connector-curvature="0" />
    </g>
    <g
       transform="matrix(0.25199604,0,0,0.25199604,0.95114918,-39.35354)"
       style="font-size:16px;font-family:'Times New Roman';color-interpolation:linearRGB;color-rendering:optimizeQuality;image-rendering:optimizeQuality;text-rendering:optimizeLegibility"
       id="g190">
      <path
         d="m 253.3186,195.0018 v 2"
         style="fill:none"
         clip-path="url(#clipPath1)"
         id="path188"
         inkscape:connector-curvature="0" />
    </g>
    <g
       transform="matrix(0.25199604,0,0,0.25199604,0.95114918,-39.35354)"
       style="font-size:16px;font-family:'Times New Roman';color-interpolation:linearRGB;color-rendering:optimizeQuality;image-rendering:optimizeQuality;text-rendering:optimizeLegibility"
       id="g194">
      <path
         d="m 264.2862,195.0018 v 2"
         style="fill:none"
         clip-path="url(#clipPath1)"
         id="path192"
         inkscape:connector-curvature="0" />
    </g>
    <g
       transform="matrix(0.25199604,0,0,0.25199604,0.95114918,-39.35354)"
       style="font-size:16px;font-family:'Times New Roman';color-interpolation:linearRGB;color-rendering:optimizeQuality;image-rendering:optimizeQuality;text-rendering:optimizeLegibility"
       id="g198">
      <path
         d="m 275.2538,195.0018 v 2"
         style="fill:none"
         clip-path="url(#clipPath1)"
         id="path196"
         inkscape:connector-curvature="0" />
    </g>
    <g
       transform="matrix(0.25199604,0,0,0.25199604,0.95114918,-39.35354)"
       style="font-size:16px;font-family:'Times New Roman';color-interpolation:linearRGB;color-rendering:optimizeQuality;image-rendering:optimizeQuality;text-rendering:optimizeLegibility"
       id="g202">
      <path
         d="m 297.1889,195.0018 v 2"
         style="fill:none"
         clip-path="url(#clipPath1)"
         id="path200"
         inkscape:connector-curvature="0" />
    </g>
    <g
       transform="matrix(0.25199604,0,0,0.25199604,0.95114918,-39.35354)"
       style="font-size:16px;font-family:'Times New Roman';color-interpolation:linearRGB;color-rendering:optimizeQuality;image-rendering:optimizeQuality;text-rendering:optimizeLegibility"
       id="g206">
      <path
         d="m 308.1564,195.0018 v 2"
         style="fill:none"
         clip-path="url(#clipPath1)"
         id="path204"
         inkscape:connector-curvature="0" />
    </g>
    <g
       transform="matrix(0.25199604,0,0,0.25199604,0.95114918,-39.35354)"
       style="font-size:16px;font-family:'Times New Roman';color-interpolation:linearRGB;color-rendering:optimizeQuality;image-rendering:optimizeQuality;text-rendering:optimizeLegibility"
       id="g210">
      <path
         d="m 319.124,195.0018 v 2"
         style="fill:none"
         clip-path="url(#clipPath1)"
         id="path208"
         inkscape:connector-curvature="0" />
    </g>
    <g
       transform="matrix(0.25199604,0,0,0.25199604,0.95114918,-39.35354)"
       style="font-size:16px;font-family:'Times New Roman';color-interpolation:linearRGB;color-rendering:optimizeQuality;image-rendering:optimizeQuality;text-rendering:optimizeLegibility"
       id="g214">
      <path
         d="m 341.0591,195.0018 v 2"
         style="fill:none"
         clip-path="url(#clipPath1)"
         id="path212"
         inkscape:connector-curvature="0" />
    </g>
    <g
       transform="matrix(0.25199604,0,0,0.25199604,0.95114918,-39.35354)"
       style="font-size:16px;font-family:'Times New Roman';color-interpolation:linearRGB;color-rendering:optimizeQuality;image-rendering:optimizeQuality;text-rendering:optimizeLegibility"
       id="g218">
      <path
         d="m 352.0266,195.0018 v 2"
         style="fill:none"
         clip-path="url(#clipPath1)"
         id="path216"
         inkscape:connector-curvature="0" />
    </g>
    <g
       transform="matrix(0.25199604,0,0,0.25199604,0.95114918,-39.35354)"
       style="font-size:16px;font-family:'Times New Roman';color-interpolation:linearRGB;color-rendering:optimizeQuality;image-rendering:optimizeQuality;text-rendering:optimizeLegibility"
       id="g222">
      <path
         d="m 362.9942,195.0018 v 2"
         style="fill:none"
         clip-path="url(#clipPath1)"
         id="path220"
         inkscape:connector-curvature="0" />
    </g>
    <g
       transform="matrix(0.25199604,0,0,0.25199604,0.95114918,-39.35354)"
       style="font-size:16px;font-family:'Times New Roman';color-interpolation:linearRGB;color-rendering:optimizeQuality;image-rendering:optimizeQuality;text-rendering:optimizeLegibility"
       id="g230">
      <path
         d="m 198.4809,353.1752 h -4"
         style="fill:none"
         clip-path="url(#clipPath1)"
         id="path228"
         inkscape:connector-curvature="0" />
    </g>
    <g
       transform="matrix(0.25199604,0,0,0.25199604,-0.56082706,-40.613521)"
       style="font-size:16px;font-family:'Times New Roman';color-interpolation:linearRGB;color-rendering:optimizeQuality;image-rendering:optimizeQuality;text-rendering:optimizeLegibility"
       id="g234">
      <path
         d="m 173.4375,360.25 h -13.875 v -1.0938 h 13.875 z"
         style="stroke:none"
         clip-path="url(#clipPath8)"
         id="path232"
         inkscape:connector-curvature="0" />
    </g>
    <g
       transform="matrix(0.25199604,0,0,0.25199604,-0.56082706,-40.613521)"
       style="font-size:16px;font-family:'Times New Roman';color-interpolation:linearRGB;color-rendering:optimizeQuality;image-rendering:optimizeQuality;text-rendering:optimizeLegibility"
       id="g238">
      <path
         d="m 170.7656,359.125 q 0,-2.375 0.711,-4.0938 0.7109,-1.7187 1.914,-2.5624 0.9219,-0.6563 1.9063,-0.6563 1.5937,0 2.8593,1.625 1.5938,2.0156 1.5938,5.4844 0,2.4062 -0.6953,4.1015 -0.6953,1.6954 -1.7813,2.461 -1.0859,0.7656 -2.0859,0.7656 -1.9844,0 -3.3125,-2.3594 -1.1094,-1.9687 -1.1094,-4.7656 z m 2,0.2656 q 0,2.8594 0.7032,4.6875 0.5937,1.5157 1.75,1.5157 0.5468,0 1.1484,-0.4922 0.6016,-0.4922 0.8984,-1.6641 0.4688,-1.7656 0.4688,-4.9687 0,-2.3907 -0.4844,-3.9688 -0.375,-1.1875 -0.9531,-1.6719 -0.4219,-0.3437 -1.0157,-0.3437 -0.7031,0 -1.2343,0.625 -0.75,0.8594 -1.0157,2.6797 -0.2656,1.8203 -0.2656,3.6015 z m 10.3594,4.625 q 0.4844,0 0.8125,0.3282 0.3281,0.3281 0.3281,0.8124 0,0.4688 -0.3359,0.7969 -0.3359,0.3281 -0.8047,0.3281 -0.4688,0 -0.8047,-0.3281 -0.3359,-0.3281 -0.3359,-0.7969 0,-0.4843 0.3359,-0.8124 0.3359,-0.3282 0.8047,-0.3282 z m 12.0312,-12.2031 v 0.375 q -1.3437,0.1406 -2.2031,0.5391 -0.8593,0.3984 -1.6953,1.2343 -0.8359,0.836 -1.3828,1.8516 -0.5469,1.0156 -0.9219,2.4219 1.4844,-1.0156 2.9688,-1.0156 1.4219,0 2.4687,1.1484 1.0469,1.1484 1.0469,2.9609 0,1.7344 -1.0469,3.1719 -1.2812,1.75 -3.375,1.75 -1.4218,0 -2.4218,-0.9531 -1.9376,-1.8281 -1.9376,-4.75 0,-1.875 0.75,-3.5547 0.75,-1.6797 2.1329,-2.9844 1.3828,-1.3047 2.6562,-1.75 1.2735,-0.4453 2.3672,-0.4453 z m -6.375,7.1719 q -0.1874,1.3906 -0.1874,2.2344 0,0.9843 0.3671,2.1406 0.3672,1.1562 1.086,1.8281 0.5156,0.4844 1.2656,0.4844 0.8906,0 1.5937,-0.8438 0.7032,-0.8437 0.7032,-2.3906 0,-1.7656 -0.6953,-3.0469 -0.6953,-1.2812 -1.9766,-1.2812 -0.3906,0 -0.8359,0.164 -0.4454,0.1641 -1.3204,0.711 z"
         style="stroke:none"
         clip-path="url(#clipPath5)"
         id="path236"
         inkscape:connector-curvature="0" />
    </g>
    <g
       transform="matrix(0.25199604,0,0,0.25199604,0.95114918,-39.35354)"
       style="font-size:16px;font-family:'Times New Roman';color-interpolation:linearRGB;color-rendering:optimizeQuality;image-rendering:optimizeQuality;text-rendering:optimizeLegibility"
       id="g242">
      <path
         d="m 198.4809,300.4507 h -4"
         style="fill:none"
         clip-path="url(#clipPath1)"
         id="path240"
         inkscape:connector-curvature="0" />
    </g>
    <g
       transform="matrix(0.25199604,0,0,0.25199604,-0.56082706,-40.613521)"
       style="font-size:16px;font-family:'Times New Roman';color-interpolation:linearRGB;color-rendering:optimizeQuality;image-rendering:optimizeQuality;text-rendering:optimizeLegibility"
       id="g246">
      <path
         d="m 173.4375,307.25 h -13.875 v -1.0938 h 13.875 z"
         style="stroke:none"
         clip-path="url(#clipPath9)"
         id="path244"
         inkscape:connector-curvature="0" />
    </g>
    <g
       transform="matrix(0.25199604,0,0,0.25199604,-0.56082706,-40.613521)"
       style="font-size:16px;font-family:'Times New Roman';color-interpolation:linearRGB;color-rendering:optimizeQuality;image-rendering:optimizeQuality;text-rendering:optimizeLegibility"
       id="g250">
      <path
         d="m 170.7656,306.125 q 0,-2.375 0.711,-4.0938 0.7109,-1.7187 1.914,-2.5624 0.9219,-0.6563 1.9063,-0.6563 1.5937,0 2.8593,1.625 1.5938,2.0156 1.5938,5.4844 0,2.4062 -0.6953,4.1015 -0.6953,1.6954 -1.7813,2.461 -1.0859,0.7656 -2.0859,0.7656 -1.9844,0 -3.3125,-2.3594 -1.1094,-1.9687 -1.1094,-4.7656 z m 2,0.2656 q 0,2.8594 0.7032,4.6875 0.5937,1.5157 1.75,1.5157 0.5468,0 1.1484,-0.4922 0.6016,-0.4922 0.8984,-1.6641 0.4688,-1.7656 0.4688,-4.9687 0,-2.3907 -0.4844,-3.9688 -0.375,-1.1875 -0.9531,-1.6719 -0.4219,-0.3437 -1.0157,-0.3437 -0.7031,0 -1.2343,0.625 -0.75,0.8594 -1.0157,2.6797 -0.2656,1.8203 -0.2656,3.6015 z m 10.3594,4.625 q 0.4844,0 0.8125,0.3282 0.3281,0.3281 0.3281,0.8124 0,0.4688 -0.3359,0.7969 -0.3359,0.3281 -0.8047,0.3281 -0.4688,0 -0.8047,-0.3281 -0.3359,-0.3281 -0.3359,-0.7969 0,-0.4843 0.3359,-0.8124 0.3359,-0.3282 0.8047,-0.3282 z m 12.3906,-3.1406 v 1.4531 h -1.8594 V 313 h -1.6874 v -3.6719 h -5.8907 v -1.3125 l 6.4531,-9.2031 h 1.125 v 9.0625 z m -3.5468,0 v -6.9062 l -4.8907,6.9062 z"
         style="stroke:none"
         clip-path="url(#clipPath5)"
         id="path248"
         inkscape:connector-curvature="0" />
    </g>
    <g
       transform="matrix(0.25199604,0,0,0.25199604,0.95114918,-39.35354)"
       style="font-size:16px;font-family:'Times New Roman';color-interpolation:linearRGB;color-rendering:optimizeQuality;image-rendering:optimizeQuality;text-rendering:optimizeLegibility"
       id="g254">
      <path
         d="m 198.4809,247.7263 h -4"
         style="fill:none"
         clip-path="url(#clipPath1)"
         id="path252"
         inkscape:connector-curvature="0" />
    </g>
    <g
       transform="matrix(0.25199604,0,0,0.25199604,-0.56082706,-40.613521)"
       style="font-size:16px;font-family:'Times New Roman';color-interpolation:linearRGB;color-rendering:optimizeQuality;image-rendering:optimizeQuality;text-rendering:optimizeLegibility"
       id="g258">
      <path
         d="m 173.4375,254.25 h -13.875 v -1.0938 h 13.875 z"
         style="stroke:none"
         clip-path="url(#clipPath10)"
         id="path256"
         inkscape:connector-curvature="0" />
    </g>
    <g
       transform="matrix(0.25199604,0,0,0.25199604,-0.56082706,-40.613521)"
       style="font-size:16px;font-family:'Times New Roman';color-interpolation:linearRGB;color-rendering:optimizeQuality;image-rendering:optimizeQuality;text-rendering:optimizeLegibility"
       id="g262">
      <path
         d="m 170.7656,253.125 q 0,-2.375 0.711,-4.0938 0.7109,-1.7187 1.914,-2.5624 0.9219,-0.6563 1.9063,-0.6563 1.5937,0 2.8593,1.625 1.5938,2.0156 1.5938,5.4844 0,2.4062 -0.6953,4.1015 -0.6953,1.6954 -1.7813,2.461 -1.0859,0.7656 -2.0859,0.7656 -1.9844,0 -3.3125,-2.3594 -1.1094,-1.9687 -1.1094,-4.7656 z m 2,0.2656 q 0,2.8594 0.7032,4.6875 0.5937,1.5157 1.75,1.5157 0.5468,0 1.1484,-0.4922 0.6016,-0.4922 0.8984,-1.6641 0.4688,-1.7656 0.4688,-4.9687 0,-2.3907 -0.4844,-3.9688 -0.375,-1.1875 -0.9531,-1.6719 -0.4219,-0.3437 -1.0157,-0.3437 -0.7031,0 -1.2343,0.625 -0.75,0.8594 -1.0157,2.6797 -0.2656,1.8203 -0.2656,3.6015 z m 10.3594,4.625 q 0.4844,0 0.8125,0.3282 0.3281,0.3281 0.3281,0.8124 0,0.4688 -0.3359,0.7969 -0.3359,0.3281 -0.8047,0.3281 -0.4688,0 -0.8047,-0.3281 -0.3359,-0.3281 -0.3359,-0.7969 0,-0.4843 0.3359,-0.8124 0.3359,-0.3282 0.8047,-0.3282 z m 12.25,-0.6875 -0.9688,2.6719 h -8.2031 v -0.375 q 3.625,-3.3125 5.1016,-5.3984 1.4765,-2.086 1.4765,-3.8204 0,-1.3281 -0.8124,-2.1796 -0.8126,-0.8516 -1.9376,-0.8516 -1.0312,0 -1.8437,0.6016 -0.8125,0.6015 -1.2031,1.7578 h -0.3906 q 0.2656,-1.8906 1.3281,-2.9063 1.0625,-1.0156 2.6406,-1.0156 1.7031,0 2.8359,1.0859 1.1328,1.086 1.1328,2.5547 0,1.0625 -0.5,2.125 -0.75,1.6563 -2.4531,3.5157 -2.5625,2.7812 -3.1875,3.3593 h 3.625 q 1.1094,0 1.5547,-0.0859 0.4453,-0.086 0.8047,-0.336 0.3594,-0.25 0.625,-0.7031 z"
         style="stroke:none"
         clip-path="url(#clipPath5)"
         id="path260"
         inkscape:connector-curvature="0" />
    </g>
    <g
       transform="matrix(0.25199604,0,0,0.25199604,0.95114918,-39.35354)"
       style="font-size:16px;font-family:'Times New Roman';color-interpolation:linearRGB;color-rendering:optimizeQuality;image-rendering:optimizeQuality;text-rendering:optimizeLegibility"
       id="g266">
      <path
         d="m 198.4809,195.0018 h -4"
         style="fill:none"
         clip-path="url(#clipPath1)"
         id="path264"
         inkscape:connector-curvature="0" />
    </g>
    <g
       transform="matrix(0.25199604,0,0,0.25199604,0.95114918,-39.35354)"
       style="font-size:16px;font-family:'Times New Roman';color-interpolation:linearRGB;color-rendering:optimizeQuality;image-rendering:optimizeQuality;text-rendering:optimizeLegibility"
       id="g272">
      <path
         d="m 198.4809,142.2774 h -4"
         style="fill:none"
         clip-path="url(#clipPath1)"
         id="path268"
         inkscape:connector-curvature="0" />
      <path
         d="m 170.7656,148.125 q 0,-2.375 0.711,-4.0938 0.7109,-1.7187 1.914,-2.5624 0.9219,-0.6563 1.9063,-0.6563 1.5937,0 2.8593,1.625 1.5938,2.0156 1.5938,5.4844 0,2.4062 -0.6953,4.1015 -0.6953,1.6954 -1.7813,2.461 -1.0859,0.7656 -2.0859,0.7656 -1.9844,0 -3.3125,-2.3594 -1.1094,-1.9687 -1.1094,-4.7656 z m 2,0.2656 q 0,2.8594 0.7032,4.6875 0.5937,1.5157 1.75,1.5157 0.5468,0 1.1484,-0.4922 0.6016,-0.4922 0.8984,-1.6641 0.4688,-1.7656 0.4688,-4.9687 0,-2.3907 -0.4844,-3.9688 -0.375,-1.1875 -0.9531,-1.6719 -0.4219,-0.3437 -1.0157,-0.3437 -0.7031,0 -1.2343,0.625 -0.75,0.8594 -1.0157,2.6797 -0.2656,1.8203 -0.2656,3.6015 z m 10.3594,4.625 q 0.4844,0 0.8125,0.3282 0.3281,0.3281 0.3281,0.8124 0,0.4688 -0.3359,0.7969 -0.3359,0.3281 -0.8047,0.3281 -0.4688,0 -0.8047,-0.3281 -0.3359,-0.3281 -0.3359,-0.7969 0,-0.4843 0.3359,-0.8124 0.3359,-0.3282 0.8047,-0.3282 z m 12.25,-0.6875 -0.9688,2.6719 h -8.2031 v -0.375 q 3.625,-3.3125 5.1016,-5.3984 1.4765,-2.086 1.4765,-3.8204 0,-1.3281 -0.8124,-2.1796 -0.8126,-0.8516 -1.9376,-0.8516 -1.0312,0 -1.8437,0.6016 -0.8125,0.6015 -1.2031,1.7578 h -0.3906 q 0.2656,-1.8906 1.3281,-2.9063 1.0625,-1.0156 2.6406,-1.0156 1.7031,0 2.8359,1.0859 1.1328,1.086 1.1328,2.5547 0,1.0625 -0.5,2.125 -0.75,1.6563 -2.4531,3.5157 -2.5625,2.7812 -3.1875,3.3593 h 3.625 q 1.1094,0 1.5547,-0.0859 0.4453,-0.086 0.8047,-0.336 0.3594,-0.25 0.625,-0.7031 z"
         style="stroke:none"
         transform="translate(-6,-5)"
         clip-path="url(#clipPath5)"
         id="path270"
         inkscape:connector-curvature="0" />
    </g>
    <g
       transform="matrix(0.25199604,0,0,0.25199604,0.95114918,-39.35354)"
       style="font-size:16px;font-family:'Times New Roman';color-interpolation:linearRGB;color-rendering:optimizeQuality;image-rendering:optimizeQuality;text-rendering:optimizeLegibility"
       id="g278">
      <path
         d="m 198.4809,89.5529 h -4"
         style="fill:none"
         clip-path="url(#clipPath1)"
         id="path274"
         inkscape:connector-curvature="0" />
      <path
         d="m 170.7656,95.125 q 0,-2.375 0.711,-4.0938 0.7109,-1.7187 1.914,-2.5624 0.9219,-0.6563 1.9063,-0.6563 1.5937,0 2.8593,1.625 1.5938,2.0156 1.5938,5.4844 0,2.4062 -0.6953,4.1015 -0.6953,1.6954 -1.7813,2.461 -1.0859,0.7656 -2.0859,0.7656 -1.9844,0 -3.3125,-2.3594 -1.1094,-1.9687 -1.1094,-4.7656 z m 2,0.2656 q 0,2.8594 0.7032,4.6875 0.5937,1.5157 1.75,1.5157 0.5468,0 1.1484,-0.4922 0.6016,-0.4922 0.8984,-1.6641 0.4688,-1.7656 0.4688,-4.9687 0,-2.3907 -0.4844,-3.9688 -0.375,-1.1875 -0.9531,-1.6719 -0.4219,-0.3437 -1.0157,-0.3437 -0.7031,0 -1.2343,0.625 -0.75,0.8594 -1.0157,2.6797 -0.2656,1.8203 -0.2656,3.6015 z m 10.3594,4.625 q 0.4844,0 0.8125,0.3282 0.3281,0.3281 0.3281,0.8124 0,0.4688 -0.3359,0.7969 -0.3359,0.3281 -0.8047,0.3281 -0.4688,0 -0.8047,-0.3281 -0.3359,-0.3281 -0.3359,-0.7969 0,-0.4843 0.3359,-0.8124 0.3359,-0.3282 0.8047,-0.3282 z m 12.3906,-3.1406 v 1.4531 h -1.8594 V 102 h -1.6874 v -3.6719 h -5.8907 v -1.3125 l 6.4531,-9.2031 h 1.125 v 9.0625 z m -3.5468,0 v -6.9062 l -4.8907,6.9062 z"
         style="stroke:none"
         transform="translate(-6,-5)"
         clip-path="url(#clipPath5)"
         id="path276"
         inkscape:connector-curvature="0" />
    </g>
    <g
       transform="matrix(0.25199604,0,0,0.25199604,0.95114918,-39.35354)"
       style="font-size:16px;font-family:'Times New Roman';color-interpolation:linearRGB;color-rendering:optimizeQuality;image-rendering:optimizeQuality;text-rendering:optimizeLegibility"
       id="g284">
      <path
         d="m 198.4809,36.8285 h -4"
         style="fill:none"
         clip-path="url(#clipPath1)"
         id="path280"
         inkscape:connector-curvature="0" />
      <path
         d="m 170.7656,42.125 q 0,-2.375 0.711,-4.0938 0.7109,-1.7187 1.914,-2.5624 0.9219,-0.6563 1.9063,-0.6563 1.5937,0 2.8593,1.625 1.5938,2.0156 1.5938,5.4844 0,2.4062 -0.6953,4.1015 -0.6953,1.6954 -1.7813,2.461 -1.0859,0.7656 -2.0859,0.7656 -1.9844,0 -3.3125,-2.3594 -1.1094,-1.9687 -1.1094,-4.7656 z m 2,0.2656 q 0,2.8594 0.7032,4.6875 0.5937,1.5157 1.75,1.5157 0.5468,0 1.1484,-0.4922 0.6016,-0.4922 0.8984,-1.6641 0.4688,-1.7656 0.4688,-4.9687 0,-2.3907 -0.4844,-3.9688 -0.375,-1.1875 -0.9531,-1.6719 -0.4219,-0.3437 -1.0157,-0.3437 -0.7031,0 -1.2343,0.625 -0.75,0.8594 -1.0157,2.6797 -0.2656,1.8203 -0.2656,3.6015 z m 10.3594,4.625 q 0.4844,0 0.8125,0.3282 0.3281,0.3281 0.3281,0.8124 0,0.4688 -0.3359,0.7969 -0.3359,0.3281 -0.8047,0.3281 -0.4688,0 -0.8047,-0.3281 -0.3359,-0.3281 -0.3359,-0.7969 0,-0.4843 0.3359,-0.8124 0.3359,-0.3282 0.8047,-0.3282 z m 12.0312,-12.2031 v 0.375 q -1.3437,0.1406 -2.2031,0.5391 -0.8593,0.3984 -1.6953,1.2343 -0.8359,0.836 -1.3828,1.8516 -0.5469,1.0156 -0.9219,2.4219 1.4844,-1.0156 2.9688,-1.0156 1.4219,0 2.4687,1.1484 1.0469,1.1484 1.0469,2.9609 0,1.7344 -1.0469,3.1719 -1.2812,1.75 -3.375,1.75 -1.4218,0 -2.4218,-0.9531 -1.9376,-1.8281 -1.9376,-4.75 0,-1.875 0.75,-3.5547 0.75,-1.6797 2.1329,-2.9844 1.3828,-1.3047 2.6562,-1.75 1.2735,-0.4453 2.3672,-0.4453 z m -6.375,7.1719 q -0.1874,1.3906 -0.1874,2.2344 0,0.9843 0.3671,2.1406 0.3672,1.1562 1.086,1.8281 0.5156,0.4844 1.2656,0.4844 0.8906,0 1.5937,-0.8438 0.7032,-0.8437 0.7032,-2.3906 0,-1.7656 -0.6953,-3.0469 -0.6953,-1.2812 -1.9766,-1.2812 -0.3906,0 -0.8359,0.164 -0.4454,0.1641 -1.3204,0.711 z"
         style="stroke:none"
         transform="translate(-6,-5)"
         clip-path="url(#clipPath5)"
         id="path282"
         inkscape:connector-curvature="0" />
    </g>
    <g
       transform="matrix(0.25199604,0,0,0.25199604,0.95114918,-39.35354)"
       style="font-size:16px;font-family:'Times New Roman';color-interpolation:linearRGB;color-rendering:optimizeQuality;image-rendering:optimizeQuality;text-rendering:optimizeLegibility"
       id="g288">
      <path
         d="m 198.4809,379.5374 h -2"
         style="fill:none"
         clip-path="url(#clipPath1)"
         id="path286"
         inkscape:connector-curvature="0" />
    </g>
    <g
       transform="matrix(0.25199604,0,0,0.25199604,0.95114918,-39.35354)"
       style="font-size:16px;font-family:'Times New Roman';color-interpolation:linearRGB;color-rendering:optimizeQuality;image-rendering:optimizeQuality;text-rendering:optimizeLegibility"
       id="g292">
      <path
         d="m 198.4809,326.813 h -2"
         style="fill:none"
         clip-path="url(#clipPath1)"
         id="path290"
         inkscape:connector-curvature="0" />
    </g>
    <g
       transform="matrix(0.25199604,0,0,0.25199604,0.95114918,-39.35354)"
       style="font-size:16px;font-family:'Times New Roman';color-interpolation:linearRGB;color-rendering:optimizeQuality;image-rendering:optimizeQuality;text-rendering:optimizeLegibility"
       id="g296">
      <path
         d="m 198.4809,274.0885 h -2"
         style="fill:none"
         clip-path="url(#clipPath1)"
         id="path294"
         inkscape:connector-curvature="0" />
    </g>
    <g
       transform="matrix(0.25199604,0,0,0.25199604,0.95114918,-39.35354)"
       style="font-size:16px;font-family:'Times New Roman';color-interpolation:linearRGB;color-rendering:optimizeQuality;image-rendering:optimizeQuality;text-rendering:optimizeLegibility"
       id="g300">
      <path
         d="m 198.4809,221.3641 h -2"
         style="fill:none"
         clip-path="url(#clipPath1)"
         id="path298"
         inkscape:connector-curvature="0" />
    </g>
    <g
       transform="matrix(0.25199604,0,0,0.25199604,0.95114918,-39.35354)"
       style="font-size:16px;font-family:'Times New Roman';color-interpolation:linearRGB;color-rendering:optimizeQuality;image-rendering:optimizeQuality;text-rendering:optimizeLegibility"
       id="g304">
      <path
         d="m 198.4809,168.6396 h -2"
         style="fill:none"
         clip-path="url(#clipPath1)"
         id="path302"
         inkscape:connector-curvature="0" />
    </g>
    <g
       transform="matrix(0.25199604,0,0,0.25199604,0.95114918,-39.35354)"
       style="font-size:16px;font-family:'Times New Roman';color-interpolation:linearRGB;color-rendering:optimizeQuality;image-rendering:optimizeQuality;text-rendering:optimizeLegibility"
       id="g308">
      <path
         d="m 198.4809,115.9151 h -2"
         style="fill:none"
         clip-path="url(#clipPath1)"
         id="path306"
         inkscape:connector-curvature="0" />
    </g>
    <g
       transform="matrix(0.25199604,0,0,0.25199604,0.95114918,-39.35354)"
       style="font-size:16px;font-family:'Times New Roman';color-interpolation:linearRGB;color-rendering:optimizeQuality;image-rendering:optimizeQuality;text-rendering:optimizeLegibility"
       id="g312">
      <path
         d="m 198.4809,63.1907 h -2"
         style="fill:none"
         clip-path="url(#clipPath1)"
         id="path310"
         inkscape:connector-curvature="0" />
    </g>
    <g
       transform="matrix(0.25199604,0,0,0.25199604,0.95114918,-39.35354)"
       style="font-size:16px;font-family:'Times New Roman';color-interpolation:linearRGB;color-rendering:optimizeQuality;image-rendering:optimizeQuality;text-rendering:optimizeLegibility"
       id="g316">
      <path
         d="m 198.4809,10.4662 h -2"
         style="fill:none"
         clip-path="url(#clipPath1)"
         id="path314"
         inkscape:connector-curvature="0" />
    </g>
    <g
       style="font-size:16px;font-family:'Times New Roman';color-interpolation:linearRGB;fill:#ffffff;stroke:#ffffff;stroke-width:0.35683832;stroke-linecap:butt;stroke-linejoin:round;stroke-miterlimit:10;stroke-dasharray:none;color-rendering:optimizeQuality;image-rendering:optimizeQuality;text-rendering:optimizeLegibility"
       transform="matrix(0.98954235,0,0,0.12599802,-145.43763,-14.783762)"
       id="g38">
      <path
         d="m 199.8773,195.0018 -7e-4,-0.414 -0.002,-0.4136 -0.003,-0.4128 -0.005,-0.4116 -0.006,-0.41 -0.007,-0.4079 -0.009,-0.4055 -0.0103,-0.4026 -0.0115,-0.3994 -0.0129,-0.3958 -0.0142,-0.3917 -0.0155,-0.3874 -0.0168,-0.3825 -0.0181,-0.3774 -0.0193,-0.3719 -0.0205,-0.3659 -0.0218,-0.3597 -0.0229,-0.3531 -0.0241,-0.3461 -0.0252,-0.3387 -0.0263,-0.3312 -0.0274,-0.3231 -0.0285,-0.3149 -0.0296,-0.3063 -0.0305,-0.2973 -0.0315,-0.2882 -0.0325,-0.2787 -0.0333,-0.2689 -0.0342,-0.2589 -0.0351,-0.2486 -0.0359,-0.2381 -0.0367,-0.2274 -0.0374,-0.2163 -0.0381,-0.2052 -0.0387,-0.1937 -0.0394,-0.1822 -0.04,-0.1704 -0.0406,-0.1585 -0.041,-0.1463 -0.0415,-0.1342 -0.0419,-0.1217 -0.0423,-0.1093 -0.0427,-0.0967 -0.0429,-0.0839 -0.0433,-0.0712 -0.0434,-0.0584 -0.0436,-0.0454 -0.0437,-0.0325 -0.0439,-0.0195 -0.0438,-0.007 -0.0439,0.007 -0.0438,0.0195 -0.0437,0.0325 -0.0436,0.0454 -0.0435,0.0584 -0.0432,0.0712 -0.0429,0.0839 -0.0427,0.0967 -0.0423,0.1093 -0.042,0.1217 -0.0414,0.1342 -0.0411,0.1463 -0.0405,0.1585 -0.04,0.1704 -0.0394,0.1822 -0.0387,0.1937 -0.0382,0.2052 -0.0374,0.2163 -0.0366,0.2274 -0.0359,0.2381 -0.0351,0.2486 -0.0342,0.2589 -0.0334,0.2689 -0.0324,0.2787 -0.0315,0.2882 -0.0306,0.2973 -0.0295,0.3063 -0.0285,0.3149 -0.0274,0.3231 -0.0264,0.3312 -0.0252,0.3387 -0.0241,0.3461 -0.0229,0.3531 -0.0217,0.3597 -0.0206,0.3659 -0.0192,0.3719 -0.0181,0.3774 -0.0168,0.3825 -0.0155,0.3874 -0.0142,0.3917 -0.0129,0.3958 -0.0116,0.3994 -0.0102,0.4026 -0.009,0.4055 -0.008,0.4079 -0.006,0.41 -0.005,0.4116 -0.004,0.4128 -0.002,0.4136 -7e-4,0.414 7e-4,0.414 0.002,0.4137 0.004,0.4128 0.005,0.4116 0.006,0.4099 0.008,0.4079 0.009,0.4055 0.0102,0.4026 0.0116,0.3994 0.0129,0.3958 0.0142,0.3918 0.0155,0.3873 0.0168,0.3826 0.0181,0.3774 0.0192,0.3718 0.0206,0.366 0.0217,0.3596 0.0229,0.3531 0.0241,0.3461 0.0252,0.3388 0.0264,0.3311 0.0274,0.3232 0.0285,0.3148 0.0295,0.3063 0.0306,0.2974 0.0315,0.2881 0.0324,0.2787 0.0334,0.269 0.0342,0.2588 0.0351,0.2487 0.0359,0.2381 0.0366,0.2273 0.0374,0.2164 0.0382,0.2051 0.0387,0.1938 0.0394,0.1822 0.04,0.1703 0.0405,0.1585 0.0411,0.1464 0.0414,0.1341 0.042,0.1218 0.0423,0.1092 0.0427,0.0967 0.0429,0.084 0.0432,0.0712 0.0435,0.0583 0.0436,0.0454 0.0437,0.0325 0.0438,0.0195 0.0439,0.006 0.0438,-0.006 0.0439,-0.0195 0.0437,-0.0325 0.0436,-0.0454 0.0434,-0.0583 0.0433,-0.0712 0.0429,-0.084 0.0427,-0.0967 0.0423,-0.1092 0.0419,-0.1218 0.0415,-0.1341 0.041,-0.1464 0.0406,-0.1585 0.04,-0.1703 0.0394,-0.1822 0.0387,-0.1938 0.0381,-0.2051 0.0374,-0.2164 0.0367,-0.2273 0.0359,-0.2381 0.0351,-0.2487 0.0342,-0.2588 0.0333,-0.269 0.0325,-0.2787 0.0315,-0.2881 0.0305,-0.2974 0.0296,-0.3063 0.0285,-0.3148 0.0274,-0.3232 0.0263,-0.3311 0.0252,-0.3388 0.0241,-0.3461 0.0229,-0.3531 0.0218,-0.3596 0.0205,-0.366 0.0193,-0.3718 0.0181,-0.3774 0.0168,-0.3826 0.0155,-0.3873 0.0142,-0.3918 0.0129,-0.3958 0.0115,-0.3994 0.0103,-0.4026 0.009,-0.4055 0.007,-0.4079 0.006,-0.4099 0.005,-0.4116 0.003,-0.4128 0.002,-0.4137 z"
         style="stroke:none;stroke-width:0.35683832;stroke-miterlimit:10;stroke-dasharray:none"
         clip-path="url(#clipPath2)"
         id="path34"
         inkscape:connector-curvature="0" />
      <path
         d="m 199.8773,195.0018 -7e-4,-0.414 -0.002,-0.4136 -0.003,-0.4128 -0.005,-0.4116 -0.006,-0.41 -0.007,-0.4079 -0.009,-0.4055 -0.0103,-0.4026 -0.0115,-0.3994 -0.0129,-0.3958 -0.0142,-0.3917 -0.0155,-0.3874 -0.0168,-0.3825 -0.0181,-0.3774 -0.0193,-0.3719 -0.0205,-0.3659 -0.0218,-0.3597 -0.0229,-0.3531 -0.0241,-0.3461 -0.0252,-0.3387 -0.0263,-0.3312 -0.0274,-0.3231 -0.0285,-0.3149 -0.0296,-0.3063 -0.0305,-0.2973 -0.0315,-0.2882 -0.0325,-0.2787 -0.0333,-0.2689 -0.0342,-0.2589 -0.0351,-0.2486 -0.0359,-0.2381 -0.0367,-0.2274 -0.0374,-0.2163 -0.0381,-0.2052 -0.0387,-0.1937 -0.0394,-0.1822 -0.04,-0.1704 -0.0406,-0.1585 -0.041,-0.1463 -0.0415,-0.1342 -0.0419,-0.1217 -0.0423,-0.1093 -0.0427,-0.0967 -0.0429,-0.0839 -0.0433,-0.0712 -0.0434,-0.0584 -0.0436,-0.0454 -0.0437,-0.0325 -0.0439,-0.0195 -0.0438,-0.007 -0.0439,0.007 -0.0438,0.0195 -0.0437,0.0325 -0.0436,0.0454 -0.0435,0.0584 -0.0432,0.0712 -0.0429,0.0839 -0.0427,0.0967 -0.0423,0.1093 -0.042,0.1217 -0.0414,0.1342 -0.0411,0.1463 -0.0405,0.1585 -0.04,0.1704 -0.0394,0.1822 -0.0387,0.1937 -0.0382,0.2052 -0.0374,0.2163 -0.0366,0.2274 -0.0359,0.2381 -0.0351,0.2486 -0.0342,0.2589 -0.0334,0.2689 -0.0324,0.2787 -0.0315,0.2882 -0.0306,0.2973 -0.0295,0.3063 -0.0285,0.3149 -0.0274,0.3231 -0.0264,0.3312 -0.0252,0.3387 -0.0241,0.3461 -0.0229,0.3531 -0.0217,0.3597 -0.0206,0.3659 -0.0192,0.3719 -0.0181,0.3774 -0.0168,0.3825 -0.0155,0.3874 -0.0142,0.3917 -0.0129,0.3958 -0.0116,0.3994 -0.0102,0.4026 -0.009,0.4055 -0.008,0.4079 -0.006,0.41 -0.005,0.4116 -0.004,0.4128 -0.002,0.4136 -7e-4,0.414 7e-4,0.414 0.002,0.4137 0.004,0.4128 0.005,0.4116 0.006,0.4099 0.008,0.4079 0.009,0.4055 0.0102,0.4026 0.0116,0.3994 0.0129,0.3958 0.0142,0.3918 0.0155,0.3873 0.0168,0.3826 0.0181,0.3774 0.0192,0.3718 0.0206,0.366 0.0217,0.3596 0.0229,0.3531 0.0241,0.3461 0.0252,0.3388 0.0264,0.3311 0.0274,0.3232 0.0285,0.3148 0.0295,0.3063 0.0306,0.2974 0.0315,0.2881 0.0324,0.2787 0.0334,0.269 0.0342,0.2588 0.0351,0.2487 0.0359,0.2381 0.0366,0.2273 0.0374,0.2164 0.0382,0.2051 0.0387,0.1938 0.0394,0.1822 0.04,0.1703 0.0405,0.1585 0.0411,0.1464 0.0414,0.1341 0.042,0.1218 0.0423,0.1092 0.0427,0.0967 0.0429,0.084 0.0432,0.0712 0.0435,0.0583 0.0436,0.0454 0.0437,0.0325 0.0438,0.0195 0.0439,0.006 0.0438,-0.006 0.0439,-0.0195 0.0437,-0.0325 0.0436,-0.0454 0.0434,-0.0583 0.0433,-0.0712 0.0429,-0.084 0.0427,-0.0967 0.0423,-0.1092 0.0419,-0.1218 0.0415,-0.1341 0.041,-0.1464 0.0406,-0.1585 0.04,-0.1703 0.0394,-0.1822 0.0387,-0.1938 0.0381,-0.2051 0.0374,-0.2164 0.0367,-0.2273 0.0359,-0.2381 0.0351,-0.2487 0.0342,-0.2588 0.0333,-0.269 0.0325,-0.2787 0.0315,-0.2881 0.0305,-0.2974 0.0296,-0.3063 0.0285,-0.3148 0.0274,-0.3232 0.0263,-0.3311 0.0252,-0.3388 0.0241,-0.3461 0.0229,-0.3531 0.0218,-0.3596 0.0205,-0.366 0.0193,-0.3718 0.0181,-0.3774 0.0168,-0.3826 0.0155,-0.3873 0.0142,-0.3918 0.0129,-0.3958 0.0115,-0.3994 0.0103,-0.4026 0.009,-0.4055 0.007,-0.4079 0.006,-0.4099 0.005,-0.4116 0.003,-0.4128 0.002,-0.4137 z"
         style="fill:none;stroke:#000000;stroke-width:0.35683832;stroke-miterlimit:10;stroke-dasharray:none"
         clip-path="url(#clipPath2)"
         id="path36"
         inkscape:connector-curvature="0" />
    </g>
    <g
       transform="matrix(0.25199604,0,0,0.25199604,0.95114918,-39.35354)"
       style="font-size:16px;font-family:'Times New Roman';color-interpolation:linearRGB;stroke-linecap:butt;stroke-linejoin:round;color-rendering:optimizeQuality;image-rendering:optimizeQuality;text-rendering:optimizeLegibility"
       id="g226">
      <path
         d="M 198.4809,386 V 4.0052"
         style="fill:none"
         clip-path="url(#clipPath1)"
         id="path224"
         inkscape:connector-curvature="0" />
    </g>
    <g
       transform="matrix(0.25199604,0,0,0.25199604,0.95114918,-39.35354)"
       style="font-size:16px;font-family:'Times New Roman';color-interpolation:linearRGB;stroke-linecap:butt;stroke-linejoin:round;color-rendering:optimizeQuality;image-rendering:optimizeQuality;text-rendering:optimizeLegibility"
       id="g46">
      <path
         d="M 23,195.0018 H 373.9618"
         style="fill:none"
         clip-path="url(#clipPath1)"
         id="path44"
         inkscape:connector-curvature="0" />
    </g>
  </g>
</svg>
