<?xml version="1.0" encoding="UTF-8" standalone="no"?>
<svg
   xmlns:dc="http://purl.org/dc/elements/1.1/"
   xmlns:cc="http://creativecommons.org/ns#"
   xmlns:rdf="http://www.w3.org/1999/02/22-rdf-syntax-ns#"
   xmlns:svg="http://www.w3.org/2000/svg"
   xmlns="http://www.w3.org/2000/svg"
   xmlns:sodipodi="http://sodipodi.sourceforge.net/DTD/sodipodi-0.dtd"
   xmlns:inkscape="http://www.inkscape.org/namespaces/inkscape"
   style="font-style:normal;font-weight:normal;font-size:12px;font-family:Dialog;color-interpolation:auto;fill:#000000;fill-opacity:1;stroke:#000000;stroke-width:1;stroke-linecap:square;stroke-linejoin:miter;stroke-miterlimit:10;stroke-dasharray:none;stroke-dashoffset:0;stroke-opacity:1;color-rendering:auto;image-rendering:auto;shape-rendering:auto;text-rendering:auto"
   contentScriptType="text/ecmascript"
   preserveAspectRatio="xMidYMid meet"
   zoomAndPan="magnify"
   version="1.0"
   contentStyleType="text/css"
   id="svg241"
   sodipodi:docname="limitexist9.svg"
   inkscape:version="0.92.4 (5da689c313, 2019-01-14)"
   width="167"
   height="100">
  <metadata
     id="metadata245">
    <rdf:RDF>
      <cc:Work
         rdf:about="">
        <dc:format>image/svg+xml</dc:format>
        <dc:type
           rdf:resource="http://purl.org/dc/dcmitype/StillImage" />
        <dc:title></dc:title>
      </cc:Work>
    </rdf:RDF>
  </metadata>
  <sodipodi:namedview
     pagecolor="#ffffff"
     bordercolor="#666666"
     borderopacity="1"
     objecttolerance="10"
     gridtolerance="10"
     guidetolerance="10"
     inkscape:pageopacity="0"
     inkscape:pageshadow="2"
     inkscape:window-width="1920"
     inkscape:window-height="1017"
     id="namedview243"
     showgrid="false"
     inkscape:zoom="4.72"
     inkscape:cx="48.466417"
     inkscape:cy="50"
     inkscape:window-x="1672"
     inkscape:window-y="-8"
     inkscape:window-maximized="1"
     inkscape:current-layer="svg241" />
  <!--Generated by the Batik Graphics2D SVG Generator-->
  <defs
     id="genericDefs" />
  <g
     id="g239"
     transform="matrix(0.25748485,0,0,0.25748485,30.363709,-2.0106782)">
    <defs
       id="defs1">
      <clipPath
         clipPathUnits="userSpaceOnUse"
         id="clipPath1">
        <path
           d="M 0,0 H 390 V 390 H 0 Z"
           id="path3"
           inkscape:connector-curvature="0" />
      </clipPath>
      <clipPath
         clipPathUnits="userSpaceOnUse"
         id="clipPath2">
        <path
           d="M 13.9873,11.0293 V 377.9957 H 384.7649 V 11.0293 Z"
           id="path6"
           inkscape:connector-curvature="0" />
      </clipPath>
      <clipPath
         clipPathUnits="userSpaceOnUse"
         id="clipPath3">
        <path
           d="m 281,253 v 18 h 19 v -18 z"
           id="path9"
           inkscape:connector-curvature="0" />
      </clipPath>
      <clipPath
         clipPathUnits="userSpaceOnUse"
         id="clipPath4">
        <path
           d="M 6,5 H 396 V 395 H 6 Z"
           id="path12"
           inkscape:connector-curvature="0" />
      </clipPath>
      <clipPath
         clipPathUnits="userSpaceOnUse"
         id="clipPath5">
        <path
           d="m 9,224 v 21 h 10 v -21 z"
           id="path15"
           inkscape:connector-curvature="0" />
      </clipPath>
      <clipPath
         clipPathUnits="userSpaceOnUse"
         id="clipPath6">
        <path
           d="m 68,224 v 21 h 10 v -21 z"
           id="path18"
           inkscape:connector-curvature="0" />
      </clipPath>
      <clipPath
         clipPathUnits="userSpaceOnUse"
         id="clipPath7">
        <path
           d="m 125,224 v 21 h 10 v -21 z"
           id="path21"
           inkscape:connector-curvature="0" />
      </clipPath>
      <clipPath
         clipPathUnits="userSpaceOnUse"
         id="clipPath8">
        <path
           d="m 174,372 v 21 h 10 v -21 z"
           id="path24"
           inkscape:connector-curvature="0" />
      </clipPath>
      <clipPath
         clipPathUnits="userSpaceOnUse"
         id="clipPath9">
        <path
           d="m 158,282 v 21 h 10 v -21 z"
           id="path27"
           inkscape:connector-curvature="0" />
      </clipPath>
    </defs>
    <g
       style="font-size:16px;font-family:'Times New Roman';color-interpolation:linearRGB;fill:#00ff00;stroke:#00ff00;stroke-width:1.5;stroke-linecap:butt;stroke-linejoin:round;color-rendering:optimizeQuality;image-rendering:optimizeQuality;text-rendering:optimizeLegibility"
       transform="translate(6,5)"
       id="g33">
      <path
         d="m 14.9873,195.0145 1.9337,-6.0745 1.6824,-5.386 1.8921,-6.1658 1.9046,-6.3189 1.8956,-6.3958 1.7574,-6.0198 1.8197,-6.3186 1.882,-6.619 1.8759,-6.6742 1.9296,-6.9344 1.6996,-6.1561 1.9134,-6.9721 1.9212,-7.0302 1.8515,-6.7866 1.6813,-6.158 1.9992,-7.2954 1.6936,-6.1382 1.97,-7.066 1.7439,-6.1639 1.9132,-6.6344 1.8219,-6.1615 1.9009,-6.2298 1.7457,-5.5068 1.8829,-5.6685 1.9559,-5.5398 1.7025,-4.4889 1.8388,-4.4494 1.8997,-4.1037 1.8584,-3.4667 1.7982,-2.7754 1.9965,-2.336 0.897,-0.7705 0.897,-0.5854 0.9577,-0.4103 0.9578,-0.1778 0.8678,0.0492 0.8679,0.2582 0.9487,0.5317 0.9488,0.8034 1.7855,2.2903 1.8663,3.5528 1.8247,4.7039 1.9102,6.3183 1.8399,7.5167 1.8814,9.2183 1.8659,10.7401 1.7146,11.3193 1.965,14.7194 1.7576,14.7577 1.874,17.3753 1.7936,18.1672 1.9916,21.824 1.7246,20.1613 1.9574,24.0709 1.7839,22.7564 1.9514,25.3701 1.6837,21.8739 1.9175,24.3024 1.8522,22.1557 1.8511,20.0157 1.8442,16.8991 1.7717,12.4209 0.9577,4.8112 0.9576,3.2747 0.4563,0.9742 0.4564,0.5727 0.2282,0.1305 0.2281,0.0241 0.2282,-0.0845 0.2282,-0.1951 0.9606,-2.0777 0.9605,-4.2091 1.7391,-13.4247 1.9221,-24.0322 0.9204,-14.9973 0.9205,-17.2134 0.9183,-19.2857 0.9182,-21.2452 0.9591,-24.0455 0.9591,-25.6093 0.8834,-24.6002 0.8834,-25.1462 0.9047,-25.8039 0.9047,-25.2453 0.9989,-26.384 0.9989,-23.8061 0.9044,-18.3843 0.9044,-14.4612 0.9249,-9.8097 0.925,-3.8765 0.9406,2.9711 0.9406,10.5982 0.8647,16.8018 0.8646,23.5836 0.4608,15.2408 0.4608,16.9819 0.4609,18.5888 0.4608,20.0223 0.4573,21.0753 0.4574,22.0235 0.4573,22.6774 0.4573,22.9947 0.4892,24.5196 0.4892,23.9389 0.4892,22.8027 0.4892,21.075 0.8634,31.0884 0.8634,20.3797 0.249,3.4293 0.249,2.2048 0.1246,0.6238 0.1245,0.2951 0.1245,-0.0402 0.1245,-0.3816 0.4981,-5.043 0.4981,-10.8392 0.4495,-14.8207 0.4495,-19.5004 0.4494,-23.91 0.4495,-27.8626 0.4448,-30.8143 0.4447,-33.2028 0.4448,-34.5553 0.4447,-34.6854 0.4782,-35.8566 0.4783,-32.5261 0.4782,-27.2344 0.4782,-20.006 0.2401,-6.7492 0.2401,-4.2761 0.1201,-1.1556 0.12,-0.4747 0.06,0.0232 0.06,0.1994 0.0601,0.3774 0.06,0.557 0.4802,11.0484 0.4801,22.8485 0.2185,14.1759 0.2184,16.3875 0.2185,18.4307 0.2184,20.2586 0.2184,21.8235 0.2185,23.078 0.2184,23.9764 0.2185,24.4757 0.2319,26.0481 0.232,25.5502 0.232,24.453 0.232,22.7355 0.2319,20.391 0.232,17.429 0.232,13.8786 0.232,9.7885 0.1132,3.1473 0.1132,2.0138 0.0566,0.5689 0.0566,0.2707 0.0566,-0.0314 0.0566,-0.3373 0.2263,-4.4616 0.2264,-9.5104 0.2264,-14.5303 0.2264,-19.36 0.2264,-23.8257 0.2264,-27.7454 0.2454,-33.6515 0.2454,-36.2299 0.1227,-18.6547 0.1227,-18.7615 0.1227,-18.6651 0.1227,-18.3567 0.2454,-34.9107 0.2454,-31.0173 0.2454,-25.363 0.2454,-18.0704 0.2124,-8.6616 0.2123,-1.4465 0.2123,6.2118 0.2124,14.0036 0.2123,21.5725 0.2124,28.5277 0.1062,16.5685 0.1061,17.8915 0.1062,19.023 0.1062,19.9391 0.1219,23.7221 0.122,24.2227 0.1219,24.299 0.1219,23.9268 0.122,23.0888 0.1219,21.7759 0.122,19.9886 0.1219,17.7379 0.2439,26.9899 0.2439,13.1952 0.2438,-2.7333 0.2439,-19.503 0.1147,-14.811 0.1146,-18.1607 0.1146,-21.2072 0.1147,-23.8602 0.1146,-26.0334 0.1146,-27.6454 0.1147,-28.6231 0.1146,-28.9049 0.1146,-28.4434 0.1147,-27.2083 0.1146,-25.1887 0.1146,-22.3967 0.2293,-33.5321 0.2293,-14.4836 0.227,7.5523 0.2271,29.9419 0.1135,22.739 0.1135,27.183 0.1135,30.8275 0.1136,33.4884 0.1135,35.0036 0.1135,35.2419 0.1135,34.1131 0.1136,31.576 0.1135,27.6464 0.1135,22.4026 0.1135,15.9893 0.1136,8.619 0.0568,1.3211 0.0568,-0.7547 0.0568,-2.8624 0.0568,-4.9778 0.1136,-16.204 0.1136,-24.1044 0.0568,-14.7506 0.0568,-16.354 0.0568,-17.7778 0.0568,-18.997 0.0569,-19.9878 0.0568,-20.7293 0.0568,-21.2024 0.0568,-21.3912 0.0568,-21.2833 0.0568,-20.8701 0.0568,-20.147 0.0568,-19.1138 0.1136,-33.9168 0.1136,-26.2788 0.1136,-16.6689 0.1137,-5.5741 0.1136,6.367 0.1136,18.3894 0.058,13.7942 0.0579,16.5449 0.0579,19.0456 0.058,21.2385 0.0579,23.0689 0.0579,24.4865 0.058,25.4469 0.0579,25.9132 0.058,25.8563 0.0579,25.2576 0.0579,24.1089 0.058,22.4141 0.0579,20.1894 0.058,17.4639 0.0579,14.2808 0.0579,10.6953 0.058,6.7765 0.0579,2.6045 0.058,-1.729 0.0579,-6.1239 0.0579,-10.4721 0.058,-14.661 0.0579,-18.5759 0.058,-22.1027 0.0579,-25.1311 0.058,-27.5587 0.0579,-29.2936 0.0579,-30.2588 0.058,-30.3946 0.0579,-29.6628 0.0579,-28.0483 0.058,-25.5628 0.0614,-23.4565 0.0614,-18.8219 0.0614,-13.403 0.0615,-7.3594 0.1228,4.9142 0.1228,31.2482 0.0614,24.5958 0.0614,29.573 0.0615,33.4912 0.0614,36.1369 0.0614,37.3379 0.0614,36.9739 0.0614,34.9864 0.0614,31.3864 0.0615,26.2614 0.0614,19.7762 0.0614,12.1727 0.0614,3.7645 0.0614,-5.0733 0.0614,-13.9172 0.0614,-22.3141 0.0615,-29.8026 0.0614,-35.9382 0.0614,-40.319 0.0614,-42.6139 0.0614,-42.5869 0.0614,-40.1211 0.0614,-35.2369 0.0615,-28.1029 0.0614,-19.0401 0.0563,-8.2338 0.0563,1.312 0.0563,11.0602 0.0563,20.4777 0.0563,29.0141 0.0564,36.1327 0.0563,41.3443 0.0563,44.2414 0.0563,44.532 0.0563,42.0679 0.0563,36.8685 0.0563,29.1343 0.0563,19.2496 0.0564,7.7738 0.0563,-4.5827 0.0563,-16.9954 0.0563,-28.5758 0.0563,-38.4321 0.0563,-45.7374 0.0563,-49.8005 0.0563,-50.1343 0.0564,-46.5151 0.0563,-39.0267 0.0563,-28.0839 0.0563,-14.4277 0.0563,0.9066 0.0563,16.6552 0.0563,31.4187 0.0564,43.7818 0.0563,52.4469 0.0563,56.3748 0.0563,54.9146 0.0556,47.362 0.0556,35.5926 0.0555,19.8074 0.0556,1.4336 0.0556,-17.7083 0.0556,-35.567 0.0556,-50.0702 0.0556,-59.3651 0.0556,-62.0631 0.0555,-57.4577 0.0556,-45.6872 0.0556,-27.8068 0.0556,-5.7505 0.0556,17.8329 0.0556,39.8636 0.0556,57.2162 0.0556,67.1623 0.0555,67.817 0.0556,58.5159 0.0556,40.0561 0.0556,14.7353 0.0556,-13.8478 0.0556,-41.241 0.0556,-62.7961 0.0556,-74.4549 0.0555,-73.5423 0.0556,-59.4181 0.0556,-33.838 0.0556,-0.9017 0.0556,33.4752 0.0556,62.539 0.0556,79.9982 0.0594,86.6411 0.0594,67.0791 0.0594,29.7834 0.0595,-16.8168 0.0594,-60.9175 0.0594,-90.1826 0.0594,-95.2209 0.0594,-72.7695 0.0595,-27.5324 0.0594,28.1896 0.0594,77.4137 0.0594,103.47 0.0595,95.765 0.0594,54.3922 0.0594,-8.3655 0.0594,-70.887 0.0595,-109.2271 0.0594,-106.3423 0.0594,-60.134 0.0594,13.4343 0.0594,84.6382 0.0595,121.3838 0.0594,103.8615 0.0594,35.9983 0.0594,-52.8462 0.0594,-119.074 0.0595,-125.8608 0.0594,-64.5111 0.0594,36.1335 0.0594,120.6984 0.0594,136.7646 0.0595,68.4027 0.0593,-47.2662 0.0593,-137.0156 0.0593,-136.8955 0.0592,-39.1007 0.0593,92.5413 0.0593,159.9719 0.0593,103.8098 0.0593,-40.6801 0.0593,-157.8294 0.0593,-141.2115 0.0593,6.0057 0.0593,155.0616 0.0593,158.3165 0.0593,-0.9341 0.0593,-167.3719 0.0592,-156.8665 0.0593,34.7721 0.0593,194.6019 0.0593,120.6451 0.0593,-112.9424 0.0593,-206.5689 0.0593,-16.3758 0.0593,207.0048 0.0593,128.6749 0.2372,-26.7526 0.2371,-2.1985 0.0533,-42.4845 0.0532,-250.5358 0.0532,24.0348 0.0532,260.3259 0.0532,-44.0102 0.0532,-262.6807 0.0533,107.8887 0.0532,235.8036 0.0532,-208.0754 0.0532,-137.0297 0.0532,294.1287 0.0533,-63.6182 0.0532,-247.8423 0.0532,283.0262 0.0532,-29.4551 0.0532,-249.6264 0.0532,322.2101 0.0533,-165.0873 0.0532,-86.3193 0.0532,281.5407 0.0532,-348.3054 0.0532,298.0339 0.0533,-183.6532 0.0532,57.9841 0.0532,45.9345 0.0532,-115.0545 0.0532,147.7092 0.0533,-144.601 0.0532,103.4566 0.0532,-19.3946 0.0532,-106.5327 0.0532,248.9497 0.0631,-270.5189 0.063,-39.1458 0.0631,207.0272 0.063,121.3252 0.063,-25.9596 0.0631,-67.7455 0.063,-34.8513 0.0631,20.4379 0.063,68.6509 0.063,41.3179 0.0631,-152.3489 0.063,-209.6032 0.0631,291.564 0.063,-157.1974 0.0631,131.5781 0.063,-261.5848 0.063,212.2543 0.0631,111.0221 0.063,-19.4975 0.0631,-197.1464 0.063,-7.4418 0.063,81.7583 0.0631,171.4227 0.063,-31.1277 0.0631,-321.5684 0.063,260.3327 0.063,-126.051 0.0631,173.4953 0.063,49.7467 0.0631,-75.4198 0.063,-284.7136 0.063,322.3312 0.0528,-305.5984 0.0527,219.0989 0.0528,-232.5835 0.0528,174.6217 0.0527,153.5 0.0528,-23.9831 0.0527,-129.9371 0.0528,-64.0513 0.0527,241.2693 0.0528,-176.7813 0.0527,-73.3369 0.0528,33.4981 0.0527,172.9257 0.0527,-54.9568 0.0528,-223.0261 0.0528,264.0915 0.0527,-267.7892 0.0527,251.5734 0.0528,-230.7251 0.0527,-33.3419 0.0528,40.9904 0.0528,195.6936 0.0527,79.8358 0.0527,-331.7125 0.0528,37.9264 0.0527,-40.6139 0.0528,267.6793 0.0528,-70.5248 0.0527,-72.4807 0.0527,103.5643 0.0528,133.7305 0.0527,-154.0296 0.0617,-177.8816 0.0617,331.6288 0.0617,-252.724 0.0617,24.5828 0.0617,110.8456 0.0617,-35.1484 0.0617,95.8224 0.0617,-42.056 0.0617,-17.3871 0.0617,110.8423 0.0617,-356.6875 0.0617,275.3362 0.0617,88.4942 0.0617,-0.5443 0.0617,-46.5761 0.0617,-261.6574 0.0617,117.3814 0.0617,50.6997 0.0617,-8.51 0.0617,-196.9797 0.0617,264.5185 0.0617,74.8699 0.0617,-96.7699 0.0617,-83.3719 0.0617,-22.4357 0.0617,36.0447 0.0617,85.691 0.0617,81.9465 0.0617,-47.0628 0.0617,-213.753 0.0617,-82.4317 0.0616,261.1947 0.0589,-7.0005 0.0589,-265.7678 0.0589,336.1305 0.0589,-241.1617 0.0589,92.247 0.0588,36.252 0.0589,-119.3306 0.0589,157.5661 0.0589,-156.628 0.0589,118.5297 0.0589,-42.1002 0.0589,-70.2308 0.0588,201.8493 0.0589,-313.004 0.0589,344.2142 0.0589,-243.9082 0.0589,18.5624 0.0589,227.9835 0.0588,-325.5439 0.0589,167.8571 0.0589,141.0582 0.0589,-309.6162 0.0589,137.2443 0.0589,197.3666 0.0588,-270.2973 0.0589,-34.6965 0.0589,280.3478 0.0589,-76.8406 0.0589,-248.2058 0.0589,127.6976 0.0588,222.5512 0.0589,-133.8242 0.4206,28.3786 0.4207,11.1176 0.0525,-170.9298 0.0526,-93.0327 0.0526,58.8013 0.0526,156.3309 0.0525,127.7522 0.0526,4.3801 0.0526,-116.5626 0.0526,-150.0248 0.0525,-79.8897 0.0526,39.6806 0.0526,128.599 0.0526,134.2275 0.0525,59.4565 0.0526,-46.3759 0.0526,-121.5571 0.0526,-127.4727 0.0591,-67.9732 0.0591,48.0364 0.0591,129.1199 0.0592,129.9283 0.0591,56.34 0.0591,-44.9828 0.0592,-117.5235 0.0591,-125.8808 0.0591,-70.8206 0.0591,16.0332 0.0592,91.4054 0.0591,121.8504 0.0591,97.3374 0.0591,32.4649 0.0592,-42.9077 0.0591,-97.7742 0.0591,-112.3208 0.0592,-84.0236 0.0591,-26.3481 0.0591,38.1324 0.0591,86.7553 0.0592,104.4329 0.0591,87.6445 0.0591,44.107 0.0592,-11.0095 0.0591,-60.5594 0.0591,-90.6646 0.0591,-94.2493 0.0592,-72.161 0.0591,-31.9867 0.0591,14.7313 0.0591,55.8903 0.0596,82.4576 0.0595,88.0749 0.0595,73.0618 0.0595,42.1819 0.0596,3.2778 0.0595,-34.792 0.0595,-64.1453 0.0595,-79.3891 0.0595,-78.4193 0.0596,-62.4599 0.0595,-35.4554 0.0595,-3.034 0.0595,28.6967 0.0595,54.2802 0.0596,69.7772 0.0595,73.2591 0.0595,64.9053 0.0595,46.7463 0.0595,22.15 0.0595,-4.8331 0.0596,-30.1406 0.0595,-50.2862 0.0595,-62.7913 0.0595,-66.4195 0.0595,-61.2144 0.0596,-48.3612 0.0595,-29.918 0.0595,-8.4687 0.0595,13.2457 0.0595,32.6709 0.0596,47.7177 0.0595,56.954 0.0592,59.4196 0.0593,55.8076 0.0592,46.588 0.0592,33 0.0593,16.624 0.0592,-0.8082 0.0592,-17.594 0.0593,-32.219 0.0592,-43.4789 0.0592,-50.5582 0.0593,-53.0677 0.0592,-51.0363 0.0592,-44.871 0.0593,-35.2878 0.0592,-23.2246 0.0593,-9.7467 0.0592,4.0481 0.0592,17.1166 0.0593,28.543 0.0592,37.5943 0.0592,43.7574 0.0593,46.7552 0.0592,46.5447 0.0593,43.2996 0.0592,37.3794 0.0592,29.2903 0.0593,19.6395 0.0592,9.0897 0.0592,-1.6877 0.0593,-12.0526 0.0592,-21.4316 0.0592,-29.3457 0.055,-32.6859 0.0549,-36.2695 0.0549,-38.1141 0.0549,-38.2126 0.0549,-36.6372 0.055,-33.5284 0.0549,-29.085 0.0549,-23.5504 0.0549,-17.1986 0.0549,-10.3214 0.055,-3.214 0.0549,3.8363 0.0549,10.5614 0.0549,16.7213 0.055,22.1109 0.0549,26.566 0.0549,29.9653 0.0549,32.2328 0.0549,33.3361 0.0549,33.2853 0.055,32.1294 0.0549,29.9511 0.0549,26.8626 0.0549,22.9993 0.1099,32.0829 0.1098,11.313 0.1098,-9.7968 0.1099,-28.8364 0.0569,-21.1509 0.0568,-24.4955 0.0569,-27.0636 0.0569,-28.8138 0.0568,-29.7299 0.0569,-29.8195 0.0569,-29.1129 0.0568,-27.66 0.0569,-25.5276 0.0568,-22.7971 0.0569,-19.5603 0.0569,-15.9176 0.1137,-19.8087 0.1137,-3.0018 0.1138,13.3249 0.1137,27.7603 0.0569,18.391 0.0568,20.8103 0.0569,22.7429 0.0569,24.1667 0.0568,25.0714 0.0569,25.4576 0.0569,25.3366 0.0569,24.7292 0.0568,23.6648 0.0569,22.1799 0.0568,20.3176 0.0569,18.1257 0.1176,29.4007 0.1176,17.1796 0.0589,3.7475 0.0588,0.5046 0.0588,-2.6765 0.0588,-5.7422 0.1176,-19.9813 0.1176,-29.742 0.0589,-17.8237 0.0588,-19.3686 0.0588,-20.5779 0.0588,-21.4441 0.0588,-21.966 0.0588,-22.1475 0.0588,-21.9978 0.0588,-21.5305 0.0588,-20.7631 0.0589,-19.7172 0.0588,-18.4169 0.0588,-16.8895 0.1176,-28.432 0.1176,-20.3367 0.1176,-11.5218 0.1177,-2.4808 0.1172,6.2922 0.1173,14.4068 0.1172,21.5488 0.1173,27.456 0.1172,31.9452 0.1172,34.9118 0.1173,36.3262 0.1172,36.2261 0.1173,34.7089 0.1172,31.9202 0.1173,28.0431 0.1172,23.2872 0.2345,29.9205 0.2345,6.0082 0.1206,-6.0524 0.1206,-11.7657 0.1206,-16.891 0.1206,-21.2976 0.1206,-24.8886 0.1206,-27.6012 0.1206,-29.4045 0.1206,-30.2983 0.1206,-30.3091 0.1206,-29.4871 0.1206,-27.9022 0.1206,-25.6401 0.1206,-22.798 0.1206,-19.4812 0.1206,-15.7992 0.1206,-11.8625 0.1062,-7.0686 0.1063,-3.866 0.0531,-0.7379 0.0531,0.0487 0.0531,0.8237 0.0531,1.5838 0.2125,13.5415 0.2124,23.8345 0.1063,15.1535 0.1062,16.9315 0.1062,18.4059 0.1062,19.5685 0.1062,20.4163 0.1063,20.9516 0.1062,21.1808 0.1062,21.1144 0.1196,23.3406 0.1196,22.526 0.1196,21.3691 0.1196,19.9061 0.2391,34.3939 0.2392,25.8638 0.2392,16.345 0.2391,6.4704 0.2392,-3.187 0.2392,-12.1392 0.2401,-20.0936 0.2402,-26.6196 0.2401,-31.5656 0.2402,-34.8465 0.1201,-18.1319 0.12,-18.3333 0.1201,-18.3395 0.1201,-18.1592 0.2402,-35.0835 0.2401,-32.4011 0.2314,-27.6971 0.2315,-23.4787 0.2314,-18.7163 0.2314,-13.6072 0.2314,-8.3386 0.2315,-3.0822 0.2314,2.0088 0.2314,6.8032 0.4204,23.2409 0.4203,34.5893 0.2102,20.4411 0.2101,21.9193 0.2102,22.934 0.2101,23.4978 0.2499,28.0801 0.2499,27.5934 0.2499,26.4954 0.2499,24.8588 0.25,22.7623 0.2498,20.2867 0.25,17.5135 0.2499,14.5224 0.4233,17.4152 0.4234,8.2221 0.053,0.39 0.0529,0.2512 0.0529,0.1133 0.0529,-0.0232 0.1059,-0.4507 0.1058,-0.9801 0.2117,-3.4962 0.2117,-5.4452 0.4926,-19.4473 0.4925,-27.3512 0.2462,-15.9856 0.2463,-17.1664 0.2462,-18.0792 0.2463,-18.7298 0.436,-33.979 0.4359,-33.92 0.436,-32.6989 0.4359,-30.487 0.4784,-29.95 0.4783,-25.5059 0.4783,-20.5077 0.4783,-15.1942 0.4555,-9.4348 0.4554,-4.5926 0.1139,-0.4122 0.1139,-0.1255 0.1138,0.1566 0.1139,0.4338 0.2277,1.6778 0.2278,2.7196 0.9504,21.4292 0.9505,34.4851 0.4364,18.9627 0.4364,20.3211 0.4365,21.2589 0.4364,21.7985 0.4707,23.6918 0.4707,23.4639 0.4708,22.8569 0.4707,21.9177 0.489,21.4677 0.4889,19.8832 0.489,18.0867 0.489,16.1281 0.8512,23.0859 0.8513,16.5091 0.9194,10.4648 0.9194,3.1643 0.9498,-3.7497 0.9499,-10.0258 0.9292,-14.9418 0.9292,-19.0522 0.8991,-21.4483 0.8991,-23.5761 0.9983,-27.7375 0.9982,-28.4653 0.897,-25.5148 0.897,-24.9227 0.9577,-25.4738 0.9578,-23.8878 0.8678,-20.0006 0.8678,-18.2469 0.9488,-17.7913 0.9488,-15.4376 1.7855,-22.5422 1.8663,-14.6506 0.9123,-4.0215 0.9124,-2.0942 0.2388,-0.2442 0.2387,-0.1226 0.2388,-0.003 0.2388,0.1141 0.4776,0.5707 0.4775,1.011 0.92,3.1178 0.9199,4.5411 1.8814,13.136 1.8659,17.1866 1.7146,18.531 1.965,23.4786 1.7576,22.258 1.874,24.3358 1.7936,23.3243 1.9916,25.3972 1.7246,21.2117 1.9574,22.8828 1.7839,19.5426 1.9514,19.7774 1.6837,15.6366 1.9175,16.1437 1.8522,13.8946 1.851,12.2302 1.8443,10.5753 1.7717,8.6956 1.9153,7.855 1.8254,6.0675 1.9211,4.9786 1.7391,3.3413 1.9221,2.4949 0.9204,0.7771 0.9205,0.5213 0.9183,0.2756 0.9182,0.0418 0.9591,-0.1948 0.9591,-0.4272 0.8834,-0.5894 0.8834,-0.7685 1.8094,-2.0983 1.9978,-3.0661 1.8088,-3.3832 1.8499,-3.9908 1.8812,-4.5462 1.7293,-4.5614 1.8433,-5.2155 1.8293,-5.4891 1.9568,-6.1672 1.7268,-5.6574 1.9923,-6.7356 1.7979,-6.2353 1.779,-6.286 1.9129,-6.8594 1.9207,-6.9623 1.7476,-6.3778 1.8558,-6.7969 1.8111,-6.6387 1.9632,-7.1832 1.6988,-6.1907 1.9511,-7.0671 1.8341,-6.589 1.8164,-6.4628 1.8178,-6.3964 1.8541,-6.4419 1.9653,-6.7299 1.802,-6.0752 1.7788,-5.9023 1.9015,-6.201 1.8973,-6.0717 1.7889,-5.6156"
         style="fill:none"
         clip-path="url(#clipPath2)"
         id="path31"
         inkscape:connector-curvature="0" />
    </g>
    <g
       transform="translate(6,5)"
       style="font-size:16px;font-family:'Times New Roman';color-interpolation:linearRGB;stroke-linecap:butt;stroke-linejoin:round;color-rendering:optimizeQuality;image-rendering:optimizeQuality;text-rendering:optimizeLegibility"
       id="g37">
      <path
         d="M 14.9873,195.0145 H 382.7649"
         style="fill:none"
         clip-path="url(#clipPath1)"
         id="path35"
         inkscape:connector-curvature="0" />
    </g>
    <g
       transform="translate(6,5)"
       style="font-size:16px;font-family:'Times New Roman';color-interpolation:linearRGB;stroke-linecap:butt;stroke-linejoin:round;color-rendering:optimizeQuality;image-rendering:optimizeQuality;text-rendering:optimizeLegibility"
       id="g41">
      <path
         d="m 289.7812,260.9219 q 0.375,0.4062 0.5782,0.8125 0.1406,0.2812 0.4531,1.4844 l 0.6875,-1.0313 q 0.2812,-0.375 0.6719,-0.7187 0.3906,-0.3438 0.6875,-0.4688 0.1875,-0.0781 0.4062,-0.0781 0.3438,0 0.5391,0.1797 0.1953,0.1796 0.1953,0.4453 0,0.2969 -0.1094,0.4062 -0.2187,0.1875 -0.5,0.1875 -0.1718,0 -0.3594,-0.0625 -0.3593,-0.125 -0.4843,-0.125 -0.1875,0 -0.4531,0.2188 -0.4844,0.4062 -1.1563,1.5625 l 0.6406,2.6875 q 0.1563,0.625 0.2578,0.7422 0.1016,0.1171 0.1953,0.1171 0.1719,0 0.3907,-0.1718 0.4219,-0.3594 0.7343,-0.9375 l 0.2657,0.1406 q -0.4844,0.9219 -1.25,1.5313 -0.4219,0.3437 -0.7188,0.3437 -0.4375,0 -0.7031,-0.5 -0.1562,-0.2969 -0.6719,-2.625 -1.2187,2.125 -1.9531,2.7344 -0.4844,0.3906 -0.9219,0.3906 -0.3281,0 -0.5781,-0.2344 -0.1875,-0.1719 -0.1875,-0.4531 0,-0.2656 0.1719,-0.4375 0.1718,-0.1719 0.4218,-0.1719 0.25,0 0.5313,0.25 0.2031,0.1875 0.3125,0.1875 0.0938,0 0.25,-0.125 0.3594,-0.2969 0.9922,-1.2812 0.6328,-0.9844 0.8359,-1.4219 -0.4843,-1.9062 -0.5312,-2.0156 -0.1719,-0.5 -0.461,-0.711 -0.289,-0.2109 -0.8515,-0.2109 -0.1875,0 -0.4219,0.0156 v -0.2812 z"
         style="stroke:none"
         clip-path="url(#clipPath3)"
         id="path39"
         inkscape:connector-curvature="0" />
    </g>
    <g
       transform="translate(6,5)"
       style="font-size:16px;font-family:'Times New Roman';color-interpolation:linearRGB;color-rendering:optimizeQuality;image-rendering:optimizeQuality;text-rendering:optimizeLegibility"
       id="g45">
      <path
         d="m 28.7283,195.0145 v 4"
         style="fill:none"
         clip-path="url(#clipPath1)"
         id="path43"
         inkscape:connector-curvature="0" />
    </g>
    <g
       style="font-size:16px;font-family:'Times New Roman';color-interpolation:linearRGB;color-rendering:optimizeQuality;image-rendering:optimizeQuality;text-rendering:optimizeLegibility"
       id="g49">
      <path
         d="M 25.5938,235.5156 H 12.4062 v -1.0312 h 13.1876 z"
         style="stroke:none"
         clip-path="url(#clipPath5)"
         id="path47"
         inkscape:connector-curvature="0" />
    </g>
    <g
       style="font-size:16px;font-family:'Times New Roman';color-interpolation:linearRGB;color-rendering:optimizeQuality;image-rendering:optimizeQuality;text-rendering:optimizeLegibility"
       id="g59">
      <path
         d="m 29.0156,217.2812 q 0.5625,-1.3437 1.4297,-2.0703 0.8672,-0.7265 2.1485,-0.7265 1.5937,0 2.4531,1.0312 0.6406,0.7813 0.6406,1.6563 0,1.4375 -1.8125,2.9843 1.2188,0.4844 1.8438,1.3672 0.625,0.8828 0.625,2.086 0,1.7187 -1.0938,2.9844 -1.4219,1.6406 -4.1406,1.6406 -1.3282,0 -1.8125,-0.336 -0.4844,-0.3359 -0.4844,-0.7109 0,-0.2813 0.2266,-0.5 0.2265,-0.2187 0.5547,-0.2187 0.25,0 0.5,0.0781 0.1562,0.0625 0.7421,0.3672 0.586,0.3047 0.8203,0.3671 0.3594,0.1094 0.7657,0.1094 1,0 1.7343,-0.7734 0.7344,-0.7734 0.7344,-1.836 0,-0.7656 -0.3437,-1.5 -0.25,-0.5468 -0.5469,-0.8281 -0.4219,-0.3906 -1.1562,-0.7109 -0.7344,-0.3203 -1.5,-0.3203 h -0.3126 v -0.2813 q 0.7813,-0.1094 1.5547,-0.5625 0.7735,-0.4531 1.125,-1.1015 0.3516,-0.6485 0.3516,-1.4141 0,-1.0156 -0.625,-1.6328 -0.625,-0.6172 -1.5625,-0.6172 -1.5156,0 -2.5312,1.625 z"
         style="stroke:none"
         clip-path="url(#clipPath4)"
         id="path51"
         inkscape:connector-curvature="0" />
      <path
         d="m 53.5938,224.9844 q 0,0.5781 -0.1563,1.1797 -0.1563,0.6015 -0.4531,1.0781 -0.2969,0.4766 -0.75,0.7734 -0.4532,0.2969 -1.0313,0.2969 -0.5625,0 -1.0234,-0.4766 -0.4609,-0.4765 -0.7422,-1.4297 -0.0313,-0.1406 -0.0625,-0.3671 -0.0312,-0.2266 -0.0547,-0.461 -0.0234,-0.2343 -0.0312,-0.4687 -0.0079,-0.2344 -0.0079,-0.3906 0,-1.1407 0.1563,-2.336 0.1563,-1.1953 0.2656,-2.3984 h -2.2656 q -0.2031,2.2344 -0.3984,3.7734 -0.1953,1.5391 -0.4141,2.7578 -0.0625,0.3282 -0.125,0.6094 -0.0625,0.2812 -0.1562,0.4688 -0.2188,0.4687 -0.5391,0.625 -0.3203,0.1562 -0.6016,0.1562 -0.4687,0 -0.7656,-0.3281 -0.2969,-0.3281 -0.2969,-0.7031 0,-0.4219 0.2188,-0.7032 0.2187,-0.2812 0.5,-0.625 0.2656,-0.2968 0.4922,-0.625 0.2265,-0.3281 0.289,-0.8281 l 0.5782,-4.5781 h -0.9376 q -0.3281,0 -0.7031,0.1562 -0.375,0.1563 -0.6406,0.5156 l -0.3906,0.5782 h -0.3438 q 0.4375,-1.3906 1.0938,-2.1797 0.6562,-0.7891 1.75,-0.7891 h 7.3906 v 1.7188 h -2.5156 q -0.0625,0.5781 -0.1094,1.2187 -0.0469,0.6407 -0.0781,1.2657 -0.0313,0.625 -0.0391,1.1874 -0.0078,0.5626 -0.0078,0.9688 0,0.3281 0.0625,0.6641 0.0625,0.3359 0.2266,0.5937 0.164,0.2578 0.414,0.4297 0.25,0.1719 0.6094,0.1719 0.2188,0 0.5156,-0.1641 0.2969,-0.1641 0.4844,-0.5234 0.0781,-0.1563 0.1094,-0.3672 0.0312,-0.2109 0.0468,-0.4453 z"
         style="stroke:none"
         clip-path="url(#clipPath4)"
         id="path53"
         inkscape:connector-curvature="0" />
      <path
         d="m 32.0156,243.2812 q 0.5625,-1.3437 1.4297,-2.0703 0.8672,-0.7265 2.1485,-0.7265 1.5937,0 2.4531,1.0312 0.6406,0.7813 0.6406,1.6563 0,1.4375 -1.8125,2.9843 1.2188,0.4844 1.8438,1.3672 0.625,0.8828 0.625,2.086 0,1.7187 -1.0938,2.9844 -1.4219,1.6406 -4.1406,1.6406 -1.3282,0 -1.8125,-0.336 -0.4844,-0.3359 -0.4844,-0.7109 0,-0.2813 0.2266,-0.5 0.2265,-0.2187 0.5547,-0.2187 0.25,0 0.5,0.0781 0.1562,0.0625 0.7421,0.3672 0.586,0.3047 0.8203,0.3671 0.3594,0.1094 0.7657,0.1094 1,0 1.7343,-0.7734 0.7344,-0.7734 0.7344,-1.836 0,-0.7656 -0.3437,-1.5 -0.25,-0.5468 -0.5469,-0.8281 -0.4219,-0.3906 -1.1562,-0.7109 -0.7344,-0.3203 -1.5,-0.3203 h -0.3126 v -0.2813 q 0.7813,-0.1094 1.5547,-0.5625 0.7735,-0.4531 1.125,-1.1015 0.3516,-0.6485 0.3516,-1.4141 0,-1.0156 -0.625,-1.6328 -0.625,-0.6172 -1.5625,-0.6172 -1.5156,0 -2.5312,1.625 z M 50.1719,251.4531 49.25,254 h -7.8125 v -0.3594 q 3.4375,-3.1406 4.8437,-5.1328 1.4063,-1.9922 1.4063,-3.6484 0,-1.2656 -0.7734,-2.0703 -0.7735,-0.8047 -1.836,-0.8047 -0.9843,0 -1.7578,0.5703 -0.7734,0.5703 -1.1484,1.6641 h -0.3594 q 0.25,-1.7969 1.2578,-2.7657 1.0078,-0.9687 2.5235,-0.9687 1.6093,0 2.6874,1.0312 1.0782,1.0313 1.0782,2.4375 0,1.0157 -0.4688,2.0157 -0.7187,1.5781 -2.3437,3.3593 -2.4375,2.6563 -3.0313,3.2031 h 3.4532 q 1.0468,0 1.4765,-0.0781 0.4297,-0.0781 0.7735,-0.3203 0.3437,-0.2422 0.5937,-0.6797 z"
         style="stroke:none"
         clip-path="url(#clipPath4)"
         id="path55"
         inkscape:connector-curvature="0" />
      <line
         x1="24"
         x2="58"
         y1="234"
         style="fill:none"
         y2="234"
         clip-path="url(#clipPath4)"
         id="line57" />
    </g>
    <g
       transform="translate(6,5)"
       style="font-size:16px;font-family:'Times New Roman';color-interpolation:linearRGB;color-rendering:optimizeQuality;image-rendering:optimizeQuality;text-rendering:optimizeLegibility"
       id="g63">
      <path
         d="m 85.4443,195.0145 v 4"
         style="fill:none"
         clip-path="url(#clipPath1)"
         id="path61"
         inkscape:connector-curvature="0" />
    </g>
    <g
       style="font-size:16px;font-family:'Times New Roman';color-interpolation:linearRGB;color-rendering:optimizeQuality;image-rendering:optimizeQuality;text-rendering:optimizeLegibility"
       id="g67">
      <path
         d="M 84.5938,235.5156 H 71.4062 v -1.0312 h 13.1876 z"
         style="stroke:none"
         clip-path="url(#clipPath6)"
         id="path65"
         inkscape:connector-curvature="0" />
    </g>
    <g
       style="font-size:16px;font-family:'Times New Roman';color-interpolation:linearRGB;color-rendering:optimizeQuality;image-rendering:optimizeQuality;text-rendering:optimizeLegibility"
       id="g75">
      <path
         d="m 102.5938,224.9844 q 0,0.5781 -0.1563,1.1797 -0.1563,0.6015 -0.4531,1.0781 -0.2969,0.4766 -0.75,0.7734 -0.4532,0.2969 -1.0313,0.2969 -0.5625,0 -1.0234,-0.4766 -0.4609,-0.4765 -0.7422,-1.4297 -0.0313,-0.1406 -0.0625,-0.3671 -0.0312,-0.2266 -0.0547,-0.461 -0.0234,-0.2343 -0.0312,-0.4687 -0.0079,-0.2344 -0.0079,-0.3906 0,-1.1407 0.1563,-2.336 0.1563,-1.1953 0.2656,-2.3984 h -2.2656 q -0.2031,2.2344 -0.3984,3.7734 -0.1953,1.5391 -0.4141,2.7578 -0.0625,0.3282 -0.125,0.6094 -0.0625,0.2812 -0.1562,0.4688 -0.2188,0.4687 -0.5391,0.625 -0.3203,0.1562 -0.6016,0.1562 -0.4687,0 -0.7656,-0.3281 -0.2969,-0.3281 -0.2969,-0.7031 0,-0.4219 0.2188,-0.7032 0.2187,-0.2812 0.5,-0.625 0.2656,-0.2968 0.4922,-0.625 0.2265,-0.3281 0.289,-0.8281 l 0.5782,-4.5781 h -0.9376 q -0.3281,0 -0.7031,0.1562 -0.375,0.1563 -0.6406,0.5156 l -0.3906,0.5782 h -0.3438 q 0.4375,-1.3906 1.0938,-2.1797 0.6562,-0.7891 1.75,-0.7891 h 7.3906 v 1.7188 h -2.5156 q -0.0625,0.5781 -0.1094,1.2187 -0.0469,0.6407 -0.0781,1.2657 -0.0313,0.625 -0.0391,1.1874 -0.0078,0.5626 -0.0078,0.9688 0,0.3281 0.0625,0.6641 0.0625,0.3359 0.2266,0.5937 0.164,0.2578 0.414,0.4297 0.25,0.1719 0.6094,0.1719 0.2188,0 0.5156,-0.1641 0.2969,-0.1641 0.4844,-0.5234 0.0781,-0.1563 0.1094,-0.3672 0.0312,-0.2109 0.0468,-0.4453 z"
         style="stroke:none"
         clip-path="url(#clipPath4)"
         id="path69"
         inkscape:connector-curvature="0" />
      <path
         d="m 89.3438,242.0625 3.2187,-1.5781 h 0.3281 v 11.1875 q 0,1.1093 0.0938,1.3828 0.0937,0.2734 0.3828,0.4219 0.289,0.1484 1.1953,0.164 V 254 h -4.9844 v -0.3594 q 0.9375,-0.0156 1.211,-0.164 0.2734,-0.1485 0.3828,-0.3828 0.1093,-0.2344 0.1093,-1.4219 v -7.1563 q 0,-1.4375 -0.0937,-1.8594 -0.0781,-0.3124 -0.2578,-0.4531 -0.1797,-0.1406 -0.4297,-0.1406 -0.3594,0 -1.0156,0.2969 z m 16.625,-1.5781 v 0.3594 q -1.2969,0.125 -2.1094,0.5156 -0.8125,0.3906 -1.6094,1.1797 -0.7969,0.789 -1.3203,1.7578 -0.5235,0.9687 -0.8672,2.3125 1.4063,-0.9688 2.8125,-0.9688 1.3594,0 2.3594,1.0938 1,1.0937 1,2.8125 0,1.6562 -1.0156,3.0312 -1.2032,1.6563 -3.2032,1.6563 -1.3594,0 -2.2968,-0.9063 -1.8594,-1.7343 -1.8594,-4.5312 0,-1.7657 0.7109,-3.3672 0.7109,-1.6016 2.0391,-2.8438 1.3281,-1.2421 2.539,-1.6718 1.211,-0.4297 2.2578,-0.4297 z m -6.0782,6.8281 q -0.1718,1.3281 -0.1718,2.1406 0,0.9375 0.3437,2.0313 0.3437,1.0937 1.0313,1.75 0.5,0.4531 1.2031,0.4531 0.8593,0 1.5234,-0.8047 0.6641,-0.8047 0.6641,-2.289 0,-1.6563 -0.6641,-2.8829 -0.6641,-1.2265 -1.8828,-1.2265 -0.3594,0 -0.7891,0.1562 -0.4296,0.1563 -1.2578,0.6719 z"
         style="stroke:none"
         clip-path="url(#clipPath4)"
         id="path71"
         inkscape:connector-curvature="0" />
      <line
         x1="83"
         x2="112"
         y1="234"
         style="fill:none"
         y2="234"
         clip-path="url(#clipPath4)"
         id="line73" />
    </g>
    <g
       transform="translate(6,5)"
       style="font-size:16px;font-family:'Times New Roman';color-interpolation:linearRGB;color-rendering:optimizeQuality;image-rendering:optimizeQuality;text-rendering:optimizeLegibility"
       id="g79">
      <path
         d="m 142.1602,195.0145 v 4"
         style="fill:none"
         clip-path="url(#clipPath1)"
         id="path77"
         inkscape:connector-curvature="0" />
    </g>
    <g
       style="font-size:16px;font-family:'Times New Roman';color-interpolation:linearRGB;color-rendering:optimizeQuality;image-rendering:optimizeQuality;text-rendering:optimizeLegibility"
       id="g83">
      <path
         d="m 141.5938,235.5156 h -13.1876 v -1.0312 h 13.1876 z"
         style="stroke:none"
         clip-path="url(#clipPath7)"
         id="path81"
         inkscape:connector-curvature="0" />
    </g>
    <g
       style="font-size:16px;font-family:'Times New Roman';color-interpolation:linearRGB;color-rendering:optimizeQuality;image-rendering:optimizeQuality;text-rendering:optimizeLegibility"
       id="g91">
      <path
         d="m 159.5938,224.9844 q 0,0.5781 -0.1563,1.1797 -0.1563,0.6015 -0.4531,1.0781 -0.2969,0.4766 -0.75,0.7734 -0.4532,0.2969 -1.0313,0.2969 -0.5625,0 -1.0234,-0.4766 -0.4609,-0.4765 -0.7422,-1.4297 -0.0313,-0.1406 -0.0625,-0.3671 -0.0312,-0.2266 -0.0547,-0.461 -0.0234,-0.2343 -0.0312,-0.4687 -0.008,-0.2344 -0.008,-0.3906 0,-1.1407 0.1563,-2.336 0.1563,-1.1953 0.2656,-2.3984 h -2.2656 q -0.2031,2.2344 -0.3984,3.7734 -0.1953,1.5391 -0.4141,2.7578 -0.0625,0.3282 -0.125,0.6094 -0.0625,0.2812 -0.1562,0.4688 -0.2188,0.4687 -0.5391,0.625 -0.3203,0.1562 -0.6016,0.1562 -0.4687,0 -0.7656,-0.3281 -0.2969,-0.3281 -0.2969,-0.7031 0,-0.4219 0.2188,-0.7032 0.2187,-0.2812 0.5,-0.625 0.2656,-0.2968 0.4922,-0.625 0.2265,-0.3281 0.289,-0.8281 l 0.5782,-4.5781 h -0.9376 q -0.3281,0 -0.7031,0.1562 -0.375,0.1563 -0.6406,0.5156 l -0.3906,0.5782 h -0.3438 q 0.4375,-1.3906 1.0938,-2.1797 0.6562,-0.7891 1.75,-0.7891 h 7.3906 v 1.7188 h -2.5156 q -0.0625,0.5781 -0.1094,1.2187 -0.0469,0.6407 -0.0781,1.2657 -0.0313,0.625 -0.0391,1.1874 -0.008,0.5626 -0.008,0.9688 0,0.3281 0.0625,0.6641 0.0625,0.3359 0.2266,0.5937 0.164,0.2578 0.414,0.4297 0.25,0.1719 0.6094,0.1719 0.2188,0 0.5156,-0.1641 0.2969,-0.1641 0.4844,-0.5234 0.0781,-0.1563 0.1094,-0.3672 0.0312,-0.2109 0.0468,-0.4453 h 0.4376 z"
         style="stroke:none"
         clip-path="url(#clipPath4)"
         id="path85"
         inkscape:connector-curvature="0" />
      <path
         d="m 145.0156,243.2812 q 0.5625,-1.3437 1.4297,-2.0703 0.8672,-0.7265 2.1485,-0.7265 1.5937,0 2.4531,1.0312 0.6406,0.7813 0.6406,1.6563 0,1.4375 -1.8125,2.9843 1.2188,0.4844 1.8438,1.3672 0.625,0.8828 0.625,2.086 0,1.7187 -1.0938,2.9844 -1.4219,1.6406 -4.1406,1.6406 -1.3282,0 -1.8125,-0.336 -0.4844,-0.3359 -0.4844,-0.7109 0,-0.2813 0.2266,-0.5 0.2265,-0.2187 0.5547,-0.2187 0.25,0 0.5,0.0781 0.1562,0.0625 0.7421,0.3672 0.586,0.3047 0.8203,0.3671 0.3594,0.1094 0.7657,0.1094 1,0 1.7343,-0.7734 0.7344,-0.7734 0.7344,-1.836 0,-0.7656 -0.3437,-1.5 -0.25,-0.5468 -0.5469,-0.8281 -0.4219,-0.3906 -1.1562,-0.7109 -0.7344,-0.3203 -1.5,-0.3203 h -0.3126 v -0.2813 q 0.7813,-0.1094 1.5547,-0.5625 0.7735,-0.4531 1.125,-1.1015 0.3516,-0.6485 0.3516,-1.4141 0,-1.0156 -0.625,-1.6328 -0.625,-0.6172 -1.5625,-0.6172 -1.5156,0 -2.5312,1.625 z m 18.1563,8.1719 L 162.25,254 h -7.8125 v -0.3594 q 3.4375,-3.1406 4.8437,-5.1328 1.4063,-1.9922 1.4063,-3.6484 0,-1.2656 -0.7734,-2.0703 -0.7735,-0.8047 -1.836,-0.8047 -0.9843,0 -1.7578,0.5703 -0.7734,0.5703 -1.1484,1.6641 h -0.3594 q 0.25,-1.7969 1.2578,-2.7657 1.0078,-0.9687 2.5235,-0.9687 1.6093,0 2.6874,1.0312 1.0782,1.0313 1.0782,2.4375 0,1.0157 -0.4688,2.0157 -0.7187,1.5781 -2.3437,3.3593 -2.4375,2.6563 -3.0313,3.2031 h 3.4532 q 1.0468,0 1.4765,-0.0781 0.4297,-0.0781 0.7735,-0.3203 0.3437,-0.2422 0.5937,-0.6797 z"
         style="stroke:none"
         clip-path="url(#clipPath4)"
         id="path87"
         inkscape:connector-curvature="0" />
      <line
         x1="140"
         x2="169"
         y1="234"
         style="fill:none"
         y2="234"
         clip-path="url(#clipPath4)"
         id="line89" />
    </g>
    <g
       transform="translate(6,5)"
       style="font-size:16px;font-family:'Times New Roman';color-interpolation:linearRGB;color-rendering:optimizeQuality;image-rendering:optimizeQuality;text-rendering:optimizeLegibility"
       id="g97">
      <path
         d="m 198.8761,195.0145 v 4"
         style="fill:none"
         clip-path="url(#clipPath1)"
         id="path93"
         inkscape:connector-curvature="0" />
      <path
         d="m 190.7188,216.4531 q 0,-2.2656 0.6874,-3.8984 0.6876,-1.6328 1.8126,-2.4297 0.8906,-0.6406 1.8281,-0.6406 1.5156,0 2.7343,1.5468 1.5,1.9219 1.5,5.2188 0,2.3125 -0.664,3.9219 -0.6641,1.6093 -1.6875,2.3359 -1.0235,0.7266 -1.9922,0.7266 -1.8906,0 -3.1563,-2.2344 -1.0624,-1.8906 -1.0624,-4.5469 z m 1.9218,0.25 q 0,2.7344 0.6719,4.4531 0.5625,1.4688 1.6563,1.4688 0.5312,0 1.0937,-0.4766 0.5625,-0.4765 0.8594,-1.5859 0.4531,-1.6875 0.4531,-4.7344 0,-2.2656 -0.4688,-3.7812 -0.3593,-1.125 -0.9062,-1.5938 -0.4062,-0.3281 -0.9688,-0.3281 -0.6718,0 -1.1874,0.5938 -0.7032,0.8124 -0.9532,2.5546 -0.25,1.7422 -0.25,3.4297 z"
         style="stroke:none"
         transform="translate(-6,-5)"
         clip-path="url(#clipPath4)"
         id="path95"
         inkscape:connector-curvature="0" />
    </g>
    <g
       transform="translate(6,5)"
       style="font-size:16px;font-family:'Times New Roman';color-interpolation:linearRGB;color-rendering:optimizeQuality;image-rendering:optimizeQuality;text-rendering:optimizeLegibility"
       id="g107">
      <path
         d="m 255.5921,195.0145 v 4"
         style="fill:none"
         clip-path="url(#clipPath1)"
         id="path99"
         inkscape:connector-curvature="0" />
      <path
         d="m 266.5938,224.9844 q 0,0.5781 -0.1563,1.1797 -0.1563,0.6015 -0.4531,1.0781 -0.2969,0.4766 -0.75,0.7734 -0.4532,0.2969 -1.0313,0.2969 -0.5625,0 -1.0234,-0.4766 -0.4609,-0.4765 -0.7422,-1.4297 -0.0313,-0.1406 -0.0625,-0.3671 -0.0312,-0.2266 -0.0547,-0.461 -0.0234,-0.2343 -0.0312,-0.4687 -0.008,-0.2344 -0.008,-0.3906 0,-1.1407 0.1563,-2.336 0.1563,-1.1953 0.2656,-2.3984 h -2.2656 q -0.2031,2.2344 -0.3984,3.7734 -0.1953,1.5391 -0.4141,2.7578 -0.0625,0.3282 -0.125,0.6094 -0.0625,0.2812 -0.1562,0.4688 -0.2188,0.4687 -0.5391,0.625 -0.3203,0.1562 -0.6016,0.1562 -0.4687,0 -0.7656,-0.3281 -0.2969,-0.3281 -0.2969,-0.7031 0,-0.4219 0.2188,-0.7032 0.2187,-0.2812 0.5,-0.625 0.2656,-0.2968 0.4922,-0.625 0.2265,-0.3281 0.289,-0.8281 l 0.5782,-4.5781 h -0.9376 q -0.3281,0 -0.7031,0.1562 -0.375,0.1563 -0.6406,0.5156 l -0.3906,0.5782 h -0.3438 q 0.4375,-1.3906 1.0938,-2.1797 0.6562,-0.7891 1.75,-0.7891 h 7.3906 v 1.7188 h -2.5156 q -0.0625,0.5781 -0.1094,1.2187 -0.0469,0.6407 -0.0781,1.2657 -0.0313,0.625 -0.0391,1.1874 -0.008,0.5626 -0.008,0.9688 0,0.3281 0.0625,0.6641 0.0625,0.3359 0.2266,0.5937 0.164,0.2578 0.414,0.4297 0.25,0.1719 0.6094,0.1719 0.2188,0 0.5156,-0.1641 0.2969,-0.1641 0.4844,-0.5234 0.0781,-0.1563 0.1094,-0.3672 0.0312,-0.2109 0.0468,-0.4453 h 0.4376 z"
         style="stroke:none"
         transform="translate(-6,-5)"
         clip-path="url(#clipPath4)"
         id="path101"
         inkscape:connector-curvature="0" />
      <path
         d="m 252.0156,243.2812 q 0.5625,-1.3437 1.4297,-2.0703 0.8672,-0.7265 2.1485,-0.7265 1.5937,0 2.4531,1.0312 0.6406,0.7813 0.6406,1.6563 0,1.4375 -1.8125,2.9843 1.2188,0.4844 1.8438,1.3672 0.625,0.8828 0.625,2.086 0,1.7187 -1.0938,2.9844 -1.4219,1.6406 -4.1406,1.6406 -1.3282,0 -1.8125,-0.336 -0.4844,-0.3359 -0.4844,-0.7109 0,-0.2813 0.2266,-0.5 0.2265,-0.2187 0.5547,-0.2187 0.25,0 0.5,0.0781 0.1562,0.0625 0.7421,0.3672 0.586,0.3047 0.8203,0.3671 0.3594,0.1094 0.7657,0.1094 1,0 1.7343,-0.7734 0.7344,-0.7734 0.7344,-1.836 0,-0.7656 -0.3437,-1.5 -0.25,-0.5468 -0.5469,-0.8281 -0.4219,-0.3906 -1.1562,-0.7109 -0.7344,-0.3203 -1.5,-0.3203 h -0.3126 v -0.2813 q 0.7813,-0.1094 1.5547,-0.5625 0.7735,-0.4531 1.125,-1.1015 0.3516,-0.6485 0.3516,-1.4141 0,-1.0156 -0.625,-1.6328 -0.625,-0.6172 -1.5625,-0.6172 -1.5156,0 -2.5312,1.625 z m 18.1563,8.1719 L 269.25,254 h -7.8125 v -0.3594 q 3.4375,-3.1406 4.8437,-5.1328 1.4063,-1.9922 1.4063,-3.6484 0,-1.2656 -0.7734,-2.0703 -0.7735,-0.8047 -1.836,-0.8047 -0.9843,0 -1.7578,0.5703 -0.7734,0.5703 -1.1484,1.6641 h -0.3594 q 0.25,-1.7969 1.2578,-2.7657 1.0078,-0.9687 2.5235,-0.9687 1.6093,0 2.6874,1.0312 1.0782,1.0313 1.0782,2.4375 0,1.0157 -0.4688,2.0157 -0.7187,1.5781 -2.3437,3.3593 -2.4375,2.6563 -3.0313,3.2031 h 3.4532 q 1.0468,0 1.4765,-0.0781 0.4297,-0.0781 0.7735,-0.3203 0.3437,-0.2422 0.5937,-0.6797 z"
         style="stroke:none"
         transform="translate(-6,-5)"
         clip-path="url(#clipPath4)"
         id="path103"
         inkscape:connector-curvature="0" />
      <line
         transform="translate(-6,-5)"
         x1="247"
         x2="276"
         y1="234"
         style="fill:none"
         y2="234"
         clip-path="url(#clipPath4)"
         id="line105" />
    </g>
    <g
       transform="translate(6,5)"
       style="font-size:16px;font-family:'Times New Roman';color-interpolation:linearRGB;color-rendering:optimizeQuality;image-rendering:optimizeQuality;text-rendering:optimizeLegibility"
       id="g117">
      <path
         d="m 312.308,195.0145 v 4"
         style="fill:none"
         clip-path="url(#clipPath1)"
         id="path109"
         inkscape:connector-curvature="0" />
      <path
         d="m 323.5938,224.9844 q 0,0.5781 -0.1563,1.1797 -0.1563,0.6015 -0.4531,1.0781 -0.2969,0.4766 -0.75,0.7734 -0.4532,0.2969 -1.0313,0.2969 -0.5625,0 -1.0234,-0.4766 -0.4609,-0.4765 -0.7422,-1.4297 -0.0313,-0.1406 -0.0625,-0.3671 -0.0312,-0.2266 -0.0547,-0.461 -0.0234,-0.2343 -0.0312,-0.4687 -0.008,-0.2344 -0.008,-0.3906 0,-1.1407 0.1563,-2.336 0.1563,-1.1953 0.2656,-2.3984 h -2.2656 q -0.2031,2.2344 -0.3984,3.7734 -0.1953,1.5391 -0.4141,2.7578 -0.0625,0.3282 -0.125,0.6094 -0.0625,0.2812 -0.1562,0.4688 -0.2188,0.4687 -0.5391,0.625 -0.3203,0.1562 -0.6016,0.1562 -0.4687,0 -0.7656,-0.3281 -0.2969,-0.3281 -0.2969,-0.7031 0,-0.4219 0.2188,-0.7032 0.2187,-0.2812 0.5,-0.625 0.2656,-0.2968 0.4922,-0.625 0.2265,-0.3281 0.289,-0.8281 l 0.5782,-4.5781 h -0.9376 q -0.3281,0 -0.7031,0.1562 -0.375,0.1563 -0.6406,0.5156 l -0.3906,0.5782 h -0.3438 q 0.4375,-1.3906 1.0938,-2.1797 0.6562,-0.7891 1.75,-0.7891 h 7.3906 v 1.7188 h -2.5156 q -0.0625,0.5781 -0.1094,1.2187 -0.0469,0.6407 -0.0781,1.2657 -0.0313,0.625 -0.0391,1.1874 -0.008,0.5626 -0.008,0.9688 0,0.3281 0.0625,0.6641 0.0625,0.3359 0.2266,0.5937 0.164,0.2578 0.414,0.4297 0.25,0.1719 0.6094,0.1719 0.2188,0 0.5156,-0.1641 0.2969,-0.1641 0.4844,-0.5234 0.0781,-0.1563 0.1094,-0.3672 0.0312,-0.2109 0.0468,-0.4453 h 0.4376 z"
         style="stroke:none"
         transform="translate(-6,-5)"
         clip-path="url(#clipPath4)"
         id="path111"
         inkscape:connector-curvature="0" />
      <path
         d="m 310.3438,242.0625 3.2187,-1.5781 h 0.3281 v 11.1875 q 0,1.1093 0.0938,1.3828 0.0937,0.2734 0.3828,0.4219 0.289,0.1484 1.1953,0.164 V 254 h -4.9844 v -0.3594 q 0.9375,-0.0156 1.211,-0.164 0.2734,-0.1485 0.3828,-0.3828 0.1093,-0.2344 0.1093,-1.4219 v -7.1563 q 0,-1.4375 -0.0937,-1.8594 -0.0781,-0.3124 -0.2578,-0.4531 -0.1797,-0.1406 -0.4297,-0.1406 -0.3594,0 -1.0156,0.2969 z m 16.625,-1.5781 v 0.3594 q -1.2969,0.125 -2.1094,0.5156 -0.8125,0.3906 -1.6094,1.1797 -0.7969,0.789 -1.3203,1.7578 -0.5235,0.9687 -0.8672,2.3125 1.4063,-0.9688 2.8125,-0.9688 1.3594,0 2.3594,1.0938 1,1.0937 1,2.8125 0,1.6562 -1.0156,3.0312 -1.2032,1.6563 -3.2032,1.6563 -1.3594,0 -2.2968,-0.9063 -1.8594,-1.7343 -1.8594,-4.5312 0,-1.7657 0.7109,-3.3672 0.7109,-1.6016 2.0391,-2.8438 1.3281,-1.2421 2.539,-1.6718 1.211,-0.4297 2.2578,-0.4297 z m -6.0782,6.8281 q -0.1718,1.3281 -0.1718,2.1406 0,0.9375 0.3437,2.0313 0.3437,1.0937 1.0313,1.75 0.5,0.4531 1.2031,0.4531 0.8593,0 1.5234,-0.8047 0.6641,-0.8047 0.6641,-2.289 0,-1.6563 -0.6641,-2.8829 -0.6641,-1.2265 -1.8828,-1.2265 -0.3594,0 -0.7891,0.1562 -0.4296,0.1563 -1.2578,0.6719 z"
         style="stroke:none"
         transform="translate(-6,-5)"
         clip-path="url(#clipPath4)"
         id="path113"
         inkscape:connector-curvature="0" />
      <line
         transform="translate(-6,-5)"
         x1="304"
         x2="333"
         y1="234"
         style="fill:none"
         y2="234"
         clip-path="url(#clipPath4)"
         id="line115" />
    </g>
    <g
       transform="translate(6,5)"
       style="font-size:16px;font-family:'Times New Roman';color-interpolation:linearRGB;color-rendering:optimizeQuality;image-rendering:optimizeQuality;text-rendering:optimizeLegibility"
       id="g129">
      <path
         d="m 369.0239,195.0145 v 4"
         style="fill:none"
         clip-path="url(#clipPath1)"
         id="path119"
         inkscape:connector-curvature="0" />
      <path
         d="m 363.0156,217.2812 q 0.5625,-1.3437 1.4297,-2.0703 0.8672,-0.7265 2.1485,-0.7265 1.5937,0 2.4531,1.0312 0.6406,0.7813 0.6406,1.6563 0,1.4375 -1.8125,2.9843 1.2188,0.4844 1.8438,1.3672 0.625,0.8828 0.625,2.086 0,1.7187 -1.0938,2.9844 -1.4219,1.6406 -4.1406,1.6406 -1.3282,0 -1.8125,-0.336 -0.4844,-0.3359 -0.4844,-0.7109 0,-0.2813 0.2266,-0.5 0.2265,-0.2187 0.5547,-0.2187 0.25,0 0.5,0.0781 0.1562,0.0625 0.7421,0.3672 0.586,0.3047 0.8203,0.3671 0.3594,0.1094 0.7657,0.1094 1,0 1.7343,-0.7734 0.7344,-0.7734 0.7344,-1.836 0,-0.7656 -0.3437,-1.5 -0.25,-0.5468 -0.5469,-0.8281 -0.4219,-0.3906 -1.1562,-0.7109 -0.7344,-0.3203 -1.5,-0.3203 h -0.3126 v -0.2813 q 0.7813,-0.1094 1.5547,-0.5625 0.7735,-0.4531 1.125,-1.1015 0.3516,-0.6485 0.3516,-1.4141 0,-1.0156 -0.625,-1.6328 -0.625,-0.6172 -1.5625,-0.6172 -1.5156,0 -2.5312,1.625 z"
         style="stroke:none"
         transform="translate(-6,-5)"
         clip-path="url(#clipPath4)"
         id="path121"
         inkscape:connector-curvature="0" />
      <path
         d="m 387.5938,224.9844 q 0,0.5781 -0.1563,1.1797 -0.1563,0.6015 -0.4531,1.0781 -0.2969,0.4766 -0.75,0.7734 -0.4532,0.2969 -1.0313,0.2969 -0.5625,0 -1.0234,-0.4766 -0.4609,-0.4765 -0.7422,-1.4297 -0.0313,-0.1406 -0.0625,-0.3671 -0.0312,-0.2266 -0.0547,-0.461 -0.0234,-0.2343 -0.0312,-0.4687 -0.008,-0.2344 -0.008,-0.3906 0,-1.1407 0.1563,-2.336 0.1563,-1.1953 0.2656,-2.3984 h -2.2656 q -0.2031,2.2344 -0.3984,3.7734 -0.1953,1.5391 -0.4141,2.7578 -0.0625,0.3282 -0.125,0.6094 -0.0625,0.2812 -0.1562,0.4688 -0.2188,0.4687 -0.5391,0.625 -0.3203,0.1562 -0.6016,0.1562 -0.4687,0 -0.7656,-0.3281 -0.2969,-0.3281 -0.2969,-0.7031 0,-0.4219 0.2188,-0.7032 0.2187,-0.2812 0.5,-0.625 0.2656,-0.2968 0.4922,-0.625 0.2265,-0.3281 0.289,-0.8281 l 0.5782,-4.5781 h -0.9376 q -0.3281,0 -0.7031,0.1562 -0.375,0.1563 -0.6406,0.5156 l -0.3906,0.5782 h -0.3438 q 0.4375,-1.3906 1.0938,-2.1797 0.6562,-0.7891 1.75,-0.7891 h 7.3906 v 1.7188 h -2.5156 q -0.0625,0.5781 -0.1094,1.2187 -0.0469,0.6407 -0.0781,1.2657 -0.0313,0.625 -0.0391,1.1874 -0.008,0.5626 -0.008,0.9688 0,0.3281 0.0625,0.6641 0.0625,0.3359 0.2266,0.5937 0.164,0.2578 0.414,0.4297 0.25,0.1719 0.6094,0.1719 0.2188,0 0.5156,-0.1641 0.2969,-0.1641 0.4844,-0.5234 0.0781,-0.1563 0.1094,-0.3672 0.0312,-0.2109 0.0468,-0.4453 h 0.4376 z"
         style="stroke:none"
         transform="translate(-6,-5)"
         clip-path="url(#clipPath4)"
         id="path123"
         inkscape:connector-curvature="0" />
      <path
         d="m 366.0156,243.2812 q 0.5625,-1.3437 1.4297,-2.0703 0.8672,-0.7265 2.1485,-0.7265 1.5937,0 2.4531,1.0312 0.6406,0.7813 0.6406,1.6563 0,1.4375 -1.8125,2.9843 1.2188,0.4844 1.8438,1.3672 0.625,0.8828 0.625,2.086 0,1.7187 -1.0938,2.9844 -1.4219,1.6406 -4.1406,1.6406 -1.3282,0 -1.8125,-0.336 -0.4844,-0.3359 -0.4844,-0.7109 0,-0.2813 0.2266,-0.5 0.2265,-0.2187 0.5547,-0.2187 0.25,0 0.5,0.0781 0.1562,0.0625 0.7421,0.3672 0.586,0.3047 0.8203,0.3671 0.3594,0.1094 0.7657,0.1094 1,0 1.7343,-0.7734 0.7344,-0.7734 0.7344,-1.836 0,-0.7656 -0.3437,-1.5 -0.25,-0.5468 -0.5469,-0.8281 -0.4219,-0.3906 -1.1562,-0.7109 -0.7344,-0.3203 -1.5,-0.3203 h -0.3126 v -0.2813 q 0.7813,-0.1094 1.5547,-0.5625 0.7735,-0.4531 1.125,-1.1015 0.3516,-0.6485 0.3516,-1.4141 0,-1.0156 -0.625,-1.6328 -0.625,-0.6172 -1.5625,-0.6172 -1.5156,0 -2.5312,1.625 z m 18.1563,8.1719 L 383.25,254 h -7.8125 v -0.3594 q 3.4375,-3.1406 4.8437,-5.1328 1.4063,-1.9922 1.4063,-3.6484 0,-1.2656 -0.7734,-2.0703 -0.7735,-0.8047 -1.836,-0.8047 -0.9843,0 -1.7578,0.5703 -0.7734,0.5703 -1.1484,1.6641 h -0.3594 q 0.25,-1.7969 1.2578,-2.7657 1.0078,-0.9687 2.5235,-0.9687 1.6093,0 2.6874,1.0312 1.0782,1.0313 1.0782,2.4375 0,1.0157 -0.4688,2.0157 -0.7187,1.5781 -2.3437,3.3593 -2.4375,2.6563 -3.0313,3.2031 h 3.4532 q 1.0468,0 1.4765,-0.0781 0.4297,-0.0781 0.7735,-0.3203 0.3437,-0.2422 0.5937,-0.6797 z"
         style="stroke:none"
         transform="translate(-6,-5)"
         clip-path="url(#clipPath4)"
         id="path125"
         inkscape:connector-curvature="0" />
      <line
         transform="translate(-6,-5)"
         x1="358"
         x2="392"
         y1="234"
         style="fill:none"
         y2="234"
         clip-path="url(#clipPath4)"
         id="line127" />
    </g>
    <g
       transform="translate(6,5)"
       style="font-size:16px;font-family:'Times New Roman';color-interpolation:linearRGB;stroke-linecap:butt;stroke-linejoin:round;color-rendering:optimizeQuality;image-rendering:optimizeQuality;text-rendering:optimizeLegibility"
       id="g133">
      <path
         d="M 198.8761,376.9957 V 13.0293"
         style="fill:none"
         clip-path="url(#clipPath1)"
         id="path131"
         inkscape:connector-curvature="0" />
    </g>
    <g
       transform="translate(6,5)"
       style="font-size:16px;font-family:'Times New Roman';color-interpolation:linearRGB;color-rendering:optimizeQuality;image-rendering:optimizeQuality;text-rendering:optimizeLegibility"
       id="g137">
      <path
         d="m 198.8761,376.9998 h -4"
         style="fill:none"
         clip-path="url(#clipPath1)"
         id="path135"
         inkscape:connector-curvature="0" />
    </g>
    <g
       style="font-size:16px;font-family:'Times New Roman';color-interpolation:linearRGB;color-rendering:optimizeQuality;image-rendering:optimizeQuality;text-rendering:optimizeLegibility"
       id="g141">
      <path
         d="m 190.5938,383.5156 h -13.1876 v -1.0312 h 13.1876 z"
         style="stroke:none"
         clip-path="url(#clipPath8)"
         id="path139"
         inkscape:connector-curvature="0" />
    </g>
    <g
       style="font-size:16px;font-family:'Times New Roman';color-interpolation:linearRGB;color-rendering:optimizeQuality;image-rendering:optimizeQuality;text-rendering:optimizeLegibility"
       id="g145">
      <path
         d="m 189.3438,377.0625 3.2187,-1.5781 h 0.3281 v 11.1875 q 0,1.1093 0.0938,1.3828 0.0937,0.2734 0.3828,0.4219 0.289,0.1484 1.1953,0.164 V 389 h -4.9844 v -0.3594 q 0.9375,-0.0156 1.211,-0.164 0.2734,-0.1485 0.3828,-0.3828 0.1093,-0.2344 0.1093,-1.4219 v -7.1563 q 0,-1.4375 -0.0937,-1.8594 -0.0781,-0.3124 -0.2578,-0.4531 -0.1797,-0.1406 -0.4297,-0.1406 -0.3594,0 -1.0156,0.2969 z"
         style="stroke:none"
         clip-path="url(#clipPath4)"
         id="path143"
         inkscape:connector-curvature="0" />
    </g>
    <g
       transform="translate(6,5)"
       style="font-size:16px;font-family:'Times New Roman';color-interpolation:linearRGB;color-rendering:optimizeQuality;image-rendering:optimizeQuality;text-rendering:optimizeLegibility"
       id="g149">
      <path
         d="m 198.8761,286.0072 h -4"
         style="fill:none"
         clip-path="url(#clipPath1)"
         id="path147"
         inkscape:connector-curvature="0" />
    </g>
    <g
       style="font-size:16px;font-family:'Times New Roman';color-interpolation:linearRGB;color-rendering:optimizeQuality;image-rendering:optimizeQuality;text-rendering:optimizeLegibility"
       id="g153">
      <path
         d="m 174.5938,293.5156 h -13.1876 v -1.0312 h 13.1876 z"
         style="stroke:none"
         clip-path="url(#clipPath9)"
         id="path151"
         inkscape:connector-curvature="0" />
    </g>
    <g
       style="font-size:16px;font-family:'Times New Roman';color-interpolation:linearRGB;color-rendering:optimizeQuality;image-rendering:optimizeQuality;text-rendering:optimizeLegibility"
       id="g157">
      <path
         d="m 171.7188,292.4531 q 0,-2.2656 0.6874,-3.8984 0.6876,-1.6328 1.8126,-2.4297 0.8906,-0.6406 1.8281,-0.6406 1.5156,0 2.7343,1.5468 1.5,1.9219 1.5,5.2188 0,2.3125 -0.664,3.9219 -0.6641,1.6093 -1.6875,2.3359 -1.0235,0.7266 -1.9922,0.7266 -1.8906,0 -3.1563,-2.2344 -1.0624,-1.8906 -1.0624,-4.5469 z m 1.9218,0.25 q 0,2.7344 0.6719,4.4531 0.5625,1.4688 1.6563,1.4688 0.5312,0 1.0937,-0.4766 0.5625,-0.4765 0.8594,-1.5859 0.4531,-1.6875 0.4531,-4.7344 0,-2.2656 -0.4688,-3.7812 -0.3593,-1.125 -0.9062,-1.5938 -0.4062,-0.3281 -0.9688,-0.3281 -0.6718,0 -1.1874,0.5938 -0.7032,0.8124 -0.9532,2.5546 -0.25,1.7422 -0.25,3.4297 z m 9.8594,4.4063 q 0.4531,0 0.7656,0.3125 0.3125,0.3125 0.3125,0.7656 0,0.4531 -0.3125,0.7734 -0.3125,0.3203 -0.7656,0.3203 -0.4531,0 -0.7656,-0.3203 -0.3125,-0.3203 -0.3125,-0.7734 0,-0.4531 0.3125,-0.7656 0.3125,-0.3125 0.7656,-0.3125 z m 11.1875,-11.3594 -0.7656,1.6719 h -3.9844 l -0.875,1.7656 q 2.5937,0.3906 4.1094,1.9375 1.2969,1.3281 1.2969,3.125 0,1.0312 -0.4219,1.9219 -0.4219,0.8906 -1.0703,1.5156 -0.6485,0.625 -1.4454,1.0156 -1.1093,0.5313 -2.2968,0.5313 -1.1875,0 -1.7344,-0.4063 -0.5469,-0.4062 -0.5469,-0.8906 0,-0.2813 0.2266,-0.4922 0.2265,-0.2109 0.5703,-0.2109 0.25,0 0.4453,0.0781 0.1953,0.0781 0.6485,0.4063 0.7343,0.5156 1.4843,0.5156 1.1407,0 2.0078,-0.8672 0.8672,-0.8672 0.8672,-2.1016 0,-1.2031 -0.7734,-2.2422 -0.7735,-1.039 -2.1328,-1.6172 -1.0625,-0.4374 -2.9063,-0.5 l 2.5469,-5.1562 z"
         style="stroke:none"
         clip-path="url(#clipPath4)"
         id="path155"
         inkscape:connector-curvature="0" />
    </g>
    <g
       transform="translate(6,5)"
       style="font-size:16px;font-family:'Times New Roman';color-interpolation:linearRGB;color-rendering:optimizeQuality;image-rendering:optimizeQuality;text-rendering:optimizeLegibility"
       id="g161">
      <path
         d="m 198.8761,195.0145 h -4"
         style="fill:none"
         clip-path="url(#clipPath1)"
         id="path159"
         inkscape:connector-curvature="0" />
    </g>
    <g
       transform="translate(6,5)"
       style="font-size:16px;font-family:'Times New Roman';color-interpolation:linearRGB;color-rendering:optimizeQuality;image-rendering:optimizeQuality;text-rendering:optimizeLegibility"
       id="g167">
      <path
         d="m 198.8761,104.0219 h -4"
         style="fill:none"
         clip-path="url(#clipPath1)"
         id="path163"
         inkscape:connector-curvature="0" />
      <path
         d="m 171.7188,110.4531 q 0,-2.2656 0.6874,-3.8984 0.6876,-1.6328 1.8126,-2.4297 0.8906,-0.6406 1.8281,-0.6406 1.5156,0 2.7343,1.5468 1.5,1.9219 1.5,5.2188 0,2.3125 -0.664,3.9219 -0.6641,1.6093 -1.6875,2.3359 -1.0235,0.7266 -1.9922,0.7266 -1.8906,0 -3.1563,-2.2344 -1.0624,-1.8906 -1.0624,-4.5469 z m 1.9218,0.25 q 0,2.7344 0.6719,4.4531 0.5625,1.4688 1.6563,1.4688 0.5312,0 1.0937,-0.4766 0.5625,-0.4765 0.8594,-1.5859 0.4531,-1.6875 0.4531,-4.7344 0,-2.2656 -0.4688,-3.7812 -0.3593,-1.125 -0.9062,-1.5938 -0.4062,-0.3281 -0.9688,-0.3281 -0.6718,0 -1.1874,0.5938 -0.7032,0.8124 -0.9532,2.5546 -0.25,1.7422 -0.25,3.4297 z m 9.8594,4.4063 q 0.4531,0 0.7656,0.3125 0.3125,0.3125 0.3125,0.7656 0,0.4531 -0.3125,0.7734 -0.3125,0.3203 -0.7656,0.3203 -0.4531,0 -0.7656,-0.3203 -0.3125,-0.3203 -0.3125,-0.7734 0,-0.4531 0.3125,-0.7656 0.3125,-0.3125 0.7656,-0.3125 z m 11.1875,-11.3594 -0.7656,1.6719 h -3.9844 l -0.875,1.7656 q 2.5937,0.3906 4.1094,1.9375 1.2969,1.3281 1.2969,3.125 0,1.0312 -0.4219,1.9219 -0.4219,0.8906 -1.0703,1.5156 -0.6485,0.625 -1.4454,1.0156 -1.1093,0.5313 -2.2968,0.5313 -1.1875,0 -1.7344,-0.4063 -0.5469,-0.4062 -0.5469,-0.8906 0,-0.2813 0.2266,-0.4922 0.2265,-0.2109 0.5703,-0.2109 0.25,0 0.4453,0.0781 0.1953,0.0781 0.6485,0.4063 0.7343,0.5156 1.4843,0.5156 1.1407,0 2.0078,-0.8672 0.8672,-0.8672 0.8672,-2.1016 0,-1.2031 -0.7734,-2.2422 -0.7735,-1.039 -2.1328,-1.6172 -1.0625,-0.4374 -2.9063,-0.5 l 2.5469,-5.1562 z"
         style="stroke:none"
         transform="translate(-6,-5)"
         clip-path="url(#clipPath4)"
         id="path165"
         inkscape:connector-curvature="0" />
    </g>
    <g
       transform="translate(6,5)"
       style="font-size:16px;font-family:'Times New Roman';color-interpolation:linearRGB;color-rendering:optimizeQuality;image-rendering:optimizeQuality;text-rendering:optimizeLegibility"
       id="g173">
      <path
         d="m 198.8761,13.0293 h -4"
         style="fill:none"
         clip-path="url(#clipPath1)"
         id="path169"
         inkscape:connector-curvature="0" />
      <path
         d="m 189.3438,14.0625 3.2187,-1.5781 h 0.3281 v 11.1875 q 0,1.1093 0.0938,1.3828 0.0937,0.2734 0.3828,0.4219 0.289,0.1484 1.1953,0.164 V 26 h -4.9844 v -0.3594 q 0.9375,-0.0156 1.211,-0.164 0.2734,-0.1485 0.3828,-0.3828 0.1093,-0.2344 0.1093,-1.4219 v -7.1563 q 0,-1.4375 -0.0937,-1.8594 -0.0781,-0.3124 -0.2578,-0.4531 -0.1797,-0.1406 -0.4297,-0.1406 -0.3594,0 -1.0156,0.2969 z"
         style="stroke:none"
         transform="translate(-6,-5)"
         clip-path="url(#clipPath4)"
         id="path171"
         inkscape:connector-curvature="0" />
    </g>
    <g
       transform="translate(6,5)"
       style="font-size:16px;font-family:'Times New Roman';color-interpolation:linearRGB;color-rendering:optimizeQuality;image-rendering:optimizeQuality;text-rendering:optimizeLegibility"
       id="g177">
      <path
         d="m 198.8761,358.8013 h -2"
         style="fill:none"
         clip-path="url(#clipPath1)"
         id="path175"
         inkscape:connector-curvature="0" />
    </g>
    <g
       transform="translate(6,5)"
       style="font-size:16px;font-family:'Times New Roman';color-interpolation:linearRGB;color-rendering:optimizeQuality;image-rendering:optimizeQuality;text-rendering:optimizeLegibility"
       id="g181">
      <path
         d="m 198.8761,340.6028 h -2"
         style="fill:none"
         clip-path="url(#clipPath1)"
         id="path179"
         inkscape:connector-curvature="0" />
    </g>
    <g
       transform="translate(6,5)"
       style="font-size:16px;font-family:'Times New Roman';color-interpolation:linearRGB;color-rendering:optimizeQuality;image-rendering:optimizeQuality;text-rendering:optimizeLegibility"
       id="g185">
      <path
         d="m 198.8761,322.4042 h -2"
         style="fill:none"
         clip-path="url(#clipPath1)"
         id="path183"
         inkscape:connector-curvature="0" />
    </g>
    <g
       transform="translate(6,5)"
       style="font-size:16px;font-family:'Times New Roman';color-interpolation:linearRGB;color-rendering:optimizeQuality;image-rendering:optimizeQuality;text-rendering:optimizeLegibility"
       id="g189">
      <path
         d="m 198.8761,304.2057 h -2"
         style="fill:none"
         clip-path="url(#clipPath1)"
         id="path187"
         inkscape:connector-curvature="0" />
    </g>
    <g
       transform="translate(6,5)"
       style="font-size:16px;font-family:'Times New Roman';color-interpolation:linearRGB;color-rendering:optimizeQuality;image-rendering:optimizeQuality;text-rendering:optimizeLegibility"
       id="g193">
      <path
         d="m 198.8761,267.8087 h -2"
         style="fill:none"
         clip-path="url(#clipPath1)"
         id="path191"
         inkscape:connector-curvature="0" />
    </g>
    <g
       transform="translate(6,5)"
       style="font-size:16px;font-family:'Times New Roman';color-interpolation:linearRGB;color-rendering:optimizeQuality;image-rendering:optimizeQuality;text-rendering:optimizeLegibility"
       id="g197">
      <path
         d="m 198.8761,249.6101 h -2"
         style="fill:none"
         clip-path="url(#clipPath1)"
         id="path195"
         inkscape:connector-curvature="0" />
    </g>
    <g
       transform="translate(6,5)"
       style="font-size:16px;font-family:'Times New Roman';color-interpolation:linearRGB;color-rendering:optimizeQuality;image-rendering:optimizeQuality;text-rendering:optimizeLegibility"
       id="g201">
      <path
         d="m 198.8761,231.4116 h -2"
         style="fill:none"
         clip-path="url(#clipPath1)"
         id="path199"
         inkscape:connector-curvature="0" />
    </g>
    <g
       transform="translate(6,5)"
       style="font-size:16px;font-family:'Times New Roman';color-interpolation:linearRGB;color-rendering:optimizeQuality;image-rendering:optimizeQuality;text-rendering:optimizeLegibility"
       id="g205">
      <path
         d="m 198.8761,213.2131 h -2"
         style="fill:none"
         clip-path="url(#clipPath1)"
         id="path203"
         inkscape:connector-curvature="0" />
    </g>
    <g
       transform="translate(6,5)"
       style="font-size:16px;font-family:'Times New Roman';color-interpolation:linearRGB;color-rendering:optimizeQuality;image-rendering:optimizeQuality;text-rendering:optimizeLegibility"
       id="g209">
      <path
         d="m 198.8761,176.816 h -2"
         style="fill:none"
         clip-path="url(#clipPath1)"
         id="path207"
         inkscape:connector-curvature="0" />
    </g>
    <g
       transform="translate(6,5)"
       style="font-size:16px;font-family:'Times New Roman';color-interpolation:linearRGB;color-rendering:optimizeQuality;image-rendering:optimizeQuality;text-rendering:optimizeLegibility"
       id="g213">
      <path
         d="m 198.8761,158.6175 h -2"
         style="fill:none"
         clip-path="url(#clipPath1)"
         id="path211"
         inkscape:connector-curvature="0" />
    </g>
    <g
       transform="translate(6,5)"
       style="font-size:16px;font-family:'Times New Roman';color-interpolation:linearRGB;color-rendering:optimizeQuality;image-rendering:optimizeQuality;text-rendering:optimizeLegibility"
       id="g217">
      <path
         d="m 198.8761,140.419 h -2"
         style="fill:none"
         clip-path="url(#clipPath1)"
         id="path215"
         inkscape:connector-curvature="0" />
    </g>
    <g
       transform="translate(6,5)"
       style="font-size:16px;font-family:'Times New Roman';color-interpolation:linearRGB;color-rendering:optimizeQuality;image-rendering:optimizeQuality;text-rendering:optimizeLegibility"
       id="g221">
      <path
         d="m 198.8761,122.2204 h -2"
         style="fill:none"
         clip-path="url(#clipPath1)"
         id="path219"
         inkscape:connector-curvature="0" />
    </g>
    <g
       transform="translate(6,5)"
       style="font-size:16px;font-family:'Times New Roman';color-interpolation:linearRGB;color-rendering:optimizeQuality;image-rendering:optimizeQuality;text-rendering:optimizeLegibility"
       id="g225">
      <path
         d="m 198.8761,85.8234 h -2"
         style="fill:none"
         clip-path="url(#clipPath1)"
         id="path223"
         inkscape:connector-curvature="0" />
    </g>
    <g
       transform="translate(6,5)"
       style="font-size:16px;font-family:'Times New Roman';color-interpolation:linearRGB;color-rendering:optimizeQuality;image-rendering:optimizeQuality;text-rendering:optimizeLegibility"
       id="g229">
      <path
         d="m 198.8761,67.6248 h -2"
         style="fill:none"
         clip-path="url(#clipPath1)"
         id="path227"
         inkscape:connector-curvature="0" />
    </g>
    <g
       transform="translate(6,5)"
       style="font-size:16px;font-family:'Times New Roman';color-interpolation:linearRGB;color-rendering:optimizeQuality;image-rendering:optimizeQuality;text-rendering:optimizeLegibility"
       id="g233">
      <path
         d="m 198.8761,49.4263 h -2"
         style="fill:none"
         clip-path="url(#clipPath1)"
         id="path231"
         inkscape:connector-curvature="0" />
    </g>
    <g
       transform="translate(6,5)"
       style="font-size:16px;font-family:'Times New Roman';color-interpolation:linearRGB;color-rendering:optimizeQuality;image-rendering:optimizeQuality;text-rendering:optimizeLegibility"
       id="g237">
      <path
         d="m 198.8761,31.2278 h -2"
         style="fill:none"
         clip-path="url(#clipPath1)"
         id="path235"
         inkscape:connector-curvature="0" />
    </g>
  </g>
</svg>
